<svg xmlns="http://www.w3.org/2000/svg" viewBox="0 0 319.9 394.7"><path d="M313,87.2l-2.15,7.89c4.07-3.31,5.53-6.52,6.33-13.29-3.15.56-2.8,3.7-4.21,5.43l0,.06v0Zm0,0Z"/><path d="M316.56,58q-9.44-2-18.92-3.57a11.52,11.52,0,0,0-4.55.33,69.46,69.46,0,0,0-22,9.24,146.23,146.23,0,0,0-33.64,31.1c-1,1.27-2.19,2.4-3.47,3.79-.59-13.58-1.15-26.6-1.73-40.13-3.59.24-7.16-.19-10.25.84-4.8,1.6-11.18.18-13.87,6.45-.17.38-1,.64-1.49.67-2.41.17-3.18,1.83-3.68,3.8-.78,3.14-1.25,6.4-2.39,9.4-6.18,16.31-12.52,32.55-18.86,48.8a19,19,0,0,1-1.84,3c-2.54-.55-3.3-3.82-6.66-2.86l4.54,6.6c-2.77,4.69-2.77,4.69-7.58,5.42-2.63-3.92-3.58-8.33-3.81-13a45,45,0,0,0-1-5.6c-.43-2.32-.85-4.63-1.32-7.21-4.21-2.14-4.49-2.86-3.26-7.7a7.74,7.74,0,0,0-.27-3c-.45-2.58-1.48-5.19-1.32-7.72s1.39-5.27,2.17-7.89a.18.18,0,0,1,.07,0l0-.15h0l-.07.07c-.68-4-1.41-7.91-2-11.89-.29-1.88-.89-3.94-.42-5.66,1.33-4.81-.36-9-1.72-13.39s-4-8.8-4-13.72a57.3,57.3,0,0,1,.74-6.49c.16-1.41.32-2.82.47-4.22,1.28.5,2.55,1,3.85,1.49.29.1.69-.15,1.32-.31.73-1.86-.52-2.54-2-3.12-5.88-2.27-9.08-6.89-10.59-12.7-.71-2.75-.68-5.7-.94-8.56-.22-2.54-1.29-4.27-3.87-5.09C138,3.76,133.83,2.24,129.7.76c-4.46-1.59-7.36-.73-10.49,3-4,4.75-7.44,9.74-9.36,15.71-2.63,8.21-5.57,16.32-8,24.6C97,61,97.77,77.75,103.34,94.38c.37,1.13.23,2.44.4,4.48-2.34-4.47-4.26-8.15-6.26-12l-2.22,1.33c-2.3-3.26-4-7.19-7-9.47a27.84,27.84,0,0,1-9.15-11.42c-1.59-3.77-2-3.76-6.3-1.15l4,1.74c-5,.19-6.67-.18-9.51-2.2-3.06-2.19-6.09-3.58-10.11-2.5C51.58,64.75,45.75,65.71,40,67c-8.15,1.76-12.89,7.36-15.43,14.78-.83,2.43-2.39,5-1.06,8.22.85,2,1,5.81-.3,7-2.85,2.7-3.9,7.34-9.21,7.8-5.72.5-6.35,2-6,8.09l3.61,1.74c-.44,1.33-.88,2.38-1.13,3.47-1.12,5-.06,6.66,4.93,7.66a55.19,55.19,0,0,0,8,1.12,14.48,14.48,0,0,1,10.44,5.35c1.65,1.87,3.23,3.8,4.77,5.77,5.31,6.78,10.58,13.6,15.9,20.39,3,3.8,6,7.56,9,11.34a20.35,20.35,0,0,1-7-1.61c-16.42-6.34-32.81-12.74-49.26-19-2-.75-4.28-.64-6.25-.91-2.23,6.54-.49,11.29,4,15.16,4.64,4,9.17,8.19,14.1,11.8C33.86,186,49.66,194.9,67.63,199.4c9,2.27,18.13,4.33,27,6.44-.51.38-1.58,1.1-2.56,1.93-1.16,1-2.27,2.06-3.37,3.13-3.47,3.4-3.78,6.41-.63,10a13,13,0,0,0,5,3.68c4.85,1.73,9.78,3.62,14.83,4.32,18.1,2.47,35-1.93,51.14-9.93,2.32-1.15,4.67-2.23,7.61-3.64,0,2.51-.12,4.18-.06,5.86.32,9.75.08,19.57,1.15,29.25,1.53,13.88,4.14,27.65,6.06,41.49q1.71,12.24,2.69,24.56c1.33,16.81,2.6,33.63,3.5,50.47.47,8.69,1.48,17.17,4.83,25.25a15.66,15.66,0,0,0,1.63,2.49c4.23-4.69,3.57-9.92,2.73-15-1.64-10-.39-20,1.59-29.63,2.62-12.8,2.94-25.78,4.53-38.64.26-2.07-.46-4.28-.07-6.3,1.44-7.52,2.7-15,2.24-22.73s-.55-15.31-1.6-22.87c-1.8-13.06-5.86-25.81-5.1-39.23.37-6.47.11-13,.81-19.42.59-5.41,7.89-11,12.41-9.48,3.24,1.05,5.37,0,8-1.25,3.4-1.6,7.11-2.52,10.68-3.75a12.67,12.67,0,0,0,3.07-1.21c1.66-1.14,3.12-2.56,4.74-3.76A41.16,41.16,0,0,0,243.69,166l9-3.42c-1.19-4.09.59-6.45,3.49-8.6,1.91-1.42,3.24-3.62,4.87-5.43a32.39,32.39,0,0,1,2.8-2.82c1.42-1.21,3.14-2.13,4.35-3.5q7.38-8.38,14.52-17,8.93-10.78,17.62-21.75c4.26-5.34,8.38-10.77,12.56-16.17,1.62-5.48,3.29-10.94,4.86-16.44.78-2.73,1.41-5.51,2-8.28S318.87,58.5,316.56,58ZM97,97.3l-.69-2.47,1.06-.23c.16.83.31,1.66.47,2.49Zm59.88,46.89-2.41-3.68c-2.17,1.38-2.83,5.1-6,3.47-1-.51-1.33-2.3-2.39-4.3-2-.24-4.85-.2-7.47-1a45.94,45.94,0,0,1-9.76-4.37c-1.62-1-2.88-1.61-4.71-1a17.88,17.88,0,0,1-2.86.28c-4.69.55-8.3-.52-9.6-5.77a21.09,21.09,0,0,0-2.19-4.41c1.16-.46,2.37-.6,2.92-1.28.34-.42-.13-1.78-.58-2.5-1.08-1.76-2.48-3.32-3.52-5.1-.39-.68-.53-2.22-.13-2.53,2.75-2.13.83-4.35-.5-5.28-2.79-1.94-2.83-4.39-2.46-7.09a21.53,21.53,0,0,0-1.44-11.23c-1.86-4.69-.53-9.46.46-14.15-.73-.49-2.13-1-2.09-1.44a127.56,127.56,0,0,1,2.08-14c1.8,4.51,1.6,12.24,0,15.55.74,3.89,1.47,7.79,2.23,11.68.18.94.17,2.12.74,2.75,3.78,4.15,4.12,9.54,5.5,14.56.22.78,1,1.41,2.48,1.81-.36-3.28-.18-6.73-1.19-9.79-1.69-5.14-3.23-10.15-2.13-15.62.11-.59-.39-1.34-.71-2-1.09-2.11-.76-3.65.37-6C113,68.59,112.62,64.6,113,61c.28-3.07.24-6.28,4-7.45.25.23.73.5.7.67-1.51,7.89,3.11,14.27,5.26,21.24.79,2.56,1.95,5,2.84,7.53a6.45,6.45,0,0,0,2.46,3.26A9.41,9.41,0,0,1,131.49,93c-.3,7,3.85,12.26,5.79,19.37l2.47-3.27c1.46,1.13,2.4,2.47,1.29,4.22-1.66,2.62-.2,4,1.43,5.91,5,5.76,9.87,11.66,12.47,19.4l4.47,0C158.56,140.5,157.8,142.16,156.89,144.19Zm89.81-18.93-.79-.22.77-2.27.54.15C247,123.7,246.87,124.48,246.7,125.26Zm62.63-61.43-.66-3.19,1.05-.22c.21,1.06.42,2.13.64,3.2Zm2.93,4.23-1.08-.23c.25-.56.49-1.11.76-1.65a1,1,0,0,1,.45.08C312.37,66.86,312.31,67.46,312.26,68.06Z"/><path d="M168.76,105.4c-.39-2.14-.65-3.55-.9-5C166.3,103.11,166.3,103.11,168.76,105.4Z"/><path d="M161.4,88.83l1.44,4.91C163.85,90.46,163.85,90.4,161.4,88.83Z"/><path d="M137.32,131.68a5.32,5.32,0,0,0,.57,1.31c.37-.41.8-.73.75-.87a5.88,5.88,0,0,0-.78-1.18C137.67,131.19,137.29,131.46,137.32,131.68Z"/></svg>