<svg xmlns="http://www.w3.org/2000/svg" viewBox="0 0 340.76 484.66"><path d="M335.11,94.73l-.64-.53c1.4-2.38,2.81-4.76,4.24-7.17-1.41-1.6-2.41-3.13-1.25-5.58a87.38,87.38,0,0,0,3.3-9.44l-3.3-2.22c-3.34-3.21-2.81-6.63-.55-9.51-1.17-2.48-2.39-4.38-3-6.47-1.11-3.86-2.54-5.19-6.7-5.55-1.07-.09-2.43-.09-3.13-.72-2.55-2.31-5.42-.95-7.52-.08-5.35,2.21-9.55,6.23-13,10.87-1.9,2.58-1.86,6-2.95,9-2.78,7.7-4.11,15.91-6.48,23.77-1.27,4.18-2.51,8.54-5.94,13.14a43.27,43.27,0,0,1-.11-5.09c1.3-10.89-.34-21.42-3.91-31.68-1.87-5.35-4.71-10.09-9.51-13.36-2.55-1.75-6.79-1.59-7.67.59-1.34,3.32-3.12,7-2.82,10.34,1.53,17-.07,33.73-2.2,50.5a7.86,7.86,0,0,1-.55,1.58l-2.52-2.3c-.56,2-1,3.69-1.52,5.38l-1.28.1c-.46-1.49-.94-3-1.37-4.46-1-3.48-1.7-7.09-3.08-10.41-2.24-5.41-6.83-7.17-12.47-5.24-4.51,1.54-9.06,3-13.49,4.72a10.24,10.24,0,0,0-4.57,3.24c-4,5.78-7.77,11.73-11.49,17.69-1.36,2.18-2.38,4.56-3.56,6.85l-1.18-.11c-.63-2.51-1.71-5-1.8-7.53-.32-9.17-.89-18.4-.28-27.53,1-14.93-1.74-29.41-4.33-43.89-2.45-13.75-5.15-27.42-5.28-41.46A15.44,15.44,0,0,0,192,5.52c-1.41-2.78-3-5.88-7.16-5.49-5.69.54-11.47.52-17.09,1.47-4.7.8-8.06,3.8-10.37,8.29-4.64,9-7.69,18.58-7.83,28.62-.24,16.67.14,33.37.79,50,.42,10.72,1.79,21.4,2.72,32.09.19,2.2.16,2.2-2.48,3.41-.23-3.68,1.94-7.54-1.16-11.62l-1.7,7.71c-1.35-.79-1.93-1.55-2.07-2.38-1.06-6.2-2-12.42-3-18.62a31.85,31.85,0,0,1-.55-9.82,21,21,0,0,0-1.82-11.06l-4.39,1.76c.67-3.85,1.54-6.75,1.57-9.66s-.8-6-1.21-9c-.15-1.11.15-2.39-.3-3.33-2.39-5-4.86-10-7.49-14.83s-1.59-8.68,3.3-11.29A39.27,39.27,0,0,0,135,29.55c-4.16-1.69-7.62-.89-10.79.26-2.19.79-4.07,1-6,.05-7-3.51-14.5-3.2-21.93-2.9-5.87.23-10.68,3-10.88,10.71-.09,3.84-.41,7.67-.56,11.5A186.1,186.1,0,0,0,86.6,81.26c1.47,10.95,3.19,21.9,5.51,32.7,1.27,5.93,4.51,11.42,6,17.33a62,62,0,0,0,7.82,19c.36.56-.08,1.62-.21,3.22-2-1.72-3.93-2.67-4.85-4.19-3.68-6-7.21-12.08-8.42-19.31a101.68,101.68,0,0,0-4.52-16c-4.36-12.66-8.95-25.24-13.48-37.84-.32-.87-.72-2-1.42-2.4-4.74-2.47-9.4-5.24-14.42-7a5.63,5.63,0,0,0-7.39,4.53,95.27,95.27,0,0,0-.87,11.44c-.1,14.65,4.75,28.25,9.29,41.88a45.58,45.58,0,0,0,10,17.31c.28.29.2.92.41,2-7.21-3.63-15.73-3.28-20.5-10.47-4.77,1.71-8.88.85-12.78-2.28a37,37,0,0,0-7.73-4.7c-1.79-.81-4.06-1.09-5.42,1.38,4.7,2,4.7,2,4.29,6.55L23.48,132c-.33,1.23-.64,2.38-1.16,4.27-3.07-3.43-5.16-2.17-8.13-.31-2.24,1.42-1.88,3.67-3.55,5.05A87.65,87.65,0,0,0,3,148.63c-3,3.21-3.34,7.09-2.69,11.25.44,2.79.59,5.64.82,8.47.11,1.33,0,2.68.19,4,.72,4.81,1.06,5,6,5.72,6.39.88,13.06.59,18.82,4.35,2.08,1.35,4.33,2.45,6.51,3.66,10.18,5.66,21,10.27,30.16,17.66,1.63,1.31,4.14,1.5,5.84,2.76,2.27,1.67,5.63,2.54,5.35,6.63-.09,1.16,1.62,2.47,2.57,3.66.16.2.65.16,1.31.29-.28-1.28-.54-2.43-1-4.65a14.2,14.2,0,0,0,11.65.76c1.14-.4,2.92.56,4.25,1.23,12.15,6.06,24.31,12.11,36.36,18.35,3.5,1.81,7.2,3.51,10.7,4.9,5.7,2.26,12.27,4,18.54,2.38s11.66.68,17.08,3c5.2,2.21,5.68,3.07,5.08,8.81-.27,2.58-1,5.11-1.48,7.59,2.54,1.15,3.92-.17,4.31-1.84.67-2.85,2.55-2.75,4.8-3,.56,2.22,1,4.16,1.5,6l11.64-1.2c-.47,3.54-.86,6.68-1.3,9.82-3.08,21.83-5.48,43.7-5.71,65.79-.15,15.14-1.3,30.27-1.57,45.41-.54,30.4,1.63,60.58,8.73,90.25,1.13,4.72,2.93,9.29,4.42,13.93l1.27-.22c-.14-3.91.11-7.88-.5-11.71-1.9-12-3.4-24-2.68-36.07,2.06-34.05,1.47-68.24,5.53-102.18.4-3.35-.83-6.87-.58-10.25.6-8.36,1.64-16.68,2.47-25a49.63,49.63,0,0,1,.27-5c2.07-10.3,4.41-20.56,6.32-30.89,1.52-8.24,5.39-14.76,12.91-18.54,3.2-1.61,5.33-3.73,6.17-7,.63-2.49,1.72-4.16,4.35-4.7a3.85,3.85,0,0,0,1.82-1.22c4.1-4.49,8.09-9,12.55-13.25,6.42-6.1,11.5-13.63,17.12-20.57.46-.58.54-1.45,1-2.08,3.25-4.88,6.48-9.77,9.88-14.55.7-1,2-1.5,3.76-2.69-.56,2.12-.91,3.42-1.25,4.73l1.08.47L310.66,145l3.64,1.21c3.15-6.95,8.87-12.54,7.68-20.83-.09-.65.55-1.39.8-2.1,1.8-5.22,3.64-10.43,5.38-15.67.9-2.72,1.33-5.68,4.45-7.53-.08,2.51-.13,4.49-.19,6.47l.94.23L339,93.46l-.89-.58Zm2.29-24.79c-.35,1.51-.7,3-1.25,5.42C334.59,72.28,335.89,71.06,337.4,69.94ZM160.69,163.25a21.22,21.22,0,0,1,2.29,1l-1.74,1.47c-.44-.65-.89-1.31-1.29-2C159.94,163.72,160.51,163.18,160.69,163.25Zm-2.32-12.89-.91.42c-.25-1-.49-2-.74-2.93Zm-1.85-2.88c-2-1-1.63-2.84-1.75-4.54Q155.66,145.22,156.52,147.48Zm-4.58-17.93c2.59,2.32,2.74,3,2.75,13C151.65,137.61,151.14,135.2,151.94,129.55Zm-5.06,11.64c3.11,2.92,5.88,6,5.88,10.66-3.58-2.66-4.48-6.8-5.88-10.66Zm-47.8,20c3.81.82,7.16,1.38,10.42,2.29a8.91,8.91,0,0,1,4.3,2.39,17.17,17.17,0,0,1,3.54,7.5Zm61.55,17.51c-.65.55-1.93.34-2.93.48h0c1.14-3.41,1.14-3.41-3.61-5.21,1,1.54,1.7,2.58,2.39,3.61-3.56-.37-7.26-.19-10.23-2.78a2,2,0,0,0-1.61-.42c-4.87,2-7.94-2.26-11.92-3.3-1,1.69-2.31.86-3.31.09a27.32,27.32,0,0,1-9.59-12.42,131.61,131.61,0,0,0-7.4-15.44,52.22,52.22,0,0,1-5.52-20.65c4.32,8.68,7.14,18.08,13.65,26a6.92,6.92,0,0,0,.15-2.33c-1.55-5.27-3-10.57-4.88-15.73-1.76-4.84-2.74-9.53,0-14.18,1.22,5.91,2.48,12,3.83,18.53l5.41-2.68c-.63-3.51-1.08-7.07-1.95-10.52a10.46,10.46,0,0,1,1.2-8.73c1.94-3.14,1.86-6.21-.57-9.71-2.59-3.74-3.91-8.38-1.67-13.24,1.56,4.92,6.58,8.19,6.14,14a24.51,24.51,0,0,0,.65,5.12,11.33,11.33,0,0,1,.27,1.7c-.11,4.34,3.71,7,4.64,10.68s.69,7.94,3.73,11.61c.89-3.15-2.64-6.57,1.17-9.28,3.43,4.17-.07,9.65,3.46,14.19.48-2.22.87-4,1.27-5.84l.87-.16q1.17,4.33,2.35,8.68l0,.05,0-.05-1.57.09c.28,1.69.06,3.7.92,5,3.92,6,4.05,13.31,6.77,19.7.63-1.42,1.25-2.86,2-4.62l3.07.42c-.66,2.33.46,4.1,2,5.53,3.78,3.41,3.82,3.37,4.8,7.38A41.35,41.35,0,0,1,160.63,178.71Zm22.26-40.39a6.81,6.81,0,0,1-1.12-.31c-5.56-3.72-6.67-10.18-9.4-15.6-1.08-2.15-2-4.91-1.61-7.14.65-3.53-.7-6.69-.66-10,0-2.37-2.87-5,.47-7.13.13-.08,0-.73-.15-1.07-3.51-8.43-2.77-17.59-4.52-26.32-.77-3.81-1.92-7.55-2.84-11.34a26.35,26.35,0,0,1-.37-3l2.44.34c.1-.3.38-.71.28-.89-2.1-3.59-2.49-7.33-2.2-11.52.28-3.92-.68-7.94-1.26-11.9-.87-5.83,1.75-9.65,7.7-10.47.35,1.15,1,2.37,1,3.58-.24,12,1.81,23.64,3.53,35.4C176,73.41,177.13,86,178.77,98.56c1.19,9.1,2.91,18.12,4,27.23C183.3,129.86,182.89,134,182.89,138.32Zm67.66,79.27-.93-.92,1.61-1.8.93,1Z"/><path d="M152.8,165.8l0-.06h0a1.34,1.34,0,0,0-.07-.18l0,.11Z"/><path d="M132.67,171l0,.13h0s.05-.06.07-.1Z"/><path d="M132.67,171c-.24-1.69-.47-3.39-.83-5.93C129.66,168.24,129.76,170,132.67,171Z"/><path d="M129.58,145.07l1.56,3.37,1.23-.56c-.5-1.13-1-2.26-1.49-3.39Z"/><path d="M155.45,169.67l-2.65-3.87L151.59,169Z"/></svg>