<svg xmlns="http://www.w3.org/2000/svg" viewBox="0 0 335.49 489.56"><path d="M333.94,156.35c-1.07-2-2.08-4-3.49-6.72l-3.59,2.66v0a24,24,0,0,0-1.28-4.35c-1.3-2.6-3.73-2.69-5.77-.58l-5.06-3.18c1.77-3.92,1.55-4.84-1.76-6.89a21.79,21.79,0,0,0-2.58-1.23c-5.39-2.43-11.15-4.27-16.07-7.42-5.15-3.3-9.55-2.79-14.25.1-1.46.9-2.7,2.17-4.19,3-1,.55-2.28.61-4.6,1.18,4-6.28,6.71-11.88,12.14-15.64a9,9,0,0,1,.63-8.23c1.54-2.63,2.29-5.83.74-8.84a7.85,7.85,0,0,1-.33-6.49c.78-2.6,1.38-6-1.08-8C277,80.4,270.77,74.77,262.54,72.13a33.5,33.5,0,0,1-8.43-4.61c-1.87-1.29-3.39-1.77-5.07-.09-3,3-5.89,6-8.84,9-2.69,2.73-5.38,5.46-8.09,8.16s-5.57,5.51-9.15,9c-.17-2.88-.35-4.55-.36-6.22,0-5.56,0-11.11,0-16.67.12-10.27-1-20.34-5.78-29.6-2.18-4.23-5.2-8-7.61-12.14-2.51-4.3-5.79-7.47-10.62-9a8,8,0,0,1-3.29-2.2c-5-5.47-11.21-7.51-18.45-7.35-5.94.13-10.91-2.7-14.85-6.64-4.61-4.58-8.88-5.34-12.86-.36a56,56,0,0,0-8.08,13.13c-3.5,8.41-4.35,17.4-3.79,26.53a15.67,15.67,0,0,1-1,6.08c-4.21,11.72-8.76,23.32-12.79,35.1-2.51,7.37-4.31,15-6.64,23.24-4-.1-8.26.25-12.27-.49-2.42-.44-4.83-2.28-6.64-4.09-.88-.89-.26-3.18-.53-4.8A46.83,46.83,0,0,0,96,93.3l-4.12,5.76c-6.57-2.9-5.94-9.2-7.36-14.57-3.58.4-5.18-1.92-7-4.33-1.66-2.25-3.77-5.76-5.79-5.84-5.06-.19-8-2.94-11.17-6-2-2-3.66-1.69-6,0-5.19,3.75-10.73,7-16.23,10.55-.8,2.2,0,5.14-2.3,7.26-1.62-2.19-3.35-4-4.41-6.12s.26-5.35-2.83-7.09l-4.43,6.48C21.54,73.6,16.56,75,12,74.21c-.15,1.78-.25,3-.36,4.43l-3.07,0c-5.81,0-6.82.85-7.82,6.7-1.66,9.74-.1,19.37,1.26,29,.23,1.61,2.13,3.21,1.94,4.64-.77,5.81,3.19,9.48,5.65,13.82,1.88,3.31,3.63,6.82,6.12,9.63q12.55,14.19,25.65,27.9a146.92,146.92,0,0,0,30.81,24.83c8.56,5.1,17.09,10.28,25.82,15.08,9.38,5.16,19,9.91,28.5,14.83a11.28,11.28,0,0,0,1.64.55c7.25,2.43,14.43,5.12,21.79,7.18,3.66,1,5.08,3.08,5.21,6.45.25,6.7.5,13.39.55,20.09.12,15.33.13,30.67.13,46,0,2.85-.27,5.69-.33,8.54-.18,8.22-2.52,16.31-1.32,24.64.25,1.74-.72,3.67-1.23,5.49-.41,1.46-1.24,2.83-1.43,4.3-1.67,12.9-3.5,25.78-4.78,38.72-1.44,14.45-2.81,28.94-3.37,43.44-.47,12.22,0,24.5.52,36.74.47,11.62,1.71,13.93,9.58,22.32,4.25-5.52,4.28-5.52,4.48-8.14.61-8,1.17-16,1.8-24,.35-4.39.14-9,1.38-13.1,2.16-7.16,4.72-14.15,3.81-22.24a13.67,13.67,0,0,1,1.15,1c.12.13.1.38.22.51s.29.1.43.14c1.83-3.88,4-7.65,5.42-11.68,3.39-9.51,6.33-19.17,9.69-28.7.91-2.58,2.89-4.77,4-7.32,2.4-5.61,4.48-11.36,6.79-17,4.06-10,7.84-20,8.3-30.94.06-1.33.55-2.63.71-4,.41-3.6,1-7.21,1.08-10.83.18-11.1,0-22.2.26-33.3.15-5.6-.83-10.71-4.27-15.14-2.55-3.28-5.34-6.38-8.32-9.9a17.93,17.93,0,0,1,.5-2.28,66.74,66.74,0,0,1,2.26-6.51c2.53-5.78,9-7.33,14.08-3.65,1.61,1.17,4,2.85,5.43,2.38,4.3-1.47,7.92.47,11.73,1.29s6.74-.28,8.09-4a36.41,36.41,0,0,0,.85-3.92c.92-3.84,1.84-4.93,5.33-4.39,3,.47,5.16-.18,7.08-2.5a9.84,9.84,0,0,1,2.87-1.73c2.8-1.57,5.6-3.13,8.4-4.71,3.43-1.93,5.71-5.4,10.06-6.31,2.44-.5,5-2.76,6.51-4.93a19,19,0,0,1,9.94-7.23c11.8-4.22,21.82-10.91,28.86-21.56a31.28,31.28,0,0,1,2.23-2.78c2.07.35,3.39,1,4.4.64a9.07,9.07,0,0,0,3.07-2.48c3.22-3.26,6.31-6.65,9.58-9.85C335.76,166.33,336.65,161.35,333.94,156.35ZM154.38,361.89l-.27,0,1.1-13.45.88.09Zm1.91-17.79c-.08-3.46-.17-6.93-.28-11.12,2-2.07,2.69-6.08,1.67-12.78l-2,1.31c.39-2.25.22-5.21,1.09-5.55,3-1.2,1.9-3.39,1.94-5.27.14-6.08.08-12.17.27-18.25a56.52,56.52,0,0,1,1.2-7C163.14,306.08,159.64,325.15,156.29,344.1Zm18.19-228.58-1-.15c.18-1.11.36-2.22.55-3.33l.71.23C174.65,113.36,174.56,114.44,174.48,115.52ZM215.87,238.9c1.52-1.75,3-1.67,4.5.09Zm110.74-83.57.24-3C328.93,152.88,328.91,152.91,326.61,155.33Z"/><path d="M169.48,423.68l.68.09c.07-.78.13-1.56.19-2.34l-.52-.07C169.71,422.14,169.6,422.91,169.48,423.68Z"/></svg>