<svg xmlns="http://www.w3.org/2000/svg" viewBox="0 0 345.69 413.14"><path d="M345.12,59.28c1.4-4.12.22-6-3.89-7.36-.89-.29-2.47-.2-2.64-.67-1.8-5-5.86-2.78-9.09-3l-2.95-3.79c-2.48,2.31-4.76,2.14-7.44.67-3.76-2-7.3-1.51-10.19,2A8.84,8.84,0,0,1,305.38,50c-3.94,1.36-6.21,4-7.9,7.74-1.76,3.87-7.9,5.84-12.08,4.8a88,88,0,0,0-14.56-2.78c-5.62-.39-11.31.23-17,.3-1.82,0-3.65-.27-5.6-.43,0-1.81-.27-3.08.14-4,1.28-3,.18-5.54-1.22-8.13-4-7.39-12.87-13.77-25.55-10.1-2.9.84-5.88,1.4-8.76,2.07-2.28-4.39-4.3-8.26-6.31-12.15-4-7.76-10.82-11.39-19-13.28-6.46-1.5-13.09-.76-19.61-2.26-7.38-1.71-14.36-3.63-19-8.44-2.95-.49-4.92-.71-6.84-1.16C139.38,1.43,136.63,0,133.86,0c-6.44,0-12.9.49-19.32,1.06-1.38.12-3.33,1.06-3.87,2.17-1.79,3.7-6.21,6.63-4,11.74.14.33-.43,1-.82,1.78a26,26,0,0,1-2.49-1.37C98.65,12,94,12.19,88.87,15c-11.38,6.16-18,15.89-21.35,28C64.22,54.72,64.21,66.48,68.6,78c1.52,4,.55,6.83-2.87,9.32-1.36-5.28-.47-11.15-6.07-14.79l-2.87,4.24c-2-1.08-3.45-1.84-3.59-4.89-.33-7.1-2.92-9.11-10.09-9.41-2-.08-3.75-.34-4.39-2.75-.74-2.73-2.08,1-3-.17-.75-1-1.36-2.11-2.19-3-.21-.23-1.15,0-1.62.27-5.65,3.23-12.28,3-18.31,5.34C8.18,64.24,6.86,68.83,4,72.4c-1.56,1.92-2.18,4.87-2.53,7.45C.7,85.3.38,90.81,0,96.3a3.78,3.78,0,0,0,.88,2.08C4.64,103.77,5.72,110,6.41,116.3a34.6,34.6,0,0,0,1.74,9c4.82,12,8.43,24.68,17,34.93C27,162.4,28.1,165.05,31,166.3a4.33,4.33,0,0,1,1.87,3.15c.48,5,3.19,8.78,6.07,12.54.13.17.63.07,1,.1,0-.9,0-1.76,0-3.36l5.34,4.05c-.27-1.94-.44-3.17-.61-4.41-1-1.44-2-2.87-3.18-4.64,2.88-.9,3.91.51,4.85,2.08,4.1.63,4.36,4.56,6.36,7.46a38.42,38.42,0,0,1,5.43-.94c2.2-.08,5-.52,6.52.57C70.4,187,75.76,191.57,81.24,196c2.43,2,4.14,4.7,8.18,4.4,1.88-.14,4,2.25,5.94,3.56,5.8,3.91,11.22,8.62,19,9.1l-5.83-5.34c3.63-1.93,6.29-.23,9.17.84a94.8,94.8,0,0,0,9.43,2.44c-3.48,1.62-6.59-.9-9.51,2.39,10.93,2.15,21.15,3.15,31.41,1.16,7.7-1.49,15.5-3,22.82-5.7,4.41-1.61,7.85.5,11.53,1,4.88.69,6.34,6.24,9.07,9.8,1,1.27.91,3.56.85,5.36-.41,13-1.61,26.07-1.3,39.07.53,22.6,1.93,45.18,3,67.77.76,15.9,2.34,31.69,5.9,47.26,2.3,10.07,4.17,20.24,6.29,30.35a26.39,26.39,0,0,0,1.35,3.65c2.66-1.69,3.55-3.59,3-6.43a24.18,24.18,0,0,1-.34-6.85c.44-5.29,1.32-10.55,1.71-15.84.76-10.48,1.23-21,2-31.47.5-6.83.75-13.75,2.09-20.43A218.16,218.16,0,0,0,221.47,285c-.14-7.45-1-14.89-1.59-22.33-.89-10.72-.29-21.41.19-32.13.24-5.24-.26-10.22,3.87-14.21.2-.2.09-.72.11-1.06-.61-.85-1.21-1.69-1.52-2.11,2.42-1.82,4.75-3.06,6.39-4.92,2.94-3.34,5.58-6.88,9.6-6.39,2.68-3.73,4.78-6.86,7.1-9.82,1.88-2.41,4.19-4.48,6-6.93,2.74-3.73,6.11-5.46,10.78-4.72,1.19.19,3.08,0,3.63-.72,1.42-1.91,3.13-4.23,3.17-6.4.05-3.91,1.93-4.17,4.9-4a46.74,46.74,0,0,0,5.84-.36c.41-3.47,2.77-4.57,5.44-5.46a18.63,18.63,0,0,0,5.16-2.36c5.66-4.17,12-7.46,16.72-12.91a23.28,23.28,0,0,1,5.5-4.8c4.41-2.64,9.63-3.59,13.68-7.28,1.53-1.39,3-2.33,3.87-4.39,2.47-6.12,5-12.25,7.84-18.19a49.86,49.86,0,0,0,5.16-27.82c-.35-3.17.37-6.47.69-9.71.35-3.65-1.18-7.56,1.49-10.92.12-.16-.14-.77-.37-1C343.72,62.37,344.54,61,345.12,59.28ZM125.63,101.9l2.61,2.48-3.11-1.84Zm-1.19-62.42c.18,1.23.37,2.46.55,3.69l-.73.11-.66-3.6ZM92,59.14c-1.12-2.61-2.32-5.21-.78-8.44,6.12,14.3,17.16,25.93,21.71,41.23-3.86,1.48-5.82-1-7.26-3.25A94,94,0,0,1,100,77.5C97.21,71.43,94.65,65.27,92,59.14ZM98.84,135l2.78,1.08C100.66,138.14,100,137.27,98.84,135ZM111,140c-4.58,1.18-5,1.08-8.07-2.95a7.18,7.18,0,0,0-1.16-1c3.85-.88,7.68-1.87,11.57-2.59,1-.18,2.12.5,3.19.74,2,.44,4,.84,6,1.25.21.5.42,1,.68,1.65C119.09,138.09,115,139,111,140Zm11.61-4.78c.25-1.41-1.64-3.23.86-4.28.23-.1.07-1.27,0-1.92-.23-1.73-.52-3.44-.89-5.82,5.52,1.54,6.16,5.69,8,9.78C127.34,133,124.33,132.38,122.62,135.26Zm5.63,71.6,3.35.28,0,.23-3.34-.27C128.24,207,128.25,206.94,128.25,206.86Zm3.5,5.12-2-.77.51-1,1.78,1C132,211.46,131.86,211.72,131.75,212Zm-3.1-107.22,4.13,3.62C129.92,108.86,129.21,106.89,128.65,104.76Zm4.28,3.73c3.17,1.63,3.2,1.67,4.9,4.77C134.72,112.67,133.38,111.05,132.93,108.49Zm14.18,104.23c-3.74,0-8.17,2.89-12.52-2.54l20.64-2C153.6,212.7,149.77,212.71,147.11,212.72ZM161.66,209l-.18-1.17,3-.57c.06.25.13.5.2.75ZM212,207c-.71-1-1.91-2-2-3-.09-2.34,1.51-3.65,5.17-5C215.49,203.85,215.49,203.85,212,207Zm5.5,8.9-1.86-3.36C218.59,213,218.59,213,217.49,215.92Zm1-10.77c2.88-3.31,1.89-7.76,7.13-9.37C224.91,200.44,224.31,204,218.49,205.15ZM231.9,85.59a6,6,0,0,0-.7,3.22c1.19,7.39-2.6,13.79-4.27,20.54-.72,2.9-4.24,5.1-7.27,8.49-.75-2.45-1.6-3.81-1.5-5.1,1-14-2.27-27.82-2.64-41.78-.11-4,0-7.94-.05-11.91l1.38-.47c6.53,5.33,11.28,13.46,21.89,13.28C236.19,77,234,81.24,231.9,85.59ZM243.49,68.8l-1.09-.21c.42-1.17.85-2.34,1.28-3.5l.68.19Z"/><path d="M46.38,186.08c.95,2.1,1.63,3.57,2.3,5l1.25-.49C50,187.42,50,187.42,46.38,186.08Z"/><path d="M60.34,184.42c0,.26,0,.51,0,.76a4.39,4.39,0,0,0,1.43.42,8.19,8.19,0,0,0,1.78-.46c-.06-.39-.13-.77-.19-1.16Z"/><path d="M60.56,70.46c.37.16,1-.18,2.51-.55a35.38,35.38,0,0,0-3.22-1.55c-.1,0-.62.68-.55.78A3.56,3.56,0,0,0,60.56,70.46Z"/></svg>