<svg xmlns="http://www.w3.org/2000/svg" viewBox="0 0 265.6 444.15"><path d="M256.37,59.69a4.68,4.68,0,0,1-2.54-2.19c-2.67-6.59-8-10.41-13.56-14.37-11.77-8.45-24.83-10.66-38.7-8.34-5.52.92-9.7,4.05-11.77,10.27-1.66,5-5.54,9.3-8.55,14.07a14.74,14.74,0,0,1-2.52-1.75c-3.92-4.89-7-10.42-12.11-14.39-1.42-1.11-2.16-3.11-3.19-4.71a15.22,15.22,0,0,0-1.77-2.87C158,31.87,155.53,28,155.53,22.5c0-4.14-1.12-8.32-2.09-12.4-.45-1.88-1.75-3.56-2.69-5.39-3.52,1.6-3.5,6.31-7.58,6.5,1.18-4.85,1.07-4.85-3.23-4.74a14,14,0,0,1-5.43-1.1c-5.11-2.06-10.84-1.78-15.84-4.5-1.86-1-4.55-1-6.79-.72-3.38.38-6.68,1.62-8.3,4.94-2.14,4.38-4,8.89-5.88,13.4-2.34,5.67-.07,17.29,4.71,21.22,3.85,3.16,4.68,7.26,5.46,11.6.2,1.12-.11,2.39.31,3.39,4.63,11,4.11,23.17,8.45,34.36,4,10.42,5.31,21.87,10.72,31.91a12.71,12.71,0,0,1,1.49,4.31c.08.69-.93,1.52-2.23,3.47-.8-3.6-1.29-5.83-1.82-8.24-4.57-1.94-5.91-6.28-6.56-10.94-.61-4.34-.5-4.36-5.84-4.18a59.42,59.42,0,0,1-.43-8.22c.17-2.27-.2-3.68-2.61-4.24-.41.82-.79,1.58-1.39,2.8-1.24-1.87-2.21-3.5-3.35-5-2.42-3.18-4.54-6.72-7.5-9.29s-4.32-4.8-3.75-8.75c.39-2.67-.46-5.52-.74-8.16l-7.31-1.16c.2-1.26.08-2.18.48-2.71,2.39-3.16.47-5.45-1.61-7.49C83,52,81.24,51.43,79.84,50.45a7.17,7.17,0,0,1-2.29-2.26A58,58,0,0,1,74.8,42c-1.44-3.62-3-6.77-6.4-9.41-3.1-2.45-4.64-6.8-7.26-10-1.68-2.06-3.87-3.49-3.63-6.73C57.58,14.8,56,13,54.87,12.59a20.65,20.65,0,0,0-7.22-1.23c-10.84.16-20.52,4.21-30,9.29C14.46,32.36,16.3,44.26,16,56c-.11,4.5.91,9,1.31,13.53.3,3.37.23,6.78.7,10.11.52,3.66-.05,6.41-3.16,9C12.1,91,9.3,90.38,5.94,90.33,7.24,95.61,1.63,94.11,0,96.6c3.53,7,7,13.79,10.45,20.59,2.62,5.11,5,10.37,8,15.21C23.08,139.76,28,147,34.93,152.48a8,8,0,0,1,.75.87c4.23,4.51,6,11.15,12,14.11.45.22.62,1,1,1.36,4,3.82,7.58,8.28,12.13,11.27A264.18,264.18,0,0,0,85.34,194c7.45,3.83,15.22,7,22.9,10.51l1.69-2.25c1.58,3.58-.6,4.39-3.39,5.25a48.05,48.05,0,0,1,5.85,1.93c4.41,2.2,9.68.34,14,3.31,4,2.74,8.44,1.09,12.73.65l3.09-1-.8,2.66.93,4.15c2.33-1.74,4.23-1.39,6.48-.18,2.4,1.29,4.65.2,7-1.14,2.91-1.67,6.21-2.67,9.33-4a8.24,8.24,0,0,0,2.2-1.3c2.21-1.89,4.35-3.86,6.54-5.83.69.92,1.07,1.2,1.12,1.53.67,4.54,1.19,9.1,2,13.63,4.39,26.09,2.76,52.05-2.32,77.8-2.89,14.65-7.2,29-10.48,43.59-2.44,10.82-4.76,21.72-6.22,32.71a343.76,343.76,0,0,0-2.8,35c-.3,10.5.52,21,.91,31.56,0,.43.58.83,1.21,1.66,1.86-4.82,3.5-9.26,5.29-13.64.69-1.67,2.19-3.13,2.51-4.83,1.32-7.16,2.23-14.39,3.47-21.57,1.73-10,3.18-20.06,5.55-29.91,2.55-10.6,6-21,9.12-31.44.87-2.91,1.76-5.83,2.86-8.66,3.49-9,7.08-17.91,10.59-26.74l.73,1.9c1.79-5.89,3.93-11.42,5.09-17.15,2.43-12,4.9-24.08,6.31-36.24a100.14,100.14,0,0,0-2-33.16c-.59-2.69-.61-5,1-7.62,2.69-4.26,2.43-8.57-1-12.63-2.63-3.08-2.61-4,.31-6.67s6-4.61,9.09-6.87c6.49-4.8,13.08-9.47,19.41-14.47a11,11,0,0,0,3.29-5.29c1.07-3.57,1.57-7.31,2.36-11.24l-3.95-3.07,11.59-4.13c-.76-2.27-2.21-4.4-1.64-5.46.8-1.48,3.09-2.17,5.24-3.51l-3.73-5.6c1.39-3.06,2.68-6.26,4.27-9.31a74.24,74.24,0,0,0,8.33-24.92A117,117,0,0,0,260.85,67C260.31,63.83,259.87,61,256.37,59.69ZM46.61,137.76l6.93,4.36C49.29,142.89,47.8,140.93,46.61,137.76ZM42,79.12c-4.84,1.77-9.74,3.4-14.64,5a10.34,10.34,0,0,1-4.43.76c-1-.15-2.59-1.4-2.65-2.26C20,78.07,20,73.5,20,68.93a4.61,4.61,0,0,1,.76-2.73c4-4.86,4.09-10.46,3-16.68l4.06.33,1.74-5.74,8,6.14c1.8-2.88,3.51-5.64,5.66-9.09,2.42,4.51.39,8.38,1.23,12,4.43,1.78,6.79,4.61,6.1,9.82-.51,3.89-.94,8.2,5.49,10.61C50.34,75.84,46.22,77.59,42,79.12Zm17.34-24.7,1,0c0,2.76,0,5.53,0,8.3l-1.18,0C59.24,59.91,59.3,57.17,59.36,54.42Zm.93,90.92-2.31-3,1.11-.78,2,3.19ZM82.39,57.1c1.27,3.44,1.27,3.44-.42,6.27C80.32,61.35,81.24,59.56,82.39,57.1Zm-4.64-3,.77,1-.82.79a4.69,4.69,0,0,1-.64-1.18C77,54.6,77.51,54.33,77.75,54.12Zm-7.38,101c.47.59.93,1.18,1.39,1.78l-1,.66-1.11-2C69.91,155.41,70.14,155.25,70.37,155.09Zm35.87,43c-3.81-3.37-9.36-1.29-13.35-4.72-3.13-2.68-7.27-4.2-11-6.13a3.82,3.82,0,0,0-2.72-.53c-3.55,1.49-5.21-.78-7.1-3.08-1.65-2-3.57-3.82-5.38-5.71l.57-1c2.09,1.21,4.2,2.39,6.27,3.64,3.91,2.34,7.64,5,11.74,7,3.2,1.52,6.92,1.92,10.26,3.2,4.52,1.74,8.9,3.85,14.15,6.15C107.89,197.57,106.57,198.41,106.24,198.12Zm7.78,3.06c-.08-.56-.27-1.83-.46-3.1.43-.26.87-.51,1.31-.76,1.79,2.3,6-.2,7.22,3.9Zm18.28,4-5-1.2.66-1.38,4.54,1.78Zm63-127c-2.41-3.81-5.4-6.61-3.74-10.86,1.42-3.65,3.24-7.26,8.65-8.27C200.72,66.42,198.49,72,195.27,78.24Z"/><path d="M91.89,202.3l9.76,3.73.4-1.05-9.79-3.68C92.14,201.64,92,202,91.89,202.3Z"/><path d="M264.24,101.63c-.07,1.27,0,2.54,0,3.82l1.15,0c.06-1.71.11-3.41.17-5.12C264.66,100.74,264.27,101.17,264.24,101.63Z"/></svg>