<svg xmlns="http://www.w3.org/2000/svg" viewBox="0 0 270.29 379.36"><path d="M263.86,38l2.79-4.62a12.3,12.3,0,0,1-.61-3.25c.76-6.64,1.22-13.16-4.31-18.34a3.39,3.39,0,0,1-1-2c-.22-2.77-2.18-3.94-4.32-4.89-3.68-1.62-7.35-3.3-11.15-4.58a9.83,9.83,0,0,0-5,.17c-3.33.77-6.53,2.23-9.89,2.71A70,70,0,0,0,192.3,20.76c-9.91,9-19.16,18.79-28.52,28.4-4.6,4.72-8.78,9.85-13.56,15.25Q148.5,46.47,147,31c-2.13-1.28-4.43-1.95-5.6-3.48-5.77-7.55-14.83-10.58-21.86-16.39-2.6-2.15-18.1-2.46-22-1.22-.09,1-.1,2.14-.28,3.24-1,5.84-2.19,11.66-2.84,17.54a101.22,101.22,0,0,0-.82,17.21c.35,5.64-1,11.6,2.2,16.91.09.17-.32.64-.79,1.54a36.84,36.84,0,0,1-4.1-2.57c-2.94-2.45-5.72-5.09-8.66-7.55A37.09,37.09,0,0,1,71.8,42a33.26,33.26,0,0,0-4.57-7.21,5.64,5.64,0,0,0-3.65-2.11c-3-.09-4.35-1.82-5.8-4-2.1-3.18-4.57-6.12-6.75-9.26-2-2.85-4.48-3.29-6.23-2.38-3.1-1.69-5.27-3-7.57-4.1-4.32-2-8.7-3.9-13.07-5.83A11.06,11.06,0,0,0,21,5.94C12.33,5.27,2.6,13.26,1.46,21.84,1.08,24.67.72,27.52.13,30.32c-.48,2.26.41,3.4,2.24,4.66A32.78,32.78,0,0,1,14.53,50.36c3,7.63,5.38,15.47,7.82,22.6,2.38.74,4.12,1,5.56,1.79,2.73,1.51,5.15,4.36,8,4.77,5.44.8,9.42,4,13.88,6.48,7.07,3.85,12.8,8.51,15.6,17,3.68,11.12,7.19,22.66,16,31.28,2.67,2.59,4.34,6.63,9.17,5.94a1.89,1.89,0,0,1,1.49.75c1.5,2.42,4.1,2.58,6.44,3.32,4,1.26,8,2.58,12.65,4.11-.2,2.51-.35,5-.61,7.38a541.74,541.74,0,0,1-16.31,87c-4.42,16.07-8.21,32.31-12.16,48.51-3.36,13.78-6.32,27.64-7.64,41.79-.39,4.16,0,8.48-1,12.46-2.4,9.37-2.23,19-3.28,28.46-.17,1.44.34,3,.66,5.38,2.14-6.62,3.94-12,5.62-17.48.56-1.82,1.57-4,1-5.57-1.46-4,.48-7.45.79-11.13.85-10.35,7.48-18.75,9.75-28.64.07-.32.56-.52.76-.84,3.67-5.82,7.35-11.56,6.52-19-.22-2,.67-4.19,1.52-6.09a114.52,114.52,0,0,1,6.43-12.82c3.7-6,7.42-11.9,7.72-19.23a2.4,2.4,0,0,1,.55-1.61c3.52-3,3.37-7.52,4.78-11.37,2.44-6.66,4.86-13.34,6.89-20.13,1.85-6.18,3.38-12.48,4.66-18.8a204.44,204.44,0,0,0,3.68-22c.94-10.28,1.1-20.63,1.65-31a32.29,32.29,0,0,1,.65-3.81,9,9,0,0,1,2.54-.49c6.06.9,12.09,1.46,18.19.17,1.43-.3,3,.42,4.56.35,4.22-.19,8.94,1.46,12.09-3.11.35-.51,1.33-.64,2-.84,3.62-1,7.31-1.86,10.87-3.08s7.76-1.66,9.66-5.52c1.43-2.91,3.83-4.07,6.58-5.07,3.76-1.36,8.07-2.09,11.09-4.44,4.26-3.33,9.07-5.57,13.49-8.51,3.07-2,6-4,9.9-4a4.2,4.2,0,0,0,2.63-.91c4.3-4,8.51-8.16,12.75-12.26,2.14-2.07,3.48-5,6.95-5.63a4.41,4.41,0,0,0,2.65-2.82c1.28-4.93,3.31-10-.1-14.89-1.58-2.27-2.49-4.45-1-7.32,1-1.94.18-3.5-2.36-4.14-2.25-.56-4.32-1.83-7-3,1.7-2.67,3-4.7,4.3-6.79,1.39-2.33,2.69-4.72,4-7.08-3.13-4.29,1.29-4.41,3.21-5.91,0,.75,0,1.55,0,3.18,2-2.65,3.46-4.41,4.74-6.3.76-1.12.61-2.19-1-2.53l-3.74,5.44a16.17,16.17,0,0,1-.9-3.61C260,38.1,261.15,36.88,263.86,38ZM162.77,97.37c1.89-2.89,3.84-2.92,6.79-2.1C167.51,98.42,165.45,97.63,162.77,97.37Zm6-4.55c-.57-3.2-.61-5.57,2.51-6.79C173.49,90.14,173.39,90.45,168.81,92.82Zm24-42,1.14,1.1-2.75,2.39-.79-.78Zm-16.9,52.73a4.56,4.56,0,0,1,.52-1.21c.16-.18.62-.09,2-.23Zm3.55-21.34a10.26,10.26,0,0,1,7.15-5.63c.27,1.37.54,2.75.9,4.6Zm12-2.67a5.32,5.32,0,0,1-1.8.67c-.06,0-.33-.37-.3-.41a5.67,5.67,0,0,1,1.32-1.43,3.84,3.84,0,0,1,1.55-.2A3.86,3.86,0,0,1,191.46,79.51Zm.87-1.53c0-1.2,0-2.4.07-3.61l-5.69,2,1.44-4,12.48-5.17ZM197,47.93c6.28-7.83,12.28-15.94,21.22-21A89.61,89.61,0,0,1,197,47.93Z"/><path d="M269.14,83.05c-3.22,3.45.09,7.31-1.26,10.61C270.74,89.16,270.91,87.76,269.14,83.05Z"/></svg>