<svg xmlns="http://www.w3.org/2000/svg" viewBox="0 0 228.44 426.47"><path d="M228.42,52.19c-.2-3.93-1.26-6.55-4.36-8.64-1.35-.91-2.54-2-3.83-3.06-.83-.65-1.67-1.72-2.55-1.77-1.68-.11-2.26-.86-2.81-2.28-.43-1.14-1.45-2.06-2.56-3.54-3.18,2.54-6,4.82-9.21,7.39-.93-2-1.62-3.46-2.37-5.07-.78.49-1.46.66-1.67,1.07a114.89,114.89,0,0,1-14.87,21.63,3.6,3.6,0,0,0-1,2c-.06,4.46-2.59,7.3-6.3,9.31,2.19,2.32,1.3,4-.28,5.7-1.93,2-3.89,4.09-5.64,6.29-1.6,2-2.93,4.2-4.52,6.51-3.82-3.13-5.54-6.28-4.91-10.49,1.45-9.67,2.6-19.39,4.43-29,1.78-9.38,2.84-18.92,6.73-27.89,1.44-3.31.82-7.54,1-11.35a3.24,3.24,0,0,0-.88-2C167.2.6,160.51-1.1,151.25,1.22c-.79.2-1.89-.8-2.78-1.22-1.55,1.18-.83,4.57-4.23,3.92-.34-.07-.82,2.83-2.63,3.39s-3.53,1.24-5,1.77c-2.15,7.92-4.2,15.87-6.5,23.74a12.43,12.43,0,0,1-3,5.33A9.13,9.13,0,0,0,124,46.32c.25,2.06.49,4.2-1.85,5.6a23.73,23.73,0,0,1-2-1.25c-7.59-5.84-15.22-11.6-23.79-16-1.81-.93-3-3.2-4.23-5-2.69-4.22-5-8.56-10.88-9.26-2-.24-3.81-1.68-5.71-2.58-4.95-2.37-9.59-5.53-15.29-6,.28-3.14-1.93-3.61-4.14-4.12-2.38,3.4-2.33,3.29-5.25,2-3.66-1.69-7.27-3.5-11.63-2.24C36.84,8,34.3,7.8,32,8L29.92,4.62c-2.52,2.06-6.58,2-6.68,5.91-.15,6-4.14,7.93-8.87,9.54.75-2,1.46-3.95,2.19-5.94-2.07-.74-3.47-1.57-4.92-1.67-1.21-.09-3,.28-3.62,1.12C6.26,16,4.36,18.66,3.62,21.5c-2,7.69-.6,15.66,2.52,22.41,2.26,4.9,3.05,9.74,3.63,14.67.48,4.11,1.12,8.91-2.92,12.14L.66,68.42l2.21,4.69C-.71,76.5-.74,76.55,1.68,79h0C2.47,80.23,3,81.9,4.1,82.6c4.48,2.82,9.07,5.48,13.78,7.9a9.12,9.12,0,0,1,4.85,5.9,101.62,101.62,0,0,0,4.72,13.67c2,4.26,4.29,8.73,7.6,11.92,2.73,2.64,3.92,6.32,7,8.51a41.76,41.76,0,0,1,5.72,4.71,25.79,25.79,0,0,0,15.1,7.59c5.69.83,11.43,1.28,17.15,1.94,1.45.17,2.88.5,4.31.75.35,3.8.66,7.16,1,10.83,4.56-.2,7.13,2.15,7.92,5.77.94,4.28,1.11,8.74,1.65,13.4,4.89-.73,8.6,1.55,10.76,6.38,5.23,11.67,13.2,22.07,16,34.87a9.27,9.27,0,0,0,.82,2.14c4.11,8.44,5,17.52,5.45,26.72.16,3.23.52,6.47,1,9.68.77,5.63,1.79,11.22,2.49,16.86s.28,11.67,2,17a47,47,0,0,1,2.12,15.21c-.15,10.47-1.11,20.94-1.93,31.39-.92,11.8-2,23.58-3.08,35.37-.39,4.5-.74,9-1.11,13.5l1.1.16q.87-5.92,1.75-11.85c1.74,6.48.15,12.09-3.82,16.95.46.85,1.33,1.72,1.27,2.53a45.79,45.79,0,0,1-1.1,6.22c-1.66,8.07-3.37,16.13-5,24.22a17.62,17.62,0,0,0,0,3.63,9,9,0,0,0,3.63-3.85,194.77,194.77,0,0,0,15-42.08,336.07,336.07,0,0,0,7.95-67.92c.58-27.41.27-54.84.23-82.26a182.6,182.6,0,0,0-6.39-46A172.37,172.37,0,0,0,137.93,167c-.86-2.27-.77-4,1.12-5.65,1.17-1,2.27-2.05,3.41-3.07,9.27-8.32,18.62-16.54,27.78-25,6.89-6.36,14.08-12.52,20.16-19.6,10.33-12,22-23.15,28.59-37.95C222.43,68,228.9,61.68,228.42,52.19ZM1.76,79c.05-3.29,1.85-1.63,3.36-.55ZM135.63,357.14l-.75-.1c.19-1.2.38-2.4.58-3.61l.47.07ZM212.86,40.28l-1-2.17,1.51-.58.63,2.24Z"/><path d="M16.33,3.23C15.52,5.66,15,7.35,14,10.1l8.54-1.58C22.41,3.11,17.87,6.09,16.33,3.23Z"/></svg>