<svg xmlns="http://www.w3.org/2000/svg" viewBox="0 0 278.94 480.4"><path d="M277.21,59.3c-1.53-3.36-1.84-7.32-2.38-11-.46-3.2-.14-6.52-.75-9.68-.52-2.71-1.87-5.27-2.88-7.95a12.82,12.82,0,0,1-10.74-1.91,4,4,0,0,0-5.25,0,41.53,41.53,0,0,0-4.69,4.12c-7.94,7.72-13,17.49-19,26.62s-12.3,18.06-18.53,27c-1,1.51-2.41,2.82-4.34,5.05-2.77-7.51-5.53-14-7.47-20.69a10.49,10.49,0,0,1,2-9.71c1.65-2.08,1.93-5.29,2.68-8,.45-1.63.58-3.35.92-5,1.7-8.34.41-16.64-.41-24.94-.11-1-1.17-2-1.51-3a19.88,19.88,0,0,1-1.27-5.45c-.1-3.94-3.87-6.27-4.08-10.08-2.24,0-3.16-2.68-4.5-2.91C189.5.71,183.81.53,177.3,0c-12.12,30-19.48,61.71-30.92,93-1.13-2-2.16-3-2.33-4.21a96.57,96.57,0,0,1-1.39-13.64c0-7.62-.7-9.09-8-9.43-4.92-.22-7.22-2.68-8.46-7-1.8-6.25-3.58-12.51-5.53-18.72-1.09-3.45-3.15-6.71-3.6-10.21-.62-4.78-3.34-7-7.29-8.62-6.41-2.69-13.09-4-19.1,0A28.37,28.37,0,0,1,80.26,25.3c-8.3,1.7-14.75,6.43-20,12.64a27.06,27.06,0,0,0-5,10.14c-1.17,4.19-1.4,8.66-1.83,13-.78,7.93,2.45,15,5.09,22.16.92,2.49,1.75,5,2.51,7.56s1.05,5.2,2.12,7.55c2.76,6.07,5.61,12.12,8.85,17.94,3,5.32,6.39,10.36,9.72,15.46,1.5,2.31,3.26,4.45,4.9,6.66a292.52,292.52,0,0,1-32.47-13.86c-3.5-1.74-6.56-4.62-9.4-7.4-7.27-7.09-14.15-14.63-23-19.83a19.31,19.31,0,0,0-18.68-.8c-2.06.94-3.77,2.66-2.79,5a24.67,24.67,0,0,0,4.5,7.06c3.9,4.19,8.55,7.73,12.21,12.11a96.65,96.65,0,0,0,31.28,24.93c6.52,3.24,13.34,5.91,19.77,9.31a227.69,227.69,0,0,0,47.64,18.44c12.13,3.27,24.44,6.34,35.43,13.06,6.93,4.23,14.5,7,22.9,6.61.65,0,1.33.5,2.25.88-1.95,13.45-3.8,26.73-5.84,40-2.68,17.43-1.89,34.82.42,52.18a230.31,230.31,0,0,0,14,53.87c6.51,16.59,12.21,33.55,19.59,49.74,8.91,19.52,18.94,38.54,29,57.49,6,11.31,13.08,22.06,19.76,33.21l4-2.51c-1.37-2.56-2.74-5.05-4.07-7.57-5.56-10.49-11.49-20.8-16.54-31.53-5.86-12.45-11.16-25.18-16.3-38-3.5-8.68-6.42-17.58-9.37-26.46q-4.69-14.13-8.91-28.42c-3.5-11.93-7.42-23.8-9.91-36-2.3-11.22-3.15-22.76-4.25-34.2a159.69,159.69,0,0,1-.75-20.63c.43-13.2,1.3-26.39,2.14-39.57.16-2.45.47-5.17,1.66-7.23,3.27-5.66,3.39-11.66,2.75-17.79-.36-3.5.58-5.9,4-7.34,2.46-1,4.62-2.79,7.09-3.77,5-2,9.95-4.48,15.13-5.15,4.55-.59,9.42.91,14.1,1.73,3.2.56,6.3,1.72,9.5,2.26,4,.68,8.61-2.32,10.49-6.47,1.5-3.29.2-10.52-2.25-12.61-6.17-5.27-13.61-7.7-21.31-9.57-1.54-.37-3-.91-5.08-1.54,3.7-4.71,6.46-9.1,10.08-12.61,4.08-4,6.12-10,12-12.08.15-.05.22-.3.33-.46,2.23-3.54,4.31-7.18,6.73-10.58,1.81-2.54,3.67-5.37,6.19-7,5.76-3.75,7.52-10.12,11.06-15.3a4.17,4.17,0,0,0,.31-2.23c-.09-3.42,1.5-6.14,3.15-9C278.77,72.69,280.43,66.36,277.21,59.3Zm-191.8,1C83.8,64.37,89,68.06,85.1,71.77c-.83-4.3-1.51-8.23-2.38-12.13A10.13,10.13,0,0,0,81.11,56a14.47,14.47,0,0,1,.53-18.09c1-1.16,1.9-2.35,2.92-3.46.19-.22.71-.14,1.21-.21C86.54,45,87.29,55.38,88,65.09,87.45,64.07,86.52,62.36,85.41,60.29ZM89,86.59a11.06,11.06,0,0,1-.26-2.31l2.05,3.81C89.48,87,89.12,86.87,89,86.59Zm91.29,10.32.67.14c-.12.77-.25,1.53-.38,2.3l-.81-.16C179.91,98.43,180.08,97.67,180.26,96.91Zm10.86,10.72c-.33,4.06-3.13,5.92-9.62,7.43-2.6-4.85-.92-15.22,4.65-27.65C191,93.9,191.69,100.68,191.12,107.63Z"/></svg>