<svg xmlns="http://www.w3.org/2000/svg" viewBox="0 0 235.52 463.18"><path d="M235.26,68.59c-1-6.8-3.09-13.43-4.59-20.17A6.59,6.59,0,0,0,225.34,43c-3.52-.66-7-.9-9.79-3.61a2.27,2.27,0,0,0-2.17-.28c-3,2.52-5.83.08-9-.43-1.69,5-5,2.62-8.4,1.14-.17,2.07-.28,3.51-.41,5-3.82.26-5.06-2.54-6.7-4.63.2-2.52.77-5,.54-7.41-.95-9.92-5.13-18.84-9.47-27.6-2.39-4.81-7-6.26-12.15-4.44-1.86.65-3.16-.12-4.79-.42-2.76-.5-5.75,0-8.61.38-.69.09-1.19,1.29-1.9,1.8-2.39,1.72-5.11,5-7.22,4.65-3.6-.58-5.15,1.49-7.28,3.15L134.9,7.63c-.68.92-1.37,1.47-1.53,2.15-1.19,4.78-2.3,9.59-3.34,14.4a13.4,13.4,0,0,0-.17,3.41c.35,8.42.69,16.83,1.15,25.24.15,2.82.86,5.62.92,8.44.08,4-.14,8-.36,11.93-.2,3.6,0,7.37-1,10.74-.91,2.94-3.27,5.44-5.44,8.82-.66-12.14-1.36-23.58-1.87-35a38.33,38.33,0,0,1,.57-9.15,13.28,13.28,0,0,0-1.55-9.18L111,39.25c-2.19-3.36-6.92-6-11.41-6.23,0,1.33.05,2.66.07,4.08C96,36.58,97.32,33.91,97,32.56l-8.19-2.7-3.19,7c-.58-1.38-.94-2.21-1.35-3.18L77.64,44.2c-1.38-3.61-2.76-7.18-4.25-11.06l-4.75,1c.07,3.64-2.76,4.55-5.28,5.75l-8,6.3-.88.41c-1.38-2-2.2-4.78-3.86-5.45-4.18-1.68-8-5.64-13.28-3-.54.27-1.44-.15-2.16-.31-4.56-1.05-5.1-1-7.28,2.93-1.77,3.15-4,4.84-7.69,4-1.19-4.41-2.43-5.06-5.39-2.28a36.53,36.53,0,0,0-5.43,7.12c-2.71,4.24-5.68,8.42-7.6,13A22.52,22.52,0,0,0,.15,73.7c.33,2.58,2.74,6.26,4.9,6.81,1.92.5,2.5,1.92,3.58,2.82l1.84-2.72,3.7,2.48,2.56-1.7c.5,2.8,1.69,5.51,1.27,7.93-1,5.64,2.78,9.05,6.09,11.53,2.61,2,3.48,4.18,4.64,6.63.53,1.11.85,2.31,1.55,4.27,1.4-2.17,2.32-3.61,3.25-5,.27,4.6,1.24,8.49,4,11.91.62.77.42,2.19.65,3.3.57,2.79,1.09,5.59,1.79,8.35.93,3.7,1.66,7.34-.72,10.76,4.54,6.08,4.63,8.5.26,11.45a8.55,8.55,0,0,1-.55,9c-2,3.05,1.31,9,4.82,9.46a29.12,29.12,0,0,1,14.8,6.3c.88.7,2.62.3,2.87.33,4.75,4.13,8.66,8,13.1,11.2a10.55,10.55,0,0,1,4,5c.87,2.2.85,4.86,4,5.7.66.18,1.21,2.35,1.1,3.53-.34,3.42-1,6.82-1.62,10.19-1.18,6,1.19,11.53,6.47,12.14,3.63.43,4.54,2.36,5.3,4.8,1.47,4.73,2.47,9.61,3.87,14.37,6.26,21.29,14,42.21,15.67,64.61a5.69,5.69,0,0,0,.51,2.23c3,5.3,4,11,3.92,17.21l2.68-1.13c1.37,5.82-.33,12.09,3.33,17.31.29.4,0,1.14.16,1.69,1.29,6.18-2.15,13,2.59,18.71.1.13,0,.38.07.57q.73,7.9,1.46,15.81l-1.68,1.85c-.5-1.61-.85-2.72-1.19-3.83-.54,2.81.69,6.68-.58,7.87-3.39,3.17-.31,5.05.25,7.07-.8,1.58-1.86,2.85-2,4.23-.39,3-1.53,5.72-1.18,9s-1.58,6.59-2,10c-1.06,9.52-2.16,19.06-2.61,28.62-.26,5.56.71,11.18,1.13,16.93,3.85-.58,4.81-3.09,5.47-5.38,2.22-7.72,4.77-15.42,6.09-23.31,2.89-17.19,5.3-34.47,7.5-51.77.89-7,.74-14.13,1-21.2.5-13,1.42-26,1.33-39-.09-13.77-1.18-27.54-1.79-41.31-1.2-26.88-6.81-52.43-22.28-75.07a39.57,39.57,0,0,1-2.47-4.91c5-3.55,7.58,1.14,11.2,2.57a19.51,19.51,0,0,1,11.88-6.21c2.3-.34,3.68-1.62,5.06-3.36,2.86-3.57,5.52-7.53,9.09-10.23a42.3,42.3,0,0,1,14.61-7.32c10-2.63,17.9-8.75,24.56-16.19,9.07-10.12,17.73-20.65,26.07-31.39A93.46,93.46,0,0,0,234.8,81.16C235.25,77,235.88,72.67,235.26,68.59ZM10.2,74.94c.08,1.84.16,3.69.23,5.53C8.15,79.05,8.16,77.17,10.2,74.94Zm7,1.83-.24,0c.11-.84.23-1.68.34-2.52h.11ZM88.57,40.64a4.16,4.16,0,0,1-.52-1.49c0-.39.54-.75,1.24-1.66A9.49,9.49,0,0,1,89.75,40C89.71,40.23,89,40.41,88.57,40.64ZM130,380.8c-.34,4.11-.65,8-1,11.86l-.35,0-.51-11.23Zm-2.78-279.4-1.31-.38c.41-1.39.83-2.77,1.25-4.16l1.2.35ZM134,76.25c-.65-5.88-3.17-12,1.87-18.84C133.66,64.44,138,70.73,134,76.25Zm58-2.61c-.66,3.72-2.84,7.43-2.58,11,.43,6.14-2.68,11-4.09,16.5-.29,1.15-1.24,2.13-2,3.38-5.3-2.87-5.3-6.23-3.66-10.55,4.18-10.94,7.37-22.17,8.53-33.9.29-3,.51-3,3.64-5.69C194,60.94,193.06,67.32,191.93,73.64Z"/></svg>