<svg xmlns="http://www.w3.org/2000/svg" viewBox="0 0 3730.67 817.12"><path d="M2610.83,68.59c-1-6.8-3.09-13.43-4.58-20.17a6.6,6.6,0,0,0-5.34-5.42c-3.52-.66-7-.9-9.79-3.61a2.27,2.27,0,0,0-2.17-.28c-3,2.52-5.83.08-9-.43-1.69,5-5.05,2.62-8.4,1.14-.16,2.07-.28,3.51-.41,5-3.82.26-5.06-2.54-6.7-4.63.21-2.52.77-5,.54-7.41-.95-9.92-5.13-18.84-9.47-27.6-2.39-4.81-7-6.26-12.15-4.44-1.86.65-3.15-.12-4.79-.42-2.76-.5-5.75,0-8.61.38-.69.09-1.18,1.29-1.9,1.8-2.39,1.72-5.11,5-7.22,4.65-3.6-.58-5.15,1.49-7.28,3.15l-3.06-2.69c-.67.92-1.37,1.47-1.53,2.15-1.19,4.78-2.3,9.59-3.34,14.4a13.4,13.4,0,0,0-.17,3.41c.36,8.42.69,16.83,1.15,25.24.16,2.82.86,5.62.92,8.44.08,4-.14,8-.36,11.93-.2,3.6,0,7.37-1,10.74-.91,2.94-3.27,5.44-5.44,8.82-.66-12.14-1.36-23.58-1.87-35a38.33,38.33,0,0,1,.57-9.15,13.33,13.33,0,0,0-1.54-9.18l-11.23-.16c-2.18-3.36-6.92-6-11.41-6.23,0,1.33,0,2.66.07,4.08-3.68-.52-2.35-3.19-2.66-4.54l-8.19-2.7-3.19,7c-.58-1.38-.94-2.21-1.35-3.18l-6.64,10.47c-1.38-3.61-2.76-7.18-4.25-11.06l-4.74,1c.06,3.64-2.77,4.55-5.29,5.75l-8,6.3-.88.41c-1.37-2-2.2-4.78-3.86-5.45-4.18-1.68-8-5.64-13.28-3-.54.27-1.44-.15-2.16-.31-4.56-1.05-5.1-1-7.28,2.93-1.76,3.15-4,4.84-7.69,4-1.19-4.41-2.42-5.06-5.39-2.28a36.53,36.53,0,0,0-5.43,7.12c-2.71,4.24-5.68,8.42-7.6,13a22.52,22.52,0,0,0-1.62,11.1c.33,2.58,2.74,6.26,4.9,6.81,1.92.5,2.5,1.92,3.58,2.82l1.84-2.72,3.7,2.48,2.56-1.7c.5,2.8,1.69,5.51,1.27,7.93-1,5.64,2.78,9.05,6.09,11.53,2.62,2,3.48,4.18,4.64,6.63.53,1.11.85,2.31,1.55,4.27,1.4-2.17,2.32-3.61,3.25-5,.28,4.6,1.24,8.49,4,11.91.62.77.42,2.19.65,3.3.58,2.79,1.1,5.59,1.79,8.35.93,3.7,1.67,7.34-.72,10.76,4.54,6.08,4.63,8.5.26,11.45a8.55,8.55,0,0,1-.55,9c-2,3.05,1.31,9,4.82,9.46a29.12,29.12,0,0,1,14.8,6.3c.88.7,2.62.3,2.88.33,4.74,4.13,8.65,8,13.09,11.2a10.55,10.55,0,0,1,4,5c.87,2.2.85,4.86,4,5.7.66.18,1.21,2.35,1.1,3.53-.34,3.42-1,6.82-1.62,10.19-1.17,6,1.2,11.53,6.47,12.14,3.63.43,4.54,2.36,5.3,4.8,1.47,4.73,2.47,9.61,3.87,14.37,6.26,21.29,14,42.21,15.68,64.61a5.36,5.36,0,0,0,.51,2.23c2.94,5.3,3.94,11,3.91,17.21l2.69-1.13c1.36,5.82-.34,12.09,3.33,17.31.28.4,0,1.14.15,1.69,1.29,6.18-2.15,13,2.59,18.71.1.13.06.38.07.57q.74,7.9,1.46,15.81l-1.68,1.85c-.5-1.61-.84-2.72-1.19-3.83-.54,2.81.69,6.68-.58,7.87-3.39,3.17-.31,5.05.25,7.07-.79,1.58-1.86,2.85-2,4.23-.39,3-1.53,5.72-1.18,9s-1.58,6.59-2,10c-1.06,9.52-2.16,19.06-2.61,28.62-.26,5.56.71,11.18,1.13,16.93,3.85-.58,4.81-3.09,5.47-5.38,2.22-7.72,4.77-15.42,6.09-23.31,2.89-17.19,5.3-34.47,7.5-51.77.89-7,.74-14.13,1-21.2.5-13,1.42-26,1.33-39-.09-13.77-1.18-27.54-1.79-41.31-1.2-26.88-6.8-52.43-22.28-75.07a41,41,0,0,1-2.47-4.91c5-3.55,7.58,1.14,11.21,2.57a19.46,19.46,0,0,1,11.87-6.21c2.3-.34,3.68-1.62,5.07-3.36,2.85-3.57,5.51-7.53,9.08-10.23a42.3,42.3,0,0,1,14.61-7.32c10-2.63,17.9-8.75,24.56-16.19,9.07-10.12,17.73-20.65,26.07-31.39a93.46,93.46,0,0,0,19.25-47.92C2610.83,77,2611.46,72.67,2610.83,68.59Zm-225.06,6.35c.08,1.84.16,3.69.23,5.53C2383.72,79.05,2383.73,77.17,2385.77,74.94Zm7,1.83-.24,0c.12-.84.23-1.68.34-2.52h.11Zm71.4-36.13a3.81,3.81,0,0,1-.52-1.49c0-.39.53-.75,1.23-1.66a9.49,9.49,0,0,1,.46,2.46C2465.28,40.23,2464.56,40.41,2464.15,40.64Zm41.39,340.16c-.34,4.11-.65,8-1,11.86l-.35,0-.51-11.23Zm-2.78-279.4-1.31-.38c.41-1.39.83-2.77,1.25-4.16l1.2.35Zm6.78-25.15c-.65-5.88-3.17-12,1.87-18.84C2509.23,64.44,2513.54,70.73,2509.54,76.25Zm58-2.61c-.66,3.72-2.84,7.43-2.58,11,.43,6.14-2.68,11-4.09,16.5-.29,1.15-1.24,2.13-2,3.38-5.3-2.87-5.3-6.23-3.66-10.55,4.18-10.94,7.37-22.17,8.53-33.9.3-3,.51-3,3.64-5.69C2569.54,60.94,2568.63,67.32,2567.5,73.64Z"/><path d="M2145.76,181.33c-1.53-3.35-1.84-7.31-2.38-11.05-.46-3.19-.13-6.51-.74-9.67-.53-2.72-1.88-5.28-2.88-8a12.84,12.84,0,0,1-10.75-1.91,4,4,0,0,0-5.24,0,41.75,41.75,0,0,0-4.7,4.12c-7.94,7.73-13,17.5-19,26.62s-12.3,18.06-18.53,27c-1,1.51-2.4,2.81-4.34,5.05-2.77-7.51-5.52-14-7.47-20.7a10.47,10.47,0,0,1,2-9.7c1.65-2.08,1.93-5.3,2.68-8,.45-1.63.59-3.35.92-5,1.71-8.34.41-16.64-.41-24.94-.1-1-1.17-2-1.51-3a20,20,0,0,1-1.27-5.46c-.09-3.93-3.87-6.26-4.07-10.07-2.25,0-3.16-2.69-4.51-2.91-5.56-.94-11.25-1.12-17.76-1.65-12.12,30-19.47,61.7-30.92,93-1.13-2-2.16-3-2.32-4.2a95.13,95.13,0,0,1-1.4-13.64c0-7.63-.7-9.1-8-9.43-4.92-.23-7.22-2.68-8.45-7-1.8-6.25-3.59-12.51-5.54-18.72-1.08-3.45-3.15-6.72-3.6-10.21-.62-4.78-3.33-7-7.28-8.63-6.41-2.68-13.1-4-19.11,0a28.31,28.31,0,0,1-10.43,4.14c-8.29,1.7-14.75,6.43-20,12.64a26.93,26.93,0,0,0-5,10.14c-1.16,4.19-1.39,8.66-1.82,13-.78,7.94,2.44,15,5.08,22.16.92,2.5,1.75,5,2.51,7.57s1.05,5.2,2.12,7.55c2.76,6.07,5.62,12.11,8.85,17.94,3,5.31,6.39,10.36,9.72,15.46,1.5,2.3,3.26,4.44,4.91,6.66a291.71,291.71,0,0,1-32.47-13.86c-3.51-1.75-6.56-4.62-9.41-7.4-7.27-7.09-14.15-14.64-23-19.83a19.33,19.33,0,0,0-18.68-.81c-2,.94-3.76,2.67-2.78,5a24.42,24.42,0,0,0,4.49,7.06c3.91,4.19,8.55,7.73,12.21,12.11a96.59,96.59,0,0,0,31.28,24.92c6.52,3.25,13.34,5.91,19.77,9.32a228.24,228.24,0,0,0,47.64,18.44c12.13,3.27,24.45,6.33,35.44,13.05,6.92,4.24,14.49,7,22.89,6.62.65,0,1.33.5,2.25.87-2,13.45-3.79,26.74-5.83,40-2.69,17.42-1.9,34.82.41,52.18a230.09,230.09,0,0,0,14,53.87c6.5,16.59,12.2,33.55,19.58,49.74,8.91,19.52,18.95,38.54,29,57.49,6,11.31,13.07,22.06,19.75,33.21l4-2.51c-1.38-2.56-2.75-5.06-4.08-7.57-5.55-10.49-11.48-20.81-16.54-31.53-5.86-12.45-11.16-25.18-16.3-38-3.49-8.67-6.42-17.58-9.37-26.46q-4.68-14.13-8.91-28.41c-3.5-11.94-7.42-23.81-9.91-36-2.29-11.22-3.14-22.76-4.25-34.2a159.75,159.75,0,0,1-.75-20.63c.43-13.2,1.3-26.39,2.14-39.57.16-2.45.48-5.18,1.66-7.23,3.28-5.66,3.39-11.66,2.75-17.79-.36-3.51.58-5.9,4-7.34,2.45-1,4.61-2.79,7.08-3.77,5-2,10-4.48,15.13-5.15,4.56-.59,9.42.91,14.11,1.73,3.2.55,6.29,1.72,9.5,2.26,4,.68,8.6-2.33,10.49-6.47,1.49-3.29.19-10.52-2.26-12.61-6.17-5.27-13.61-7.7-21.31-9.57-1.53-.37-3-.91-5.08-1.54,3.7-4.72,6.47-9.1,10.08-12.61,4.08-4,6.12-10,12-12.08.15-.05.23-.3.33-.46,2.23-3.54,4.31-7.19,6.73-10.59,1.81-2.54,3.67-5.37,6.2-7,5.75-3.75,7.51-10.12,11-15.3a4.07,4.07,0,0,0,.31-2.23c-.09-3.43,1.51-6.15,3.16-9C2147.32,194.73,2149,188.4,2145.76,181.33Zm-191.8,1c-1.6,4.08,3.61,7.77-.31,11.48-.82-4.3-1.51-8.23-2.38-12.13a10.18,10.18,0,0,0-1.61-3.64,14.46,14.46,0,0,1,.53-18.08c1-1.16,1.9-2.35,2.92-3.47.19-.21.71-.13,1.21-.21.78,10.72,1.53,21.14,2.22,30.85C1956,186.11,1955.08,184.4,1954,182.33Zm3.56,26.3a11.1,11.1,0,0,1-.26-2.32c.88,1.62,1.18,2.18,2,3.81C1958,209.08,1957.67,208.91,1957.52,208.63ZM2048.81,219l.67.14c-.12.76-.25,1.53-.38,2.29l-.81-.16C2048.46,220.47,2048.64,219.71,2048.81,219Zm10.86,10.71c-.33,4.07-3.13,5.93-9.62,7.44-2.6-4.85-.92-15.22,4.65-27.65C2059.51,215.94,2060.24,222.72,2059.67,229.66Z"/><path d="M3300.47,94.55c-.2-3.93-1.26-6.55-4.36-8.64-1.35-.91-2.54-2-3.83-3.06-.83-.65-1.66-1.72-2.55-1.78-1.68-.1-2.26-.85-2.8-2.27-.44-1.14-1.46-2.06-2.57-3.55l-9.21,7.39c-.93-2-1.61-3.45-2.37-5.06-.78.48-1.45.66-1.67,1.07a115.21,115.21,0,0,1-14.87,21.63,3.6,3.6,0,0,0-1,2c-.06,4.46-2.59,7.3-6.3,9.31,2.19,2.32,1.3,4-.28,5.7-1.93,2-3.89,4.09-5.64,6.28-1.6,2-2.93,4.2-4.52,6.52-3.82-3.13-5.54-6.29-4.91-10.5,1.45-9.66,2.6-19.38,4.43-29,1.79-9.38,2.84-18.92,6.74-27.89,1.43-3.31.82-7.54,1-11.35a3.19,3.19,0,0,0-.88-2c-5.64-6.41-12.33-8.12-21.59-5.79-.79.2-1.89-.81-2.78-1.22-1.55,1.18-.83,4.57-4.23,3.92-.34-.07-.82,2.83-2.63,3.39s-3.53,1.24-5,1.76c-2.15,7.93-4.2,15.88-6.5,23.75a12.32,12.32,0,0,1-3,5.32c-2.44,2.34-3.57,4.86-3.17,8.18.24,2,.48,4.2-1.86,5.6-.76-.47-1.45-.8-2-1.25-7.59-5.84-15.22-11.6-23.79-16-1.81-.93-3-3.2-4.23-5.06-2.69-4.22-5-8.55-10.88-9.25-2-.24-3.81-1.68-5.71-2.59-5-2.36-9.59-5.52-15.29-6,.29-3.15-1.93-3.62-4.14-4.12-2.38,3.4-2.33,3.29-5.25,2-3.66-1.69-7.26-3.5-11.63-2.25-2.31.67-4.85.49-7.17.69L3102,47c-2.51,2.06-6.58,2-6.68,5.91-.14,6-4.14,7.93-8.86,9.54l2.18-5.94c-2.07-.75-3.47-1.57-4.92-1.68-1.21-.09-3,.29-3.62,1.13-1.75,2.45-3.66,5.07-4.4,7.92-2,7.69-.6,15.65,2.52,22.41,2.26,4.9,3,9.74,3.63,14.66.48,4.12,1.12,8.91-2.92,12.15l-6.19-2.31,2.21,4.69c-3.58,3.4-3.61,3.44-1.19,5.9h0c.79,1.23,1.3,2.9,2.42,3.6,4.48,2.82,9.08,5.48,13.78,7.9a9.09,9.09,0,0,1,4.85,5.9,102.11,102.11,0,0,0,4.72,13.67c2,4.26,4.29,8.73,7.6,11.92,2.73,2.64,3.92,6.31,7,8.51a41.73,41.73,0,0,1,5.71,4.7,25.73,25.73,0,0,0,15.1,7.59c5.69.84,11.43,1.29,17.15,1.95,1.45.17,2.88.5,4.31.75.35,3.8.66,7.15,1,10.82,4.57-.19,7.13,2.16,7.92,5.77.94,4.29,1.12,8.74,1.65,13.4,4.89-.72,8.6,1.56,10.76,6.39,5.23,11.66,13.2,22.07,16,34.87a9.94,9.94,0,0,0,.82,2.14c4.11,8.44,5,17.52,5.46,26.72.15,3.23.51,6.46.95,9.67.77,5.63,1.79,11.23,2.5,16.87s.27,11.67,2,17a47.24,47.24,0,0,1,2.13,15.21c-.16,10.47-1.12,20.94-1.94,31.39-.92,11.8-2.05,23.58-3.08,35.37-.39,4.49-.74,9-1.1,13.5l1.09.16q.89-5.92,1.75-11.85c1.75,6.47.15,12.09-3.82,17,.46.85,1.33,1.72,1.28,2.53a47.72,47.72,0,0,1-1.11,6.22c-1.66,8.07-3.37,16.13-5,24.21a18.46,18.46,0,0,0,0,3.64,9,9,0,0,0,3.63-3.85,194.77,194.77,0,0,0,15-42.08,336.17,336.17,0,0,0,7.95-67.93c.58-27.4.27-54.83.24-82.25a182.61,182.61,0,0,0-6.4-46,172.3,172.3,0,0,0-6.07-17.35c-.87-2.27-.78-4.05,1.11-5.65,1.17-1,2.27-2.06,3.41-3.08,9.27-8.31,18.62-16.54,27.78-25,6.9-6.36,14.08-12.52,20.17-19.61,10.32-12,21.95-23.14,28.58-37.95C3294.48,110.39,3301,104,3300.47,94.55Zm-226.66,26.8c.05-3.29,1.85-1.63,3.37-.55ZM3207.68,399.5l-.75-.1c.19-1.2.39-2.41.58-3.61l.47.07Zm77.23-316.86-1-2.17,1.52-.58c.2.74.41,1.49.62,2.23Z"/><path d="M3088.38,45.58c-.81,2.44-1.38,4.13-2.3,6.87l8.54-1.58C3094.46,45.47,3089.93,48.44,3088.38,45.58Z"/><path d="M2933.29,414.83l2.79-4.62a12.82,12.82,0,0,1-.62-3.25c.77-6.64,1.23-13.16-4.3-18.34a3.46,3.46,0,0,1-1-2c-.21-2.77-2.18-3.94-4.32-4.89-3.67-1.62-7.34-3.3-11.15-4.58a9.79,9.79,0,0,0-5,.17c-3.33.77-6.54,2.23-9.89,2.71a70,70,0,0,0-38.09,17.62c-9.91,9-19.16,18.79-28.52,28.4-4.6,4.72-8.78,9.85-13.56,15.25q-1.72-17.94-3.22-33.43c-2.13-1.28-4.43-2-5.61-3.48-5.76-7.55-14.83-10.58-21.85-16.39-2.61-2.15-18.1-2.46-22-1.22-.08,1-.1,2.14-.27,3.24-.95,5.84-2.19,11.66-2.84,17.53a101.39,101.39,0,0,0-.82,17.22c.35,5.64-1,11.6,2.19,16.91.1.17-.31.64-.79,1.54a35.8,35.8,0,0,1-4.09-2.57c-2.95-2.45-5.73-5.09-8.67-7.55a37.17,37.17,0,0,1-10.45-14.17,32.93,32.93,0,0,0-4.58-7.21,5.62,5.62,0,0,0-3.65-2.11c-3-.09-4.34-1.82-5.79-4-2.11-3.18-4.58-6.12-6.75-9.26-2-2.85-4.48-3.29-6.23-2.38-3.1-1.69-5.28-3-7.57-4.1-4.32-2-8.71-3.9-13.07-5.83a11.18,11.18,0,0,0-3.18-1.21c-8.65-.67-18.38,7.32-19.53,15.9-.37,2.83-.73,5.68-1.32,8.47-.49,2.27.4,3.41,2.24,4.67A32.78,32.78,0,0,1,2684,427.23c3,7.63,5.38,15.47,7.82,22.6,2.38.74,4.11,1,5.56,1.79,2.73,1.51,5.14,4.36,8,4.77,5.44.8,9.41,4.05,13.87,6.48,7.08,3.85,12.81,8.5,15.61,17,3.67,11.12,7.19,22.66,16.05,31.28,2.67,2.59,4.34,6.63,9.16,5.94a1.86,1.86,0,0,1,1.49.75c1.51,2.42,4.1,2.58,6.45,3.32,4,1.26,8,2.58,12.65,4.11-.21,2.51-.36,5-.61,7.38a540.67,540.67,0,0,1-16.32,87c-4.42,16.07-8.2,32.31-12.15,48.51-3.36,13.78-6.32,27.64-7.64,41.79-.39,4.16,0,8.48-1,12.46-2.41,9.37-2.24,19-3.29,28.46-.16,1.44.35,3,.67,5.38,2.13-6.62,3.94-12,5.61-17.48.56-1.82,1.58-4,1-5.57-1.46-4,.48-7.45.78-11.13.86-10.35,7.49-18.76,9.76-28.64.07-.32.55-.53.75-.84,3.68-5.82,7.36-11.56,6.53-19-.22-2,.67-4.19,1.52-6.09a112.84,112.84,0,0,1,6.43-12.82c3.69-6,7.41-11.9,7.71-19.23a2.51,2.51,0,0,1,.55-1.61c3.53-3,3.38-7.52,4.79-11.38,2.44-6.65,4.85-13.33,6.88-20.12,1.85-6.18,3.39-12.48,4.67-18.8a206.91,206.91,0,0,0,3.67-22c.95-10.28,1.11-20.63,1.66-31a30.35,30.35,0,0,1,.65-3.81,9.05,9.05,0,0,1,2.53-.49c6.07.9,12.1,1.46,18.2.17,1.43-.3,3,.42,4.55.35,4.23-.19,8.94,1.46,12.1-3.11.35-.51,1.32-.64,2-.84,3.62-1,7.31-1.86,10.87-3.08s7.76-1.66,9.66-5.52c1.42-2.91,3.83-4.07,6.58-5.07,3.76-1.36,8.07-2.09,11.08-4.44,4.27-3.33,9.08-5.57,13.5-8.51,3.07-2,6-4,9.9-4a4.15,4.15,0,0,0,2.62-.91c4.31-4,8.51-8.16,12.76-12.26,2.14-2.07,3.48-5,7-5.63a4.4,4.4,0,0,0,2.64-2.82c1.29-4.93,3.32-10-.09-14.89-1.58-2.27-2.49-4.45-1-7.32,1-1.94.18-3.5-2.36-4.14-2.25-.56-4.32-1.83-7-3,1.69-2.67,3-4.7,4.29-6.79,1.4-2.33,2.7-4.72,4-7.08-3.13-4.29,1.28-4.41,3.21-5.91,0,.75,0,1.55,0,3.18,2-2.65,3.46-4.41,4.74-6.3.76-1.12.61-2.19-1-2.53l-3.74,5.44a15.27,15.27,0,0,1-.9-3.61C2929.37,415,2930.58,413.75,2933.29,414.83Zm-101.1,59.41c1.9-2.89,3.85-2.92,6.8-2.1C2836.93,475.29,2834.87,474.5,2832.19,474.24Zm6-4.55c-.56-3.2-.6-5.57,2.51-6.79C2842.92,467,2842.82,467.32,2838.23,469.69Zm24-42,1.13,1.1-2.74,2.39-.79-.78Zm-16.9,52.73a4.26,4.26,0,0,1,.52-1.21c.16-.18.62-.09,2-.23Zm3.55-21.34a10.26,10.26,0,0,1,7.15-5.63c.26,1.37.53,2.75.9,4.6Zm12-2.67a5.19,5.19,0,0,1-1.79.67c-.06,0-.33-.37-.3-.41a5.67,5.67,0,0,1,1.32-1.43,3.82,3.82,0,0,1,1.55-.2A3.73,3.73,0,0,1,2860.88,456.38Zm.88-1.53c0-1.2,0-2.4.07-3.61l-5.7,2c.62-1.7,1.22-3.38,1.45-4l12.47-5.17Zm4.62-30.05c6.28-7.83,12.28-15.94,21.22-21A89.61,89.61,0,0,1,2866.38,424.8Z"/><path d="M2938.57,459.92c-3.22,3.45.09,7.31-1.26,10.61C2940.17,466,2940.34,464.63,2938.57,459.92Z"/><path d="M754.41,410a4.64,4.64,0,0,1-2.54-2.19c-2.67-6.58-8-10.41-13.57-14.37-11.76-8.44-24.83-10.66-38.69-8.34-5.53.92-9.7,4.05-11.77,10.27-1.67,5-5.55,9.3-8.55,14.07a13,13,0,0,1-2.52-1.75c-3.92-4.89-7-10.42-12.11-14.39-1.43-1.11-2.17-3.11-3.19-4.71a15.06,15.06,0,0,0-1.78-2.87c-3.69-3.54-6.13-7.41-6.13-12.91,0-4.14-1.11-8.32-2.09-12.4-.45-1.88-1.74-3.56-2.69-5.39-3.52,1.6-3.49,6.31-7.57,6.51,1.17-4.86,1.07-4.85-3.24-4.75a14,14,0,0,1-5.42-1.09c-5.12-2.06-10.84-1.79-15.84-4.51-1.86-1-4.55-1-6.79-.72-3.39.38-6.68,1.63-8.31,4.95-2.14,4.37-4,8.89-5.88,13.39-2.34,5.67-.07,17.29,4.72,21.23,3.84,3.16,4.68,7.25,5.46,11.59.2,1.12-.11,2.39.31,3.39,4.63,11,4.1,23.17,8.44,34.36,4.05,10.43,5.31,21.87,10.73,31.92a12.48,12.48,0,0,1,1.48,4.31c.09.69-.92,1.51-2.23,3.46l-1.81-8.23c-4.57-1.94-5.92-6.28-6.57-10.94-.6-4.35-.49-4.37-5.83-4.18a59.58,59.58,0,0,1-.43-8.22c.17-2.27-.21-3.69-2.62-4.24-.4.81-.78,1.58-1.39,2.79-1.24-1.87-2.21-3.49-3.35-5-2.41-3.17-4.54-6.72-7.5-9.28s-4.32-4.81-3.74-8.75c.39-2.68-.46-5.53-.75-8.17l-7.31-1.15c.2-1.27.08-2.19.48-2.72,2.39-3.16.47-5.45-1.6-7.48-1.19-1.17-3-1.76-4.35-2.74a7.27,7.27,0,0,1-2.29-2.26,59.11,59.11,0,0,1-2.75-6.19c-1.43-3.62-3-6.77-6.39-9.41-3.11-2.45-4.65-6.8-7.26-10-1.68-2.06-3.88-3.49-3.64-6.73.08-1.06-1.46-2.84-2.64-3.27a20.59,20.59,0,0,0-7.21-1.23c-10.85.17-20.53,4.22-30,9.29-3.21,11.71-1.37,23.61-1.65,35.38-.11,4.49.9,9,1.3,13.52.3,3.37.23,6.78.71,10.12.52,3.66-.05,6.41-3.16,9-2.77,2.33-5.57,1.7-8.94,1.64,1.31,5.28-4.3,3.78-5.94,6.27,3.54,7,7,13.79,10.46,20.6,2.61,5.1,5,10.36,8,15.2C521.12,490,526,497.23,533,502.74a7.89,7.89,0,0,1,.76.87c4.23,4.51,6,11.16,12,14.12.46.22.62,1,1,1.35,4,3.82,7.58,8.29,12.13,11.28a265.17,265.17,0,0,0,24.47,13.89c7.44,3.82,15.21,7,22.89,10.5l1.7-2.24c1.57,3.57-.61,4.38-3.4,5.24a47.47,47.47,0,0,1,5.85,1.93c4.41,2.2,9.69.34,14,3.32,4,2.73,8.44,1.08,12.73.64l3.09-1-.81,2.66c.31,1.38.62,2.77.94,4.15,2.33-1.74,4.23-1.38,6.48-.17s4.65.19,7-1.15c2.92-1.67,6.22-2.66,9.33-4a8.46,8.46,0,0,0,2.21-1.3c2.2-1.89,4.35-3.86,6.54-5.82.69.91,1.06,1.19,1.11,1.52.67,4.54,1.19,9.11,2,13.63,4.38,26.09,2.76,52.06-2.32,77.8-2.9,14.65-7.2,29-10.49,43.59-2.44,10.83-4.75,21.73-6.21,32.72a340.92,340.92,0,0,0-2.8,35c-.31,10.5.52,21,.9,31.55,0,.43.59.83,1.22,1.67,1.86-4.83,3.5-9.27,5.29-13.64.69-1.68,2.19-3.13,2.5-4.84,1.32-7.16,2.24-14.39,3.48-21.56,1.72-10,3.17-20.07,5.54-29.92,2.55-10.59,6-21,9.12-31.43.87-2.92,1.77-5.83,2.87-8.66,3.49-9,7.08-17.91,10.58-26.74l.74,1.89c1.78-5.89,3.93-11.42,5.09-17.15,2.43-12,4.89-24.07,6.3-36.23a99.91,99.91,0,0,0-2-33.17,9.31,9.31,0,0,1,1-7.62c2.69-4.26,2.44-8.56-1-12.63-2.64-3.08-2.62-4,.3-6.67s6-4.6,9.09-6.86c6.49-4.8,13.08-9.48,19.42-14.47a11,11,0,0,0,3.29-5.3c1.06-3.57,1.57-7.31,2.35-11.23-1-.76-2.2-1.72-4-3.08L746.84,501c-.75-2.27-2.2-4.41-1.64-5.46.8-1.49,3.09-2.18,5.24-3.52l-3.73-5.6c1.4-3.05,2.68-6.26,4.28-9.3a74.35,74.35,0,0,0,8.32-24.93,116.62,116.62,0,0,0-.43-34.94C758.34,414.1,757.9,411.24,754.41,410ZM544.65,488l6.92,4.36C547.32,493.15,545.84,491.2,544.65,488Zm-4.6-58.63c-4.84,1.77-9.73,3.39-14.63,5a10.37,10.37,0,0,1-4.43.76c-1-.15-2.6-1.4-2.66-2.25-.33-4.55-.31-9.12-.3-13.68a4.59,4.59,0,0,1,.76-2.73c4-4.86,4.09-10.46,3-16.69l4.07.34,1.74-5.75,8,6.14,5.66-9.09c2.42,4.52.39,8.38,1.22,12,4.44,1.78,6.8,4.61,6.11,9.83-.51,3.89-.94,8.19,5.48,10.6C548.38,426.1,544.25,427.85,540.05,429.39Zm17.35-24.71,1,0c0,2.77,0,5.53,0,8.3l-1.17,0C557.27,410.17,557.33,407.43,557.4,404.68Zm.92,90.92-2.3-3,1.1-.78,2,3.19Zm22.1-88.24c1.27,3.45,1.27,3.45-.41,6.27C578.35,411.61,579.28,409.82,580.42,407.36Zm-4.63-3,.76,1-.82.78a4.65,4.65,0,0,1-.63-1.18C575.06,404.86,575.54,404.59,575.79,404.38Zm-7.38,101c.46.6.93,1.19,1.39,1.78l-1,.66c-.37-.65-.73-1.31-1.1-2Zm35.87,43c-3.81-3.37-9.37-1.29-13.36-4.72-3.12-2.68-7.26-4.2-11-6.13a3.82,3.82,0,0,0-2.72-.53c-3.56,1.5-5.22-.78-7.1-3.07-1.66-2-3.58-3.82-5.38-5.72l.56-1c2.09,1.21,4.2,2.4,6.28,3.64,3.9,2.35,7.64,5,11.73,7,3.21,1.52,6.93,1.92,10.27,3.21,4.52,1.73,8.9,3.84,14.15,6.15C605.93,547.83,604.6,548.67,604.28,548.38Zm7.77,3.06c-.08-.56-.27-1.83-.46-3.1.44-.25.88-.5,1.31-.76,1.8,2.3,6-.2,7.23,3.9Zm18.28,4-5-1.19c.21-.47.43-.93.65-1.39l4.55,1.78C630.48,554.93,630.41,555.2,630.33,555.46Zm63-127c-2.42-3.81-5.41-6.61-3.75-10.86,1.43-3.65,3.25-7.26,8.65-8.27C698.76,416.68,696.53,422.22,693.31,428.5Z"/><path d="M589.92,552.57l9.77,3.72.39-1-9.78-3.67C590.17,551.9,590.05,552.23,589.92,552.57Z"/><path d="M762.28,451.89c-.07,1.27,0,2.55,0,3.82l1.14,0,.18-5.11C762.69,451,762.3,451.44,762.28,451.89Z"/><path d="M345.12,182.94c1.4-4.11.22-6-3.89-7.36-.89-.29-2.47-.19-2.64-.67-1.8-5-5.86-2.78-9.09-3l-2.95-3.79c-2.48,2.31-4.76,2.14-7.44.67-3.76-2.05-7.3-1.5-10.19,2a8.76,8.76,0,0,1-3.54,2.83c-3.94,1.37-6.21,4-7.9,7.75s-7.9,5.83-12.08,4.8a86,86,0,0,0-14.56-2.78c-5.62-.4-11.31.22-17,.3-1.82,0-3.65-.27-5.6-.43,0-1.81-.27-3.09.14-4.06,1.28-3,.18-5.54-1.22-8.12-4-7.4-12.87-13.77-25.55-10.1-2.9.84-5.88,1.39-8.76,2.06-2.28-4.38-4.3-8.26-6.31-12.14-4-7.77-10.82-11.39-19-13.29-6.46-1.5-13.09-.76-19.61-2.26-7.38-1.7-14.36-3.62-19-8.43-2.95-.49-4.92-.72-6.84-1.17-2.79-.65-5.54-2.07-8.31-2.08-6.44,0-12.9.5-19.32,1.06-1.38.12-3.33,1.06-3.87,2.18-1.79,3.7-6.21,6.62-4,11.73.14.33-.43,1-.82,1.79-.9-.49-1.75-.86-2.49-1.37-4.76-3.34-9.46-3.19-14.54-.44-11.38,6.17-18,15.89-21.35,28-3.3,11.77-3.31,23.52,1.08,35,1.52,4,.55,6.83-2.87,9.32-1.36-5.28-.47-11.14-6.07-14.79l-2.87,4.24c-2-1.08-3.45-1.84-3.59-4.88-.33-7.1-2.92-9.12-10.09-9.41-2-.09-3.75-.35-4.39-2.75-.74-2.74-2.08,1-3-.17-.75-1-1.36-2.11-2.19-3-.21-.22-1.15,0-1.62.28-5.65,3.22-12.28,3-18.31,5.34-5.42,2.08-6.74,6.66-9.64,10.24-1.56,1.91-2.18,4.86-2.53,7.44C.7,209,.38,214.47,0,220a3.83,3.83,0,0,0,.88,2.09c3.76,5.39,4.84,11.57,5.53,17.91a34.59,34.59,0,0,0,1.74,9c4.82,12,8.43,24.67,17,34.93C27,286.07,28.1,288.71,31,290a4.35,4.35,0,0,1,1.87,3.15c.48,5,3.19,8.78,6.07,12.54.13.18.63.07,1,.1,0-.89,0-1.76,0-3.36l5.34,4.06c-.27-1.94-.44-3.18-.61-4.42l-3.18-4.64c2.88-.9,3.91.51,4.85,2.09,4.1.63,4.36,4.55,6.36,7.45a38.42,38.42,0,0,1,5.43-.94c2.2-.08,5-.52,6.52.58,5.76,4.06,11.12,8.67,16.6,13.1,2.43,2,4.14,4.71,8.18,4.41,1.88-.14,4,2.25,5.94,3.56,5.8,3.9,11.22,8.61,19,9.09l-5.83-5.33c3.63-1.94,6.29-.24,9.17.83a94.8,94.8,0,0,0,9.43,2.44c-3.48,1.62-6.59-.9-9.51,2.4,10.93,2.14,21.15,3.15,31.41,1.16,7.7-1.5,15.5-3,22.82-5.71,4.41-1.61,7.85.5,11.53,1,4.88.69,6.34,6.24,9.07,9.81,1,1.27.91,3.55.85,5.36-.41,13-1.61,26.06-1.3,39.07.53,22.6,1.93,45.18,3,67.76.76,15.9,2.34,31.7,5.9,47.26,2.3,10.07,4.17,20.24,6.29,30.36a26.76,26.76,0,0,0,1.35,3.64c2.66-1.69,3.55-3.59,3-6.42a24.25,24.25,0,0,1-.34-6.86c.44-5.29,1.32-10.54,1.71-15.84.76-10.48,1.23-21,2-31.46.5-6.83.75-13.75,2.09-20.44a218,218,0,0,0,4.46-47.17c-.14-7.45-1-14.89-1.59-22.33-.89-10.72-.29-21.4.19-32.13.24-5.23-.26-10.21,3.87-14.21.2-.19.09-.72.11-1.05-.61-.85-1.21-1.7-1.52-2.12,2.42-1.82,4.75-3.06,6.39-4.92,2.94-3.34,5.58-6.87,9.6-6.38,2.68-3.74,4.78-6.87,7.1-9.83,1.88-2.4,4.19-4.47,6-6.93,2.74-3.73,6.11-5.46,10.78-4.71,1.19.19,3.08,0,3.63-.72,1.42-1.91,3.13-4.23,3.17-6.41.05-3.91,1.93-4.16,4.9-4a48.83,48.83,0,0,0,5.84-.37c.41-3.47,2.77-4.57,5.44-5.46a18.32,18.32,0,0,0,5.16-2.35c5.66-4.18,12-7.47,16.72-12.91a23.33,23.33,0,0,1,5.5-4.81c4.41-2.64,9.63-3.59,13.68-7.28,1.53-1.38,3-2.33,3.87-4.39,2.47-6.12,5-12.25,7.84-18.18a49.88,49.88,0,0,0,5.16-27.82c-.35-3.18.37-6.48.69-9.72.35-3.64-1.18-7.56,1.49-10.91.12-.16-.14-.77-.37-1C343.72,186,344.54,184.67,345.12,182.94ZM125.63,225.56l2.61,2.49c-1-.62-2.07-1.23-3.11-1.84Zm-1.19-62.42c.18,1.23.37,2.46.55,3.69l-.73.12-.66-3.6ZM92,182.8c-1.12-2.61-2.32-5.21-.78-8.44,6.12,14.3,17.16,25.93,21.71,41.23-3.86,1.49-5.82-1-7.26-3.24A95.57,95.57,0,0,1,100,201.17C97.21,195.09,94.65,188.93,92,182.8Zm6.83,75.81,2.78,1.08C100.66,261.81,100,260.94,98.84,258.61ZM111,263.7c-4.58,1.18-5,1.08-8.07-2.95a7.63,7.63,0,0,0-1.16-1c3.85-.89,7.68-1.87,11.57-2.59,1-.19,2.12.5,3.19.73,2,.44,4,.84,6,1.25.21.5.42,1,.68,1.65C119.09,261.75,115,262.66,111,263.7Zm11.61-4.78c.25-1.4-1.64-3.23.86-4.28.23-.09.07-1.26,0-1.92-.23-1.72-.52-3.44-.89-5.81,5.52,1.53,6.16,5.69,8,9.78C127.34,256.67,124.33,256,122.62,258.92Zm5.63,71.61,3.35.27,0,.23-3.34-.27C128.24,330.68,128.25,330.61,128.25,330.53Zm3.5,5.11-2-.77.51-1c.59.33,1.18.66,1.78,1Zm-3.1-107.22,4.13,3.63C129.92,232.53,129.21,230.56,128.65,228.42Zm4.28,3.74c3.17,1.62,3.2,1.66,4.9,4.77C134.72,236.33,133.38,234.71,132.93,232.16Zm14.18,104.23c-3.74,0-8.17,2.88-12.52-2.55l20.64-2C153.6,336.37,149.77,336.38,147.11,336.39Zm14.55-3.74-.18-1.18,3-.56c.06.24.13.49.2.74Zm50.33-2c-.71-1-1.91-2-2-3-.09-2.33,1.51-3.65,5.17-5C215.49,327.52,215.49,327.52,212,330.69Zm5.5,8.89-1.86-3.36C218.59,336.64,218.59,336.64,217.49,339.58Zm1-10.77c2.88-3.3,1.89-7.76,7.13-9.37C224.91,324.1,224.31,327.63,218.49,328.81ZM231.9,209.25a6,6,0,0,0-.7,3.23c1.19,7.38-2.6,13.78-4.27,20.54-.72,2.89-4.24,5.09-7.27,8.48-.75-2.45-1.6-3.8-1.5-5.09,1-14.06-2.27-27.83-2.64-41.78-.11-4,0-7.94-.05-11.91l1.38-.48c6.53,5.33,11.28,13.46,21.89,13.28C236.19,200.62,234,204.9,231.9,209.25Zm11.59-16.78-1.09-.21c.42-1.17.85-2.34,1.28-3.51l.68.19Z"/><path d="M46.38,309.75l2.3,5.05,1.25-.5C50,311.09,50,311.09,46.38,309.75Z"/><path d="M60.34,308.09c0,.25,0,.5,0,.76a4.65,4.65,0,0,0,1.43.42,8.22,8.22,0,0,0,1.78-.47c-.06-.38-.13-.77-.19-1.15Z"/><path d="M60.56,194.12c.37.17,1-.18,2.51-.55A31.33,31.33,0,0,0,59.85,192c-.1,0-.62.67-.55.77A3.49,3.49,0,0,0,60.56,194.12Z"/><path d="M1685.72,483.91c-1.07-2-2.08-4-3.49-6.71l-3.59,2.65v0a24.24,24.24,0,0,0-1.28-4.35c-1.31-2.6-3.73-2.69-5.77-.58l-5.06-3.18c1.77-3.92,1.55-4.84-1.76-6.89a21.2,21.2,0,0,0-2.59-1.23c-5.38-2.43-11.14-4.27-16.06-7.42-5.15-3.3-9.55-2.79-14.25.1-1.46.9-2.7,2.18-4.19,3-1,.55-2.28.61-4.6,1.18,4-6.28,6.71-11.88,12.14-15.63a9,9,0,0,1,.62-8.24c1.55-2.63,2.3-5.83.75-8.84a7.85,7.85,0,0,1-.33-6.49c.78-2.6,1.38-6-1.08-8-6.43-5.27-12.64-10.89-20.86-13.53a33.36,33.36,0,0,1-8.43-4.62c-1.87-1.29-3.39-1.77-5.07-.09-3,3-5.89,6-8.84,9-2.69,2.72-5.38,5.45-8.09,8.15s-5.57,5.52-9.15,9.05c-.17-2.88-.35-4.55-.36-6.22,0-5.55,0-11.11,0-16.67.12-10.27-1-20.34-5.78-29.6-2.18-4.23-5.2-8-7.61-12.14-2.51-4.3-5.79-7.47-10.62-9a8.2,8.2,0,0,1-3.29-2.2c-5-5.47-11.22-7.52-18.45-7.36-5.94.14-10.91-2.7-14.85-6.64-4.61-4.58-8.89-5.34-12.86-.35a55.68,55.68,0,0,0-8.08,13.12c-3.5,8.42-4.35,17.41-3.79,26.54a15.65,15.65,0,0,1-1,6.07c-4.21,11.73-8.76,23.33-12.79,35.11-2.51,7.36-4.31,15-6.64,23.23-4.05-.1-8.26.25-12.27-.49-2.42-.44-4.83-2.27-6.64-4.09-.88-.89-.26-3.18-.53-4.8a47.58,47.58,0,0,0-1.44-4.82l-4.12,5.76c-6.57-2.9-5.94-9.2-7.36-14.57-3.58.4-5.18-1.92-7-4.33-1.66-2.25-3.77-5.76-5.79-5.84-5.06-.19-8-2.94-11.17-6-2-1.95-3.67-1.69-6,0-5.19,3.75-10.73,7-16.23,10.55-.8,2.2-.05,5.14-2.3,7.26-1.62-2.19-3.35-4-4.41-6.12s.26-5.34-2.83-7.08l-4.43,6.47c-2.85-5.77-7.83-4.36-12.42-5.15-.15,1.78-.25,3-.36,4.43l-3.07,0c-5.81.05-6.82.85-7.82,6.7-1.67,9.74-.1,19.38,1.26,29,.23,1.62,2.13,3.21,1.94,4.64-.77,5.81,3.19,9.49,5.65,13.82,1.88,3.31,3.63,6.82,6.12,9.63,8.37,9.46,16.9,18.79,25.65,27.9a146.92,146.92,0,0,0,30.81,24.83c8.56,5.11,17.09,10.28,25.82,15.08,9.38,5.16,19,9.92,28.5,14.83a11.28,11.28,0,0,0,1.64.55c7.25,2.43,14.43,5.12,21.78,7.18,3.66,1,5.09,3.08,5.22,6.45.25,6.7.5,13.4.55,20.09q.16,23,.13,46c0,2.85-.27,5.7-.33,8.55-.18,8.21-2.52,16.3-1.32,24.63.25,1.74-.72,3.68-1.24,5.49-.4,1.46-1.23,2.84-1.42,4.31-1.67,12.89-3.5,25.77-4.78,38.71-1.44,14.45-2.81,28.94-3.37,43.44-.48,12.23,0,24.51.52,36.75.47,11.61,1.7,13.92,9.58,22.31,4.25-5.52,4.28-5.52,4.47-8.14.61-8,1.18-16,1.81-24,.35-4.38.14-9,1.38-13.1,2.16-7.16,4.72-14.15,3.81-22.23a14.51,14.51,0,0,1,1.15,1c.11.13.1.38.22.51s.29.1.43.14c1.83-3.88,4-7.65,5.42-11.67,3.39-9.51,6.33-19.18,9.68-28.7.92-2.59,2.9-4.78,4-7.33,2.4-5.61,4.48-11.36,6.79-17,4.06-10,7.84-20,8.3-31,.06-1.33.55-2.63.71-3.95.41-3.61,1-7.22,1.08-10.83.18-11.1,0-22.21.26-33.31.15-5.6-.83-10.7-4.27-15.14-2.55-3.28-5.34-6.37-8.32-9.9a20.32,20.32,0,0,1,.49-2.28c.71-2.19,1.35-4.41,2.27-6.51,2.53-5.78,9-7.33,14.08-3.65,1.61,1.18,4,2.86,5.43,2.38,4.3-1.46,7.92.47,11.73,1.29s6.74-.28,8.09-4a35.89,35.89,0,0,0,.85-3.92c.92-3.84,1.84-4.93,5.32-4.39,3.06.48,5.17-.18,7.09-2.5.67-.81,1.89-1.17,2.87-1.73l8.4-4.71c3.43-1.93,5.71-5.4,10.06-6.3,2.44-.51,5-2.77,6.51-4.94a19,19,0,0,1,9.94-7.23c11.8-4.22,21.82-10.91,28.86-21.56a31.28,31.28,0,0,1,2.23-2.78c2.07.35,3.39,1,4.4.64a9.07,9.07,0,0,0,3.07-2.48c3.22-3.26,6.31-6.64,9.58-9.84C1687.54,493.89,1688.43,488.91,1685.72,483.91ZM1506.16,689.45l-.27,0L1507,676l.88.08Zm1.91-17.78c-.08-3.47-.17-6.94-.28-11.12,2-2.07,2.69-6.09,1.67-12.79l-2,1.31c.39-2.25.22-5.21,1.09-5.55,3-1.2,1.9-3.39,1.94-5.26.14-6.09.08-12.17.27-18.25a56.21,56.21,0,0,1,1.2-7C1514.92,633.64,1511.42,652.71,1508.07,671.67Zm18.19-228.59-1-.14c.18-1.12.36-2.23.55-3.34l.71.24C1526.43,440.92,1526.34,442,1526.26,443.08Zm41.39,123.38c1.52-1.75,3-1.66,4.5.09Zm110.74-83.57.24-3C1680.71,480.44,1680.69,480.47,1678.39,482.89Z"/><path d="M1521.26,751.25l.68.08c.07-.78.13-1.56.19-2.34l-.52-.06C1521.49,749.7,1521.38,750.47,1521.26,751.25Z"/><path d="M1252.69,207.38l-.64-.53,4.24-7.17c-1.4-1.6-2.4-3.13-1.24-5.58a87.38,87.38,0,0,0,3.3-9.44l-3.3-2.22c-3.34-3.21-2.81-6.63-.55-9.51-1.17-2.48-2.39-4.38-3-6.47-1.11-3.86-2.55-5.19-6.71-5.55-1.07-.1-2.42-.1-3.12-.72-2.56-2.31-5.43-.95-7.53-.08-5.34,2.21-9.55,6.23-13,10.87-1.9,2.58-1.87,6-3,9-2.79,7.7-4.11,15.91-6.49,23.77-1.26,4.18-2.51,8.54-5.93,13.13a43.63,43.63,0,0,1-.12-5.08c1.3-10.89-.33-21.42-3.91-31.68-1.86-5.35-4.7-10.09-9.5-13.37-2.55-1.74-6.79-1.58-7.67.6-1.34,3.32-3.12,7-2.82,10.33,1.52,17-.08,33.74-2.2,50.5a7.8,7.8,0,0,1-.56,1.59l-2.51-2.3c-.57,2-1,3.69-1.52,5.38l-1.29.09c-.45-1.48-.93-3-1.37-4.45-1-3.48-1.7-7.09-3.07-10.41-2.24-5.42-6.84-7.17-12.47-5.24-4.51,1.54-9.06,3-13.49,4.72a10.19,10.19,0,0,0-4.58,3.24c-4,5.77-7.76,11.73-11.49,17.69-1.35,2.18-2.38,4.56-3.55,6.85l-1.18-.11c-.63-2.51-1.72-5-1.81-7.53-.31-9.18-.88-18.4-.28-27.53,1-14.93-1.73-29.41-4.32-43.89-2.46-13.75-5.15-27.42-5.28-41.46a15.59,15.59,0,0,0-1.24-6.68c-1.41-2.79-3-5.88-7.16-5.49-5.7.54-11.48.52-17.1,1.47-4.7.8-8.06,3.8-10.36,8.29-4.65,9-7.69,18.58-7.83,28.61-.24,16.68.14,33.37.78,50,.42,10.72,1.8,21.4,2.73,32.09.19,2.19.16,2.2-2.48,3.41-.24-3.68,1.94-7.55-1.16-11.62-.65,2.91-1.18,5.31-1.71,7.71-1.35-.79-1.92-1.55-2.06-2.38-1.06-6.2-2-12.42-3-18.62a32.48,32.48,0,0,1-.55-9.82,20.87,20.87,0,0,0-1.82-11.06l-4.38,1.76c.66-3.85,1.54-6.76,1.57-9.66s-.8-6-1.21-9c-.15-1.11.15-2.39-.3-3.33-2.4-5-4.86-10-7.5-14.83s-1.58-8.68,3.31-11.29a37.39,37.39,0,0,0,3.25-2.27c-4.15-1.69-7.61-.88-10.78.27-2.19.79-4.07,1-6,0-7-3.52-14.49-3.2-21.92-2.9-5.87.23-10.68,3-10.88,10.71-.1,3.84-.42,7.66-.57,11.5a185.11,185.11,0,0,0,1.82,32.09c1.47,11,3.19,21.9,5.51,32.7,1.27,5.93,4.5,11.42,5.95,17.33a61.88,61.88,0,0,0,7.82,19c.35.56-.08,1.62-.21,3.22-2.06-1.72-3.93-2.67-4.86-4.19-3.67-6-7.2-12.08-8.42-19.32a101.83,101.83,0,0,0-4.51-16c-4.37-12.66-9-25.24-13.49-37.84-.31-.87-.71-2-1.42-2.4-4.73-2.47-9.4-5.24-14.41-7a5.63,5.63,0,0,0-7.39,4.53,93.25,93.25,0,0,0-.87,11.43c-.1,14.66,4.74,28.26,9.28,41.89a45.74,45.74,0,0,0,10,17.31c.28.29.2.91.4,2-7.2-3.63-15.73-3.28-20.49-10.48-4.77,1.72-8.88.86-12.78-2.27a36.54,36.54,0,0,0-7.73-4.7c-1.79-.81-4.06-1.09-5.43,1.38,4.71,2,4.71,2,4.3,6.55l-4.41-2.43c-.33,1.24-.65,2.38-1.16,4.28-3.07-3.43-5.16-2.18-8.13-.31-2.25,1.41-1.88,3.67-3.56,5.05a87.54,87.54,0,0,0-7.66,7.63c-3,3.21-3.34,7.08-2.69,11.25.43,2.79.58,5.64.82,8.46.11,1.33,0,2.69.19,4,.71,4.82,1.06,5,6,5.73,6.4.88,13.07.59,18.83,4.35,2.08,1.35,4.33,2.45,6.51,3.66,10.18,5.66,21,10.27,30.16,17.65,1.63,1.31,4.13,1.51,5.84,2.76,2.27,1.68,5.63,2.55,5.34,6.64-.08,1.16,1.63,2.47,2.58,3.66.16.2.64.15,1.3.29l-1-4.65a14.2,14.2,0,0,0,11.65.76c1.13-.41,2.92.56,4.25,1.22,12.15,6.07,24.3,12.12,36.36,18.36,3.49,1.81,7.2,3.51,10.7,4.9,5.69,2.26,12.27,4,18.54,2.38s11.65.68,17.08,3c5.2,2.22,5.67,3.08,5.07,8.82-.26,2.58-1,5.11-1.48,7.59,2.55,1.15,3.93-.17,4.32-1.84.67-2.85,2.55-2.75,4.8-3,.55,2.22,1,4.16,1.5,6l11.64-1.21c-.47,3.55-.87,6.69-1.31,9.83-3.07,21.83-5.47,43.7-5.7,65.79-.15,15.14-1.3,30.27-1.57,45.41-.55,30.4,1.62,60.58,8.72,90.24,1.14,4.73,2.94,9.3,4.43,13.94l1.26-.22c-.14-3.91.12-7.88-.49-11.72-1.91-12-3.41-24-2.68-36.07,2-34,1.46-68.23,5.53-102.17.4-3.35-.83-6.87-.59-10.25.61-8.36,1.65-16.68,2.47-25,.17-1.68,0-3.42.28-5.05,2.06-10.31,4.41-20.56,6.32-30.89,1.51-8.25,5.39-14.77,12.91-18.55,3.2-1.61,5.32-3.72,6.16-7,.64-2.49,1.73-4.16,4.36-4.7a3.82,3.82,0,0,0,1.81-1.22c4.11-4.49,8.1-9,12.55-13.25,6.43-6.11,11.51-13.63,17.13-20.57.46-.58.53-1.45,1-2.08,3.26-4.88,6.49-9.77,9.89-14.55.69-1,2-1.5,3.75-2.7-.56,2.13-.9,3.43-1.25,4.74l1.09.47,23.33-38.87,3.64,1.2c3.15-6.94,8.88-12.53,7.69-20.82-.09-.65.54-1.39.79-2.1,1.81-5.22,3.64-10.43,5.39-15.67.9-2.72,1.33-5.68,4.44-7.53-.07,2.51-.13,4.49-.19,6.47l1,.22q2.82-6.65,5.63-13.3l-.89-.58Zm2.29-24.79c-.34,1.51-.7,3-1.24,5.42C1252.18,184.92,1253.48,183.71,1255,182.59Zm-176.7,93.3a24.58,24.58,0,0,1,2.29,1l-1.75,1.47c-.44-.66-.89-1.31-1.29-2C1077.52,276.37,1078.1,275.83,1078.28,275.89ZM1076,263l-.91.41c-.25-1-.5-1.95-.74-2.92Zm-1.86-2.88c-2-1-1.62-2.85-1.74-4.54Zm-4.58-17.93c2.6,2.31,2.75,3,2.76,13C1069.24,250.26,1068.73,247.85,1069.52,242.2Zm-5.06,11.64c3.12,2.92,5.88,6,5.89,10.66-3.59-2.66-4.48-6.8-5.89-10.66Zm-47.79,20c3.81.81,7.16,1.38,10.42,2.29a8.88,8.88,0,0,1,4.29,2.39,17,17,0,0,1,3.55,7.5Zm61.55,17.51c-.65.55-1.93.34-2.93.48h0c1.13-3.41,1.13-3.41-3.61-5.22l2.38,3.62c-3.55-.38-7.25-.19-10.23-2.78a2,2,0,0,0-1.6-.42c-4.87,2-7.94-2.26-11.92-3.3-1,1.68-2.31.86-3.31.09a27.39,27.39,0,0,1-9.6-12.43A132.25,132.25,0,0,0,1030,256a52.38,52.38,0,0,1-5.51-20.65c4.32,8.67,7.14,18.08,13.64,26a6.87,6.87,0,0,0,.16-2.32c-1.56-5.27-3-10.58-4.88-15.73-1.76-4.84-2.75-9.53,0-14.18,1.22,5.91,2.48,12,3.83,18.53,1.82-.9,3.29-1.64,5.41-2.68-.63-3.51-1.08-7.07-2-10.53a10.41,10.41,0,0,1,1.21-8.72c1.94-3.14,1.86-6.21-.57-9.71-2.59-3.74-3.91-8.38-1.68-13.24,1.57,4.92,6.58,8.18,6.15,14a24.5,24.5,0,0,0,.64,5.13,11.36,11.36,0,0,1,.28,1.7c-.11,4.33,3.7,7,4.63,10.68s.69,7.94,3.73,11.61c.89-3.16-2.64-6.57,1.17-9.29,3.44,4.17-.07,9.66,3.46,14.2.49-2.22.88-4,1.28-5.85l.86-.15q1.19,4.34,2.35,8.68l0,.05,0-.05-1.57.09c.27,1.69.06,3.69.92,5,3.92,6,4,13.31,6.77,19.7.62-1.43,1.25-2.86,2-4.62l3.06.42c-.65,2.33.47,4.1,2,5.52,3.78,3.42,3.82,3.37,4.8,7.39A42.42,42.42,0,0,1,1078.22,291.36ZM1100.48,251a8.29,8.29,0,0,1-1.12-.31c-5.56-3.72-6.68-10.18-9.41-15.6-1.08-2.15-2-4.91-1.6-7.14.65-3.53-.71-6.69-.66-10,0-2.36-2.87-4.94.46-7.12.14-.08,0-.73-.15-1.07-3.51-8.43-2.76-17.59-4.52-26.32-.76-3.82-1.91-7.55-2.84-11.34a26.83,26.83,0,0,1-.36-3l2.43.34c.11-.3.39-.71.28-.89-2.1-3.59-2.48-7.34-2.19-11.52.27-3.92-.68-7.94-1.27-11.9-.86-5.83,1.76-9.65,7.71-10.47.34,1.15,1,2.37,1,3.58-.24,12,1.81,23.64,3.53,35.4,1.83,12.51,2.94,25.13,4.58,37.67,1.19,9.09,2.91,18.12,4,27.22C1100.88,242.5,1100.48,246.68,1100.48,251Zm67.66,79.26-.94-.91,1.61-1.8.94,1Z"/><path d="M1070.38,278.45l0-.06h0c0-.06,0-.12-.07-.18l0,.11Z"/><path d="M1050.26,283.59v.13h0l0,0a.61.61,0,0,1,.07-.1A.43.43,0,0,1,1050.26,283.59Z"/><path d="M1050.26,283.59c-.24-1.68-.48-3.38-.83-5.92C1047.25,280.89,1047.35,282.62,1050.26,283.59Z"/><path d="M1047.17,257.72l1.56,3.36,1.22-.55c-.49-1.13-1-2.26-1.48-3.4Z"/><path d="M1073,282.32l-2.66-3.87-1.2,3.18Z"/><path d="M3723.72,397.65l-2.14,7.88c4.06-3.31,5.52-6.52,6.32-13.28-3.15.55-2.79,3.69-4.2,5.43l0,.06h0Zm0,0h0Z"/><path d="M3727.33,368.46c-6.28-1.29-12.59-2.5-18.91-3.57a11.57,11.57,0,0,0-4.56.34,69.51,69.51,0,0,0-22,9.23,146.28,146.28,0,0,0-33.65,31.1c-1,1.28-2.19,2.4-3.47,3.79-.58-13.58-1.14-26.6-1.73-40.13-3.59.24-7.16-.18-10.25.85-4.8,1.59-11.17.18-13.87,6.44-.16.38-1,.64-1.49.68-2.41.16-3.18,1.83-3.67,3.79-.79,3.14-1.25,6.4-2.39,9.41-6.19,16.3-12.53,32.55-18.87,48.79a19.06,19.06,0,0,1-1.84,3c-2.54-.56-3.3-3.82-6.66-2.86l4.54,6.59c-2.77,4.69-2.77,4.69-7.57,5.42-2.64-3.92-3.58-8.32-3.82-13a43.56,43.56,0,0,0-1-5.6c-.43-2.32-.85-4.63-1.32-7.21-4.21-2.13-4.49-2.86-3.26-7.7a7.56,7.56,0,0,0-.27-3c-.45-2.58-1.48-5.18-1.32-7.72s1.39-5.26,2.17-7.89l.08,0,0-.15h0l-.07.07c-.68-4-1.41-7.91-2-11.88-.29-1.88-.89-3.95-.41-5.67,1.32-4.8-.36-9-1.73-13.38-1.42-4.55-4-8.8-4-13.72a57.45,57.45,0,0,1,.73-6.5c.17-1.41.32-2.81.48-4.22,1.27.51,2.54,1.05,3.84,1.49.29.1.7-.15,1.33-.3.73-1.86-.52-2.55-2-3.13-5.88-2.26-9.08-6.89-10.59-12.7-.71-2.75-.68-5.7-.93-8.56-.23-2.54-1.3-4.26-3.88-5.09-4.18-1.33-8.29-2.85-12.42-4.32-4.47-1.6-7.37-.74-10.5,3-4,4.74-7.44,9.74-9.35,15.71-2.63,8.2-5.58,16.32-8,24.59-4.89,16.88-4.11,33.67,1.46,50.29.38,1.14.23,2.44.4,4.48-2.34-4.47-4.26-8.14-6.25-12l-2.23,1.33c-2.3-3.25-4-7.18-7-9.47a27.88,27.88,0,0,1-9.15-11.41c-1.59-3.78-1.95-3.77-6.3-1.16l4,1.74c-5,.19-6.67-.17-9.51-2.2-3.06-2.18-6.09-3.58-10.11-2.5-5.68,1.53-11.52,2.48-17.28,3.72-8.15,1.76-12.89,7.36-15.42,14.78-.83,2.44-2.4,5-1.06,8.22.84,2,.95,5.81-.31,7-2.85,2.7-3.9,7.34-9.21,7.8-5.71.49-6.34,2-6,8.08l3.61,1.74c-.44,1.34-.88,2.38-1.12,3.47-1.13,4.95-.07,6.66,4.92,7.66a55.21,55.21,0,0,0,8,1.13,14.47,14.47,0,0,1,10.44,5.34c1.65,1.87,3.23,3.81,4.77,5.77,5.32,6.78,10.59,13.6,15.9,20.39,3,3.8,6,7.57,9,11.35a20.29,20.29,0,0,1-7-1.62c-16.42-6.33-32.81-12.74-49.27-19-2-.75-4.28-.64-6.25-.9-2.23,6.53-.49,11.29,4,15.15,4.64,4,9.17,8.19,14.11,11.8,14.8,10.82,30.6,19.76,48.57,24.26,9,2.27,18.13,4.34,27,6.44-.51.38-1.58,1.1-2.56,1.94-1.16,1-2.27,2-3.37,3.13-3.47,3.39-3.78,6.4-.63,10a12.93,12.93,0,0,0,5,3.69c4.84,1.72,9.77,3.62,14.82,4.31,18.1,2.48,35-1.93,51.15-9.93,2.31-1.14,4.66-2.23,7.61-3.63,0,2.5-.12,4.18-.07,5.85.32,9.75.08,19.57,1.15,29.25,1.53,13.88,4.14,27.65,6.07,41.49q1.69,12.24,2.69,24.57c1.32,16.81,2.6,33.62,3.5,50.46.46,8.69,1.47,17.18,4.82,25.26a15.58,15.58,0,0,0,1.63,2.48c4.24-4.69,3.57-9.92,2.74-15-1.65-10-.39-20,1.58-29.62,2.62-12.81,2.95-25.78,4.53-38.65.26-2.07-.45-4.28-.07-6.3,1.44-7.52,2.71-15,2.24-22.72s-.55-15.32-1.6-22.87c-1.8-13.07-5.85-25.82-5.1-39.24.37-6.47.11-13,.82-19.42.59-5.4,7.88-10.95,12.4-9.48,3.24,1.05,5.37,0,8-1.24,3.4-1.6,7.11-2.53,10.69-3.76a12.44,12.44,0,0,0,3.06-1.21c1.66-1.13,3.12-2.56,4.75-3.76a41.13,41.13,0,0,0,13.16-15.44l9-3.42c-1.19-4.09.59-6.44,3.49-8.6,1.91-1.42,3.24-3.62,4.87-5.43a29.81,29.81,0,0,1,2.81-2.81c1.41-1.22,3.13-2.13,4.34-3.51q7.4-8.38,14.52-17,8.93-10.78,17.63-21.75c4.25-5.33,8.37-10.77,12.55-16.16,1.63-5.48,3.29-10.95,4.86-16.45.78-2.73,1.42-5.5,2-8.28C3731.12,370.38,3729.65,368.94,3727.33,368.46Zm-219.55,39.28-.69-2.46,1.07-.24c.15.83.31,1.66.46,2.5Zm59.88,46.89-2.41-3.68c-2.16,1.38-2.83,5.1-6,3.47-1-.51-1.34-2.29-2.4-4.29-2-.25-4.85-.2-7.46-1a46.05,46.05,0,0,1-9.77-4.38c-1.61-1-2.88-1.6-4.71-1.05a15.74,15.74,0,0,1-2.85.28c-4.69.55-8.3-.52-9.6-5.77a21.88,21.88,0,0,0-2.2-4.41c1.16-.45,2.37-.6,2.92-1.27.34-.42-.12-1.78-.57-2.51-1.09-1.75-2.49-3.32-3.53-5.1-.39-.67-.52-2.22-.13-2.53,2.75-2.12.83-4.35-.5-5.28-2.79-1.94-2.83-4.38-2.46-7.08a21.66,21.66,0,0,0-1.43-11.24c-1.87-4.69-.54-9.46.45-14.15-.73-.48-2.12-1-2.09-1.43a127.56,127.56,0,0,1,2.08-14.05c1.8,4.5,1.6,12.24,0,15.54.74,3.89,1.47,7.79,2.23,11.68.18.94.18,2.12.74,2.75,3.78,4.16,4.12,9.54,5.5,14.56.22.78,1,1.41,2.48,1.81-.36-3.28-.17-6.73-1.18-9.79-1.7-5.14-3.23-10.14-2.14-15.62.11-.59-.39-1.34-.71-2-1.09-2.11-.76-3.65.37-6,1.47-3.08,1.07-7.06,1.4-10.66.29-3.08.24-6.29,4-7.46.25.23.74.5.7.67-1.51,7.9,3.11,14.27,5.26,21.25.79,2.55,2,5,2.84,7.52a6.57,6.57,0,0,0,2.46,3.27,9.34,9.34,0,0,1,3.27,6.78c-.3,7,3.85,12.26,5.78,19.37l2.47-3.26c1.46,1.13,2.4,2.46,1.29,4.22-1.66,2.61-.2,4,1.43,5.9,5,5.76,9.88,11.66,12.48,19.41l4.46-.06Zm89.81-18.93-.79-.22c.26-.75.52-1.51.77-2.26l.54.14C3657.81,434.14,3657.64,434.92,3657.47,435.7Zm62.64-61.43c-.22-1.06-.45-2.13-.67-3.19l1-.22c.21,1.07.43,2.13.64,3.2Zm2.92,4.23-1.08-.23c.25-.55.49-1.11.77-1.65a1.08,1.08,0,0,1,.44.08C3723.14,377.3,3723.08,377.9,3723,378.5Z"/><path d="M3579.53,415.84c-.39-2.13-.64-3.55-.9-5C3577.07,413.55,3577.07,413.55,3579.53,415.84Z"/><path d="M3572.18,399.27c.42,1.44.84,2.9,1.43,4.91C3574.62,400.9,3574.63,400.84,3572.18,399.27Z"/><path d="M3548.1,442.12a4.77,4.77,0,0,0,.56,1.31c.37-.41.8-.73.75-.87a5.19,5.19,0,0,0-.78-1.17C3548.44,441.63,3548.07,441.91,3548.1,442.12Z"/></svg>