<svg xmlns="http://www.w3.org/2000/svg" xmlns:xlink="http://www.w3.org/1999/xlink" viewBox="0 0 260.21 356.21"><defs><style>.a{fill:none;}.b{clip-path:url(#a);}.c{fill:#fa9ad0;}.d{fill:#3ea68f;}.e{fill:#0f7d64;}.f{fill:#25967d;}.g{fill:#7dd1c5;}.h{opacity:0.2;}.i{fill:#26998b;}</style><clipPath id="a" transform="translate(3.19 56.11)"><rect class="a" width="250" height="250"/></clipPath></defs><g class="b"><rect class="c" x="3.19" y="56.11" width="250" height="250"/><path class="d" d="M164.93-33.7s3.29-11.21-2.67-12.5-25,4.48-17.94-.82,18.45-.41,18.45-.41-11.09-13-23-7.2a13.4,13.4,0,0,0-7.08,8.72c-.09.35-.18.72-.28,1.13,0,0-.34,1.71-1.82,1.26h0a1.57,1.57,0,0,1-1.06-1.72c.27-2-.66-6.79-8-9.26a11.12,11.12,0,0,0-13.16,4.12c2.26-1.92,17.69,7.74,3.84,5.34S99.33-34.9,99.33-34.9c.62-3.7,10.49-4.25,15-3.43s-12.14,5.48-15.77,7.88.48,13,.48,13c-.27-3.57,15.08-13.92,18.71-14s-15.21,11.1-17.2,14.8,2.74,10.9,2.74,10.9c-.51-4.83,15.89-18.87,17.79-19.33s4.35,1.51-1.2,3.43-11.65,13-13.57,16.79,4.8,9.05,4.8,9.05c-.42-2.13,5.75-17.75,12.2-20.29S113.73.6,112.84,4.92s6.51,7.88,6.51,7.88c-1.65-3.15,1.44-16.45,6.85-19.26S121.51,14,121.51,14s.58-.55,4.42,1.3,3.91,3.64,3.91,3.64,2.45-4.75,7.13-6.5c0,0-4.61-12.67-3.38-15.3s7.9,9.65,7.28,16.07c0,0,6.84-1.64,2.88-10s-9.92-13.52-6.63-13.73,11.16,15.22,10,20.77c0,0,9.16-5.76,6.59-11.72,0,0-4-9.51-9.31-12.6s-7-7.66-5.19-7.86,14.67,10,16.17,19.22c0,0,7.06-5.82,5.63-11s-26-18-14-15.49,16.11,13.71,16.11,13.71,6-11.45,1.17-15.29-30.37-6.24-18.44-8S164.93-33.7,164.93-33.7ZM126.69-32c0,.82-1.54,1-2.51,0s.42-2.28.42-2.28C125.94-34.95,126.69-32.81,126.69-32Zm2.67,9.37s-1.34,2.14-2.51.27-2.73-2.94-1.39-3.58,4,0,4.33,1A3.3,3.3,0,0,1,129.36-22.61Zm9-5.87a6.14,6.14,0,0,1-4.23-.38s-1.65-.59.38-1.76,5.93-2.57,5.93-1.36S140.69-29.13,138.34-28.48Z" transform="translate(3.19 56.11)"/><path class="e" d="M119.65-1.82A2.62,2.62,0,0,0,117.34-3c-2.24,3.39-4.2,6.48-4.5,7.91-.88,4.25,6.3,7.77,6.51,7.88a6.91,6.91,0,0,1-.43-3.14c-.45-.64-1-2-.39-4.52C119.43,1.28,120.5-.17,119.65-1.82Z" transform="translate(3.19 56.11)"/><path class="f" d="M133.58-2.84c-.68-1.55-1.65-3.35-2.87-2.13-.86.86-2.2,2-3.4,2.95h0a101,101,0,0,1-4,11.66l.07,0c1.7-.75,4.41-2.21,5.16-4.2,1.12-3,1.4-3.25,1.4-5.38,0-1.72,2.73,2.68,4.48,4.27C133.62,1.29,133.07-1.69,133.58-2.84Z" transform="translate(3.19 56.11)"/><path class="f" d="M122.27-10.5c-1.42,2.3-3.26,5-4.93,7.53a2.62,2.62,0,0,1,2.31,1.16c.85,1.65-.22,3.1-1.13,7-.59,2.52,0,3.88.4,4.52A28.37,28.37,0,0,1,123-3.3a15.32,15.32,0,0,1,.3-1.61C124-8.1,123.94-9.34,122.27-10.5Z" transform="translate(3.19 56.11)"/><path class="f" d="M120.37-19.15a5.78,5.78,0,0,0-.57-2.57c-3.58,1.26-7.38,6.33-10.15,10.77,1.08.17,2.84,1,2,4.78A10,10,0,0,0,112,.14a50.91,50.91,0,0,1,4.3-9A2.32,2.32,0,0,1,114.76-12C115.72-14.82,120.37-17,120.37-19.15Z" transform="translate(3.19 56.11)"/><path class="f" d="M113.82-27.47c-2.95,2.18-6.82,4.87-9.65,7.15.13,1.33,2.27,1.81,3.47.61s2-1,2.92,2.72a2.26,2.26,0,0,1,.08.44c1.18-1.17,2.39-2.31,3.56-3.35v-1.66C114.2-24.68,114.28-26.68,113.82-27.47Z" transform="translate(3.19 56.11)"/><path class="f" d="M117.3-34.89c-.63-1.13-2.32-1.76-3.33-2A53.89,53.89,0,0,1,108-34.43c.17,1.18-1.2,3.59-4.47,7.13s-3.75,6.35-3.64,7.7c1.63-2.18,5.2-5.06,8.77-7.44a11.1,11.1,0,0,1,1.6-3.31C112.11-32.86,118.2-33.23,117.3-34.89Z" transform="translate(3.19 56.11)"/><path class="f" d="M116.22-44.66a13.85,13.85,0,0,1-2.61-.16c.2,1.44-2.41,3.3-7.35,4.15-5.9,1-6.82,5.21-6.91,5.73C100-38.28,108.2-39,113-38.5a7.38,7.38,0,0,0,2.88-2.73C116.91-43,116.67-44,116.22-44.66Z" transform="translate(3.19 56.11)"/><path class="f" d="M148.76,9a29.45,29.45,0,0,0-1.38-8.8,70.39,70.39,0,0,1-2.6-14.12l-.36-.22a16.91,16.91,0,0,1-2.86-2.09c1.45,3.06.15,7.05-.63,8.94,3.37,4.8,7,13.57,6.22,17.46A17.58,17.58,0,0,0,148.76,9Z" transform="translate(3.19 56.11)"/><path class="f" d="M151.06-16.59c-3.1-3.09-3.42-6.83-2.12-7.88a32.63,32.63,0,0,1-4.81-4,13.41,13.41,0,0,0,1.16,6.8,5.28,5.28,0,0,1,.49,4.15,41.88,41.88,0,0,1,6.62,7.68A6.17,6.17,0,0,0,151.06-16.59Z" transform="translate(3.19 56.11)"/><path class="f" d="M158.38-22.85a25.07,25.07,0,0,0-.9-3.7c-.75-2-3.69-6.09-6.63-6.95a10.24,10.24,0,0,1-4-2.59,29.9,29.9,0,0,1-2.9-.85c.4,1,1.25,3.08,2.3,5.31a10,10,0,0,0,2.18,2.7A21.7,21.7,0,0,1,158.38-22.85Z" transform="translate(3.19 56.11)"/><path class="f" d="M165.11-34.34h0c-.79-3.3-2.72-9.3-6.35-9.73-5-.58-8.8-.05-9.83-1.08-1.28.18-2.45.32-3.42.39-3.82,1.83-1.63,4,2,5.79h0a23.55,23.55,0,0,1,17.47,5.29S165-33.93,165.11-34.34Z" transform="translate(3.19 56.11)"/><path class="e" d="M111.63-6.18c.86-3.78-.9-4.61-2-4.78-1.52,2.43-2.72,4.68-3.4,6-1.92,3.77,4.8,9,4.8,9a11.19,11.19,0,0,1,.92-4A10.09,10.09,0,0,1,111.63-6.18Z" transform="translate(3.19 56.11)"/><path class="e" d="M110.64-16.56a2.24,2.24,0,0,0-.07-.44c-1-3.69-1.58-4.07-2.92-2.72-1.21,1.2-3.35.72-3.48-.61a16.47,16.47,0,0,0-3.67,3.59c-2,3.71,2.74,10.9,2.74,10.9C103-8.14,106.6-12.54,110.64-16.56Z" transform="translate(3.19 56.11)"/><path class="e" d="M108-34.45c-3.75,1.43-7.91,2.94-9.52,4-3.64,2.39.48,13,.48,13a3.54,3.54,0,0,1,.92-2.12h0c-.11-1.35.26-4,3.65-7.7S108.2-33.27,108-34.45Z" transform="translate(3.19 56.11)"/><path class="e" d="M113.61-44.83,112.22-45C98.38-47.44,99.34-34.9,99.34-34.9v-.05c.09-.52,1-4.72,6.91-5.73C111.2-41.53,113.81-43.39,113.61-44.83Z" transform="translate(3.19 56.11)"/><path class="e" d="M129.42-47.3c-.53-2.29-2.46-5.39-7.87-7.2a11.09,11.09,0,0,0-13.16,4.11c.43-.36,1.29-.31,2.35,0h0c4.54,0,14.13.28,16.15,1.93A4,4,0,0,0,129.42-47.3Z" transform="translate(3.19 56.11)"/><path class="e" d="M153.73-1.52s-3.83-9.08-8.95-12.37A71.21,71.21,0,0,0,147.38.23,29.85,29.85,0,0,1,148.77,9C151.27,7.05,155.6,2.82,153.73-1.52Z" transform="translate(3.19 56.11)"/><path class="e" d="M161-13.79c-.72-2.62-7.26-7.15-12.08-10.69-1.3,1.05-1,4.78,2.12,7.88a6.18,6.18,0,0,1,1.33,6.78,18.91,18.91,0,0,1,3,7.07S162.47-8.58,161-13.79Z" transform="translate(3.19 56.11)"/><path class="e" d="M164.32-30.86c-2.74-2.16-12-3.86-17.46-5.24a10.13,10.13,0,0,0,4,2.59c2.94.86,5.88,4.92,6.63,7a24.77,24.77,0,0,1,.9,3.7h0a24.11,24.11,0,0,1,4.77,7.29S169.19-27,164.32-30.86Z" transform="translate(3.19 56.11)"/><path class="e" d="M162.26-46.19c-2.86-.62-8.77.39-13.33,1,1,1,4.81.49,9.83,1.08,3.63.42,5.56,6.43,6.35,9.73C165.7-36.78,167.35-45.1,162.26-46.19Z" transform="translate(3.19 56.11)"/><path class="e" d="M162.77-47.43c-.28-.33-11.24-12.9-23-7.2a13.09,13.09,0,0,0-2.89,1.92c1.27.45,3.85.41,7.53.41s4.62,1.75,4.7,3.17C155.54-50.47,162.53-47.53,162.77-47.43Z" transform="translate(3.19 56.11)"/><path class="f" d="M129.59-45.88a5.87,5.87,0,0,0-.17-1.42,4.1,4.1,0,0,1-2.5-1.17c-2-1.65-11.59-1.9-16.12-1.93a18.13,18.13,0,0,1,4.73,2.27,14.25,14.25,0,0,1,3.74.83c2.73,1,6.72,2.34,8.5,2.19A2.41,2.41,0,0,0,129.59-45.88Z" transform="translate(3.19 56.11)"/><path class="f" d="M149.17-49.14c-.09-1.41-1-3.16-4.71-3.16s-6.26,0-7.52-.41h0a13.44,13.44,0,0,0-1.82,1.95,11.17,11.17,0,0,0,3.4.45c4,0,6.91,1.25,7.85,2.09A13.55,13.55,0,0,1,149.17-49.14Z" transform="translate(3.19 56.11)"/><path class="e" d="M143.76,3.15A52.57,52.57,0,0,0,140.25-3l.53,2.37a10.69,10.69,0,0,1,.36,4.11,25.42,25.42,0,0,1-1.21,3.31q.18.57.33,1.14a15.92,15.92,0,0,1,.62,5.27S147.72,11.53,143.76,3.15Z" transform="translate(3.19 56.11)"/><path class="f" d="M140.77-.71c-.12-.57-.49-2.2-.53-2.37-.61-.94-1.2-1.8-1.72-2.57l-.2-.29a13.8,13.8,0,0,0-.58,2.53c-.11.6-.22,1.31-.36,2.15-.09.56-.18,1-.27,1.42a34.78,34.78,0,0,1,2.94,7l-.12-.42a25.42,25.42,0,0,0,1.21-3.31A10.61,10.61,0,0,0,140.77-.71Z" transform="translate(3.19 56.11)"/><path class="e" d="M137,12.41s-1.28-3.54-2.32-7.26c-.07-.28-.15-.57-.23-.85C132.67,2.71,130-1.69,130,0c0,2.12-.28,2.4-1.4,5.37-.76,2-3.47,3.46-5.16,4.21l-.08,0h0c-1,2.54-1.79,4.33-1.79,4.33s.58-.55,4.42,1.3,3.9,3.64,3.9,3.64S132.29,14.16,137,12.41Z" transform="translate(3.19 56.11)"/><path class="f" d="M138.76-47.77c-.34-.78-3.06-.71-4.86-1.15a13.32,13.32,0,0,0-1.18,3c-.09.35-.19.72-.29,1.13,0,0-.34,1.71-1.82,1.26h0a1.6,1.6,0,0,1-1.06-1.73,5.82,5.82,0,0,0-.13-2.05,4.05,4.05,0,0,1-2.5-1.17,6.57,6.57,0,0,0-2.56-1,4.35,4.35,0,0,0-.56,3.64c.74,3.88-5.89,4.56-4.86,6.64.3.63,5.52,2,6.55,3,3.38,3.38,2.56,6.93,1.44,8.05a2.94,2.94,0,0,0-.85,2c1.4-.27,3.39.28,3.71,1.16a3.3,3.3,0,0,1-.43,2.35,3.08,3.08,0,0,1-.47.56c.52.84-3,8.68-2,10.75,1.19,2.44,5-1.85,5.57-3,1.68-3.6,6.92,2.31,6.93,1.3,0-3-5.65-10-5.65-11.83,0-2.34.64-2,1.18-3.75a4.35,4.35,0,0,1-.8-.31s-1.66-.59.37-1.76a16.52,16.52,0,0,1,1.88-.92,11.31,11.31,0,0,0,.17-2.31c0-4.17-1.28-5.37,0-8.66S139.24-46.65,138.76-47.77Z" transform="translate(3.19 56.11)"/><path class="g" d="M130.33-43.46c.36,2.14.61,4.32.81,6.5s.35,4.36.43,6.55c.19,4.37.15,8.76,0,13.13S131-8.53,130.7-4.15l-.49,6.56L130,5.69c-.07,1.09-.16,2.18-.16,3.28,0-1.1.11-2.19.2-3.28l.3-3.28.57-6.55c.36-4.37.7-8.74,1-13.12s.35-8.78.21-13.17c-.05-2.2-.18-4.39-.35-6.58s-.4-4.38-.74-6.56Z" transform="translate(3.19 56.11)"/><path class="g" d="M131-7.6a6,6,0,0,1,1.77.68c.28.15.55.33.82.5s.54.37.79.58a17,17,0,0,1,2.73,2.76c.43.5.78,1,1.17,1.57s.7,1.1,1,1.65.64,1.14.95,1.72l.85,1.76-.82-1.78c-.29-.58-.6-1.16-.91-1.74s-.66-1.13-1-1.68-.73-1.09-1.14-1.6A17.83,17.83,0,0,0,134.55-6c-.25-.22-.53-.4-.79-.6s-.55-.37-.84-.53a6.39,6.39,0,0,0-1.86-.76Z" transform="translate(3.19 56.11)"/><path class="g" d="M131.39-13.77a14.79,14.79,0,0,0-2.34,1.29l-.55.38-.53.39c-.36.26-.69.55-1,.83a29.53,29.53,0,0,0-3.68,3.82l-.8,1c-.27.35-.5.73-.75,1.09-.52.72-.95,1.49-1.4,2.24-.24.38-.43.77-.63,1.16l-.61,1.18c-.38.8-.72,1.61-1.09,2.41.38-.8.74-1.6,1.12-2.39l.63-1.17c.21-.38.41-.78.65-1.15.46-.74.9-1.51,1.42-2.21.26-.36.5-.73.77-1.08l.82-1a28.35,28.35,0,0,1,3.7-3.73c.34-.27.67-.56,1-.81l.53-.38.55-.36a13.28,13.28,0,0,1,2.29-1.22Z" transform="translate(3.19 56.11)"/><path class="g" d="M131.63-18a54.51,54.51,0,0,1,4.94,2.9,49.27,49.27,0,0,1,4.6,3.41,30.92,30.92,0,0,1,4.06,4,15.91,15.91,0,0,1,2.87,4.94,16.18,16.18,0,0,0-2.8-5,31.15,31.15,0,0,0-4-4.1,49.83,49.83,0,0,0-4.58-3.49,54.63,54.63,0,0,0-4.92-3Z" transform="translate(3.19 56.11)"/><path class="g" d="M131.84-20.36a13.74,13.74,0,0,0-3.14,0,18.68,18.68,0,0,0-3.07.58A20.6,20.6,0,0,0,120-17.22a25.28,25.28,0,0,0-2.49,1.87,24.06,24.06,0,0,0-2.22,2.18,31.15,31.15,0,0,0-3.7,5,31.11,31.11,0,0,1,3.76-4.94,26.68,26.68,0,0,1,2.24-2.14,26.14,26.14,0,0,1,2.5-1.82,20.28,20.28,0,0,1,5.64-2.48,19.53,19.53,0,0,1,3-.53,14.22,14.22,0,0,1,3.06,0Z" transform="translate(3.19 56.11)"/><path class="g" d="M131.88-27.93a37.39,37.39,0,0,1,6.58,2,43.65,43.65,0,0,1,6.19,3c.24.15.5.28.74.43l.73.47c.47.32,1,.61,1.44.95.92.67,1.87,1.33,2.74,2.08l.67.55c.22.18.44.36.65.56l1.26,1.18c.43.38.82.81,1.21,1.23l1.18,1.26-1.16-1.27c-.39-.43-.77-.86-1.2-1.25l-1.25-1.19c-.21-.2-.42-.39-.65-.57l-.66-.56c-.86-.76-1.8-1.43-2.73-2.12-.46-.35-1-.64-1.43-1l-.72-.48-.74-.44a43.46,43.46,0,0,0-6.18-3.09,37.08,37.08,0,0,0-6.62-2.06Z" transform="translate(3.19 56.11)"/><path class="g" d="M131.58-31a61.55,61.55,0,0,0-6.26,1.7q-3.07,1-6,2.31a50.44,50.44,0,0,0-5.73,3A34.42,34.42,0,0,0,108.41-20a35.36,35.36,0,0,1,5.17-3.87,50.34,50.34,0,0,1,5.76-2.94q3-1.26,6.06-2.23a64.18,64.18,0,0,1,6.24-1.61Z" transform="translate(3.19 56.11)"/><path class="g" d="M131.6-34.79c2.27.16,4.54.4,6.8.67s4.52.61,6.77,1a66.18,66.18,0,0,1,6.66,1.53,33.19,33.19,0,0,1,3.23,1.1,15.58,15.58,0,0,1,3,1.6,14.76,14.76,0,0,0-3-1.63,31,31,0,0,0-3.23-1.15,65.7,65.7,0,0,0-6.65-1.61c-2.25-.44-4.5-.8-6.76-1.1s-4.54-.57-6.82-.76Z" transform="translate(3.19 56.11)"/><path class="g" d="M131.22-37.43c-2.49.25-5,.6-7.41,1s-4.89.94-7.3,1.56a58.92,58.92,0,0,0-7.11,2.3A34.53,34.53,0,0,0,106-30.95a18.62,18.62,0,0,0-3.09,2.09,18,18,0,0,1,3.11-2.05,31.37,31.37,0,0,1,3.38-1.56,59.21,59.21,0,0,1,7.12-2.21c2.41-.59,4.85-1.08,7.3-1.48s4.92-.73,7.39-1Z" transform="translate(3.19 56.11)"/><path class="g" d="M131.07-40q-5.47-1-11-1.66c-1.85-.21-3.7-.36-5.55-.44l-1.4,0-1.39,0c-.46,0-.93.07-1.39.11a5.46,5.46,0,0,0-.69.1l-.68.13.68-.12a5.43,5.43,0,0,1,.69-.09c.47,0,.93-.09,1.39-.09h1.39l1.39.06c1.85.1,3.7.28,5.54.52,3.68.47,7.35,1.08,11,1.81Z" transform="translate(3.19 56.11)"/><path class="g" d="M131.3-38.57c3.45-.87,6.93-1.67,10.42-2.36,1.75-.35,3.5-.67,5.27-.92.88-.12,1.76-.23,2.65-.3a12.54,12.54,0,0,1,2.67,0,12.54,12.54,0,0,0-2.67-.06c-.89.06-1.78.15-2.66.26-1.77.23-3.53.52-5.29.84-3.51.65-7,1.39-10.47,2.21Z" transform="translate(3.19 56.11)"/><path class="g" d="M131.15-41.16c1.7-1.61,3.42-3.18,5.2-4.7.89-.76,1.79-1.5,2.72-2.21.47-.35.94-.69,1.43-1a8.31,8.31,0,0,1,.76-.44,2.38,2.38,0,0,1,.83-.27,2.28,2.28,0,0,0-.84.26,6.43,6.43,0,0,0-.77.42c-.5.3-1,.63-1.46,1-1,.68-1.87,1.41-2.77,2.15-1.82,1.48-3.58,3-5.32,4.58Z" transform="translate(3.19 56.11)"/><path class="g" d="M130.93-41.81q-2.3-1.44-4.65-2.79c-.78-.44-1.57-.88-2.38-1.29-.4-.21-.81-.41-1.22-.59-.21-.09-.42-.18-.63-.25a3.72,3.72,0,0,0-.65-.19,3.43,3.43,0,0,1,.64.21,4.85,4.85,0,0,1,.62.27c.41.19.81.4,1.2.62.79.43,1.57.89,2.34,1.36,1.54.94,3.06,1.92,4.56,2.92Z" transform="translate(3.19 56.11)"/><g class="h"><path class="e" d="M112.5,84.42c13.78,4-16.71,2.55-23.1,6.26s-1.22,18.23-1.22,18.23,6.75-12.48,21.33-13.44-16.54,10-19.13,15.9,4.76,14,4.76,14c3.34-10.58,20.2-20.5,22.35-19.94s-.69,5.65-7.46,8.4-13.11,13.28-13.11,13.28c-4,6.6,5.77,14.94,5.77,14.94-.39-6.74,11.51-23.6,15.35-22.8s-4.06,5.85-10.15,15.07,1.7,12.32,1.7,12.32c.36-7.69,10.31-21,11.32-17.73s-6.58,17.48-6.58,17.48c5.22,2.85,7.31,8.87,7.31,8.87s.38-2.09,5.22-3.62,5.44-.79,5.44-.79-8-29.13-2.07-24.9,7.29,20.45,4.82,23.89c0,0,9.34-2.95,9-8.2s-15.89-30.76-8.72-26.67,11.8,23.57,11,26c0,0,8.82-5.09,7.19-9.87s-6.94-18.91-13.16-22.11-3-5.12-.84-4.25,19.14,20.21,17.71,25.82c0,0,6.81-7.69,5.09-12.39S140.24,97,144.51,97.77s20.62,15.6,19.69,19.76c0,0,6.65-11.76,2.77-15.21s-22.66-11.76-17.27-12,17,2.1,17.05,6.58c0,0,3.26-14.64-13.48-14.16s3.09-8.31,5.43-5.66A13.24,13.24,0,0,0,143.87,70c-9.08,1.66-11,7.21-11,9.57a1.9,1.9,0,0,1-1.55,1.85h0c-1.81.28-1.92-1.8-1.92-1.8q-.07-.74-.15-1.38a16,16,0,0,0-6.87-11.49C109.32,58,94,71.39,94,71.39s14.23-3.84,21.7,3.61-14-2.57-21.31-2.07-5.27,14.29-5.27,14.29S98.72,80.38,112.5,84.42Zm24.33,9s1.43,1.77.12,2.76-3.11.55-3-.43S135.37,92.36,136.83,93.4Zm-7.69,10.1c.61-1.14,3.8-1.39,5.27-.41s-.55,2-2.25,4-2.92-.74-2.92-.74A3.88,3.88,0,0,1,129.14,103.5ZM117.78,93.4c.21-1.42,4.57.88,6.77,2.62s.14,2.14.14,2.14a7.32,7.32,0,0,1-5-.27C117,96.73,117.58,94.82,117.78,93.4Z" transform="translate(3.19 56.11)"/></g><path class="d" d="M111.6,82.29c13.78,4-16.71,2.56-23.11,6.26s-1.21,18.23-1.21,18.23S94,94.3,108.61,93.34s-16.55,10-19.13,15.9,4.76,14,4.76,14c3.34-10.58,20.2-20.5,22.35-19.94s-.69,5.65-7.46,8.4S96,125,96,125c-4,6.6,5.77,15,5.77,15-.39-6.75,11.51-23.61,15.35-22.81S113.08,123,107,132.17s1.7,12.32,1.7,12.32c.36-7.69,10.3-21,11.32-17.73s-6.58,17.48-6.58,17.48c5.22,2.86,7.31,8.87,7.31,8.87s.38-2.09,5.22-3.62,5.44-.79,5.44-.79-8-29.13-2.08-24.9,7.3,20.45,4.83,23.89c0,0,9.34-2.95,9-8.19s-15.89-30.77-8.72-26.68,11.8,23.57,11,26c0,0,8.82-5.09,7.19-9.87s-6.94-18.91-13.16-22.11-3-5.12-.84-4.25,19.14,20.21,17.71,25.82c0,0,6.8-7.69,5.09-12.39s-22.06-21.16-17.79-20.39,20.62,15.6,19.69,19.76c0,0,6.65-11.76,2.77-15.21s-22.66-11.76-17.27-12,16.95,2.1,17,6.58c0,0,3.26-14.64-13.48-14.16s3.09-8.3,5.43-5.66A13.24,13.24,0,0,0,143,67.9c-9.08,1.67-11,7.21-11,9.57a1.88,1.88,0,0,1-1.54,1.85h0c-1.81.28-1.93-1.8-1.93-1.8-.05-.49-.09-1-.14-1.38a16,16,0,0,0-6.87-11.49c-13-8.82-28.31,4.61-28.31,4.61s14.24-3.84,21.71,3.61-14-2.57-21.31-2.07-5.27,14.29-5.27,14.29S97.82,78.25,111.6,82.29Zm24.33,9s1.43,1.76.12,2.75-3.11.55-3-.43S134.47,90.23,135.93,91.28Zm-7.69,10.09c.61-1.14,3.8-1.39,5.26-.41s-.54,2-2.24,4-2.92-.74-2.92-.74A3.88,3.88,0,0,1,128.24,101.37Zm-11.36-10.1c.2-1.42,4.57.88,6.77,2.62s.14,2.14.14,2.14a7.32,7.32,0,0,1-5-.27C116.08,94.6,116.68,92.69,116.88,91.27Z" transform="translate(3.19 56.11)"/><path class="e" d="M136.27,130.38a3.17,3.17,0,0,1,2.92-1c2.08,4.39,3.86,8.36,4,10.1.31,5.17-8.75,8.11-9,8.19a8.2,8.2,0,0,0,1-3.62c.64-.68,1.5-2.19,1.24-5.27C136,134.08,135,132.19,136.27,130.38Z" transform="translate(3.19 56.11)"/><path class="f" d="M120,126.82c1.06-1.72,2.51-3.67,3.75-2,.87,1.16,2.26,2.71,3.51,4.06h0A118,118,0,0,0,130,143.3l-.08-.05c-1.88-1.17-4.83-3.36-5.38-5.84-.82-3.69-1.1-4.06-.74-6.57.29-2-3.67,2.7-6,4.28C119.26,131.69,120.42,128.27,120,126.82Z" transform="translate(3.19 56.11)"/><path class="f" d="M134.65,119.69c1.29,3,3,6.46,4.54,9.73a3.14,3.14,0,0,0-2.92,1c-1.29,1.81-.27,3.7.15,8.42.26,3.08-.6,4.59-1.24,5.27a33.67,33.67,0,0,0-2.62-16,17.46,17.46,0,0,0-.08-1.95C132.17,122.23,132.49,120.78,134.65,119.69Z" transform="translate(3.19 56.11)"/><path class="f" d="M138.36,109.82a7.05,7.05,0,0,1,1.1-2.94c4,2.09,7.65,8.72,10.15,14.43-1.29,0-3.51.7-3.14,5.31A11.93,11.93,0,0,1,145,134a60.68,60.68,0,0,0-3.54-11.41c1.21-.33,2.72-1.18,2.32-3.36C143.11,115.71,138,112.37,138.36,109.82Z" transform="translate(3.19 56.11)"/><path class="f" d="M147.49,101.11c3.12,3.07,7.23,6.91,10.19,10.07-.39,1.55-3,1.75-4.21.13-1.36-1.82-2.15-1.47-3.91,2.72a2.76,2.76,0,0,0-.16.51c-1.19-1.58-2.43-3.13-3.63-4.56l.28-2C146.58,104.34,146.82,102,147.49,101.11Z" transform="translate(3.19 56.11)"/><path class="f" d="M144.66,91.77c.93-1.24,3-1.69,4.27-1.86a63.26,63.26,0,0,0,6.58,4c-.4,1.37.81,4.45,4.06,9.18,3.37,4.9,3.36,8.13,3,9.71-1.56-2.85-5.29-6.85-9.1-10.27a12.63,12.63,0,0,0-1.32-4.18C150.43,95,143.3,93.57,144.66,91.77Z" transform="translate(3.19 56.11)"/><path class="f" d="M147.59,80.43a19.27,19.27,0,0,0,3.1.25c-.48,1.66,2.29,4.3,8,6.13,6.78,2.2,7.16,7.31,7.18,7.94-.19-4-9.75-6.31-15.5-6.51a8.86,8.86,0,0,1-2.94-3.71C146.49,82.28,146.94,81.07,147.59,80.43Z" transform="translate(3.19 56.11)"/><path class="f" d="M100.08,138.26a34.74,34.74,0,0,1,3.13-10.14,85.08,85.08,0,0,0,5.46-16.23l.46-.2a20.05,20.05,0,0,0,3.73-2c-2.24,3.36-1.38,8.29-.77,10.65-4.8,5.1-10.58,14.82-10.3,19.55A23.77,23.77,0,0,1,100.08,138.26Z" transform="translate(3.19 56.11)"/><path class="f" d="M101.71,107.64c4.18-3.13,5.2-7.49,3.84-9a38.59,38.59,0,0,0,6.35-3.86,16,16,0,0,1-2.52,7.82,6.3,6.3,0,0,0-1.28,4.82A49.79,49.79,0,0,0,99,115.41,7.36,7.36,0,0,1,101.71,107.64Z" transform="translate(3.19 56.11)"/><path class="f" d="M94.14,99a30.39,30.39,0,0,1,1.69-4.22c1.23-2.27,5.39-6.56,9-7.07A12.08,12.08,0,0,0,110,85.34a33.54,33.54,0,0,0,3.58-.52c-.65,1.14-2,3.43-3.63,5.88a11.4,11.4,0,0,1-3,2.82A25.74,25.74,0,0,0,94.14,99Z" transform="translate(3.19 56.11)"/><path class="f" d="M88.15,84.3h0c1.49-3.76,4.79-10.52,9.14-10.4,6,.16,10.39,1.43,11.79.38,1.47.43,2.83.8,4,1,4.19,2.81,1.26,5-3.29,6.49h0C97,78.87,88.24,85.1,88.24,85.1S88.2,84.81,88.15,84.3Z" transform="translate(3.19 56.11)"/><path class="e" d="M146.47,126.6c-.37-4.61,1.85-5.29,3.14-5.31,1.37,3.13,2.41,6,3,7.68,1.62,4.77-7.2,9.86-7.2,9.86A13.32,13.32,0,0,0,145,134,12,12,0,0,0,146.47,126.6Z" transform="translate(3.19 56.11)"/><path class="e" d="M149.4,114.52a2.91,2.91,0,0,1,.16-.5c1.76-4.19,2.55-4.54,3.91-2.72,1.21,1.62,3.82,1.42,4.21-.13a19.3,19.3,0,0,1,3.71,4.86c1.72,4.71-5.08,12.4-5.08,12.4C157,125.75,153.48,120,149.4,114.52Z" transform="translate(3.19 56.11)"/><path class="e" d="M155.5,93.86c4.18,2.31,8.84,4.81,10.56,6.34,3.88,3.44-2.76,15.2-2.76,15.2a4.26,4.26,0,0,0-.73-2.65h0c.36-1.58.37-4.8-3-9.71C156.32,98.31,155.11,95.22,155.5,93.86Z" transform="translate(3.19 56.11)"/><path class="e" d="M150.69,80.66c.51,0,1.07,0,1.67,0,16.75-.49,13.48,14.15,13.48,14.15v-.07c0-.63-.4-5.73-7.19-7.93C153,85,150.2,82.33,150.69,80.66Z" transform="translate(3.19 56.11)"/><path class="e" d="M132.45,75.06c1-2.61,3.83-5.93,10.52-7.16A13.24,13.24,0,0,1,157.79,75c-.44-.49-1.46-.58-2.77-.4h0c-5.35-.74-16.71-2.07-19.37-.46A4.77,4.77,0,0,1,132.45,75.06Z" transform="translate(3.19 56.11)"/><path class="e" d="M96,125s6.06-10.07,12.65-13.08a84.27,84.27,0,0,1-5.46,16.23,35,35,0,0,0-3.12,10.14C97.46,135.49,93.07,129.76,96,125Z" transform="translate(3.19 56.11)"/><path class="e" d="M89.48,109.25c1.29-3,9.78-7.2,16.07-10.57,1.35,1.46.34,5.81-3.84,8.94A7.38,7.38,0,0,0,99,115.4a22.57,22.57,0,0,0-4.74,7.82S86.89,115.15,89.48,109.25Z" transform="translate(3.19 56.11)"/><path class="e" d="M88.49,88.55c3.6-2.08,14.82-2.52,21.49-3.23a12,12,0,0,1-5.15,2.38c-3.61.52-7.77,4.81-9,7.08A29.05,29.05,0,0,0,94.14,99h0a28.41,28.41,0,0,0-6.86,7.79S82.1,92.26,88.49,88.55Z" transform="translate(3.19 56.11)"/><path class="e" d="M93.51,70.8c3.5-.24,10.29,2,15.57,3.47-1.4,1-5.76-.23-11.79-.39-4.36-.12-7.65,6.65-9.14,10.41C87.86,81.33,87.33,71.23,93.51,70.8Z" transform="translate(3.19 56.11)"/><path class="e" d="M93.13,69.26c.38-.34,15.45-13.32,28.29-4.61a15.69,15.69,0,0,1,3.09,2.76c-1.57.32-4.61-.17-9-.79s-5.75,1.28-6.09,2.94C102.18,66.9,93.42,69.18,93.13,69.26Z" transform="translate(3.19 56.11)"/><path class="f" d="M132,76.72a7.54,7.54,0,0,1,.44-1.65,4.81,4.81,0,0,0,3.15-1c2.66-1.6,14-.28,19.36.46a21.53,21.53,0,0,0-6,1.88,16.88,16.88,0,0,0-4.55.34c-3.39.71-8.32,1.62-10.4,1.15A3,3,0,0,1,132,76.72Z" transform="translate(3.19 56.11)"/><path class="f" d="M109.47,69.55c.34-1.66,1.67-3.57,6.09-2.93s7.38,1.11,8.94.79h0A15.64,15.64,0,0,1,126.33,70a13.63,13.63,0,0,1-4.09,0c-4.67-.68-8.36.29-9.62,1.13A15.62,15.62,0,0,0,109.47,69.55Z" transform="translate(3.19 56.11)"/><path class="e" d="M107,132.17a61.3,61.3,0,0,1,5.18-6.7l-1,2.72c-.26.69-1.27,3.08-1.12,4.78a30.51,30.51,0,0,0,.86,4.11q-.3.64-.57,1.29a18.72,18.72,0,0,0-1.63,6.11S100.89,141.38,107,132.17Z" transform="translate(3.19 56.11)"/><path class="f" d="M111.16,128.11c.24-.65,1-2.51,1-2.7.88-1,1.72-1.92,2.47-2.74l.29-.31a17.91,17.91,0,0,1,.25,3.08c0,.73,0,1.59.06,2.6a16.71,16.71,0,0,0,.08,1.72,40.92,40.92,0,0,0-4.65,7.72l.21-.47a28.93,28.93,0,0,1-.86-4.11C109.89,131.2,110.9,128.8,111.16,128.11Z" transform="translate(3.19 56.11)"/><path class="e" d="M113.42,144.24s2.12-4,4-8.18c.14-.32.28-.64.41-1,2.34-1.58,6.3-6.31,6-4.28-.36,2.51-.08,2.89.74,6.58.55,2.47,3.5,4.67,5.37,5.84l.09,0h0c.76,3.16,1.38,5.41,1.38,5.41s-.59-.74-5.43.79-5.23,3.62-5.23,3.62S118.64,147.1,113.42,144.24Z" transform="translate(3.19 56.11)"/><path class="f" d="M121.52,72.93c.52-.86,3.72-.32,5.92-.54a16.32,16.32,0,0,1,.88,3.79q.08.64.15,1.38s.12,2.08,1.93,1.8h0A1.88,1.88,0,0,0,132,77.5a6.75,6.75,0,0,1,.51-2.4,4.81,4.81,0,0,0,3.15-.95,7.79,7.79,0,0,1,3.17-.7,5.18,5.18,0,0,1,.05,4.39c-1.53,4.45,6.17,6.38,4.61,8.66-.47.69-6.85,1.41-8.24,2.45-4.56,3.42-4.19,7.74-3.06,9.26a3.48,3.48,0,0,1,.66,2.46c-1.6-.57-4-.24-4.57.73a3.94,3.94,0,0,0,.11,2.85,3.57,3.57,0,0,0,.46.74c-.75.9,2.07,10.76.54,13-1.82,2.67-5.64-3-6.07-4.46-1.38-4.53-8.56,1.55-8.4.37.45-3.55,8.36-10.8,8.68-13,.39-2.76-.41-2.53-.76-4.63a5.44,5.44,0,0,0,1-.23s2.05-.41-.14-2.15a21.63,21.63,0,0,0-2.06-1.39,13.28,13.28,0,0,1,.18-2.76c.71-4.92,2.43-6.12,1.47-10.22S120.76,74.17,121.52,72.93Z" transform="translate(3.19 56.11)"/><path class="g" d="M130.74,79.44c-.8,2.47-1.46,5-2.07,7.53s-1.15,5.09-1.62,7.66c-1,5.13-1.66,10.31-2.16,15.5s-.89,10.42-1.27,15.63l-.52,7.82-.26,3.91c-.09,1.31-.18,2.61-.36,3.91.17-1.3.24-2.6.31-3.91l.21-3.91.43-7.83c.32-5.22.66-10.44,1.08-15.65s1.07-10.42,2-15.57c.44-2.59,1-5.15,1.53-7.71s1.21-5.09,2-7.62Z" transform="translate(3.19 56.11)"/><path class="g" d="M123.84,121.64a7.16,7.16,0,0,0-2.2.5c-.37.13-.72.3-1.07.45s-.69.34-1,.55a19.61,19.61,0,0,0-3.69,2.8c-.59.51-1.1,1.09-1.64,1.65s-1,1.18-1.52,1.77-.94,1.24-1.4,1.87L110,133.16l1.27-2c.45-.64.91-1.27,1.37-1.9s1-1.22,1.48-1.81,1-1.17,1.62-1.69a20.32,20.32,0,0,1,3.68-2.91c.33-.21.68-.38,1-.57s.71-.35,1.08-.49a7.75,7.75,0,0,1,2.32-.58Z" transform="translate(3.19 56.11)"/><path class="g" d="M124.44,114.3a16,16,0,0,1,2.54,1.92l.59.53.56.56c.38.36.72.77,1.08,1.16a33.76,33.76,0,0,1,3.69,5.12l.77,1.38c.26.45.47.94.7,1.41.49.93.87,1.91,1.27,2.88.21.48.37,1,.55,1.48l.52,1.49c.3,1,.58,2,.87,3-.31-1-.6-2-.92-3l-.54-1.48c-.18-.49-.35-1-.57-1.46-.42-1-.81-1.94-1.31-2.86-.24-.46-.45-.94-.72-1.39l-.79-1.36a34.12,34.12,0,0,0-3.73-5c-.36-.38-.7-.78-1.09-1.13l-.56-.55-.59-.51a15.7,15.7,0,0,0-2.5-1.83Z" transform="translate(3.19 56.11)"/><path class="g" d="M124.88,109.25a63.83,63.83,0,0,0-6.31,2.59,58.14,58.14,0,0,0-6,3.24,36.8,36.8,0,0,0-5.47,4.07,18.84,18.84,0,0,0-4.22,5.34,19,19,0,0,1,4.15-5.41,37.36,37.36,0,0,1,5.44-4.17,60.42,60.42,0,0,1,6-3.33,67.79,67.79,0,0,1,6.32-2.7Z" transform="translate(3.19 56.11)"/><path class="g" d="M125,106.44a16.44,16.44,0,0,1,3.71.53,21.91,21.91,0,0,1,3.53,1.2,24.7,24.7,0,0,1,6.25,4,31,31,0,0,1,2.62,2.63,30.62,30.62,0,0,1,2.25,2.95,37.48,37.48,0,0,1,3.51,6.51,37.06,37.06,0,0,0-3.59-6.46,30.28,30.28,0,0,0-2.28-2.9,29.23,29.23,0,0,0-2.64-2.58,24.16,24.16,0,0,0-6.24-3.88,23.72,23.72,0,0,0-3.49-1.14,16.56,16.56,0,0,0-3.62-.47Z" transform="translate(3.19 56.11)"/><path class="g" d="M126.27,97.51a44.26,44.26,0,0,0-8.09,1.2,52,52,0,0,0-7.82,2.51l-1,.38-.93.43c-.62.29-1.26.55-1.86.87-1.21.64-2.44,1.26-3.6,2l-.88.53a9,9,0,0,0-.86.56l-1.69,1.17c-.57.38-1.1.82-1.64,1.24l-1.6,1.29,1.59-1.3a19.66,19.66,0,0,1,1.62-1.27l1.68-1.19a9.85,9.85,0,0,1,.86-.57l.87-.54c1.15-.76,2.37-1.39,3.58-2,.61-.32,1.24-.59,1.86-.89l.93-.44,1-.4a51.22,51.22,0,0,1,7.82-2.6,43,43,0,0,1,8.15-1.31Z" transform="translate(3.19 56.11)"/><path class="g" d="M127.14,93.93a75.54,75.54,0,0,1,7.1,3.06c2.31,1.14,4.56,2.4,6.75,3.76a59.05,59.05,0,0,1,6.24,4.53,40.68,40.68,0,0,1,5.39,5.51,41.2,41.2,0,0,0-5.45-5.44,59.78,59.78,0,0,0-6.28-4.44q-3.3-2-6.78-3.66a73.14,73.14,0,0,0-7.09-3Z" transform="translate(3.19 56.11)"/><path class="g" d="M127.76,89.46c-2.71-.19-5.42-.3-8.14-.36s-5.44,0-8.15.06a78.65,78.65,0,0,0-8.12.67c-1.35.2-2.69.43-4,.76A18,18,0,0,0,95.52,92a17.83,17.83,0,0,1,3.81-1.42,39.35,39.35,0,0,1,4-.81,76.31,76.31,0,0,1,8.13-.77c2.72-.14,5.44-.18,8.16-.16s5.45.11,8.17.27Z" transform="translate(3.19 56.11)"/><path class="g" d="M128.66,86.4c2.89.72,5.74,1.56,8.56,2.48s5.62,1.94,8.36,3.08a67.93,67.93,0,0,1,8,3.92,36.58,36.58,0,0,1,3.71,2.45,21.75,21.75,0,0,1,3.3,3,22.11,22.11,0,0,0-3.32-2.95A37.77,37.77,0,0,0,153.52,96a69.14,69.14,0,0,0-8-3.82c-2.75-1.11-5.55-2.1-8.37-3s-5.69-1.69-8.56-2.37Z" transform="translate(3.19 56.11)"/><path class="g" d="M129.27,83.37c4.43-.18,8.86-.22,13.29-.09q3.31.1,6.63.43l1.65.19,1.64.27c.54.09,1.08.24,1.62.36a7.19,7.19,0,0,1,.79.24l.79.27-.79-.25a6.08,6.08,0,0,0-.8-.24c-.54-.11-1.08-.25-1.62-.33L150.83,84l-1.65-.18c-2.21-.19-4.42-.29-6.63-.33-4.42-.06-8.85,0-13.26.28Z" transform="translate(3.19 56.11)"/><path class="g" d="M128.76,85.05c-3.93-1.61-7.9-3.14-11.9-4.56-2-.7-4-1.37-6.06-2-1-.29-2-.57-3.08-.81a15.11,15.11,0,0,0-3.15-.42,14.6,14.6,0,0,1,3.16.38c1,.21,2.07.48,3.1.76,2,.56,4.08,1.21,6.09,1.88q6,2,12,4.39Z" transform="translate(3.19 56.11)"/><path class="g" d="M129.37,82c-1.72-2.18-3.5-4.33-5.33-6.42-.93-1-1.86-2.07-2.84-3.06-.49-.49-1-1-1.52-1.43a9.58,9.58,0,0,0-.82-.64,2.46,2.46,0,0,0-.93-.46,2.53,2.53,0,0,1,.94.44,10.1,10.1,0,0,1,.84.62c.54.44,1.05.92,1.55,1.4,1,1,2,2,2.92,3,1.89,2.06,3.71,4.17,5.49,6.31Z" transform="translate(3.19 56.11)"/><path class="g" d="M129.74,81.29c2-.87,3.95-1.71,6-2.5,1-.39,2-.78,3-1.13.51-.17,1-.34,1.54-.48.26-.07.52-.14.79-.19a4.28,4.28,0,0,1,.8-.11,4.31,4.31,0,0,0-.8.13,6.77,6.77,0,0,0-.77.22c-.52.15-1,.34-1.53.52-1,.38-2,.79-3,1.22-2,.84-3.93,1.74-5.87,2.67Z" transform="translate(3.19 56.11)"/><g class="h"><path class="e" d="M19.66,196.45s13.6-12.95,22.54-9C46.37,189.34,23,198.34,19.79,201c-3,2.44-.1,12.15.27,13.36-.4-2.09,9.51-13.61,20.16-17.42,10.89-3.89-15.55,23.69-15.55,23.69-.39,1,4.06,8.38,4.06,8.38-1.4-3.09,6.1-15.28,11.91-18,3-1.44,7.17-3.83-2,8.36S38,233.82,38,233.82c-1-4,5.81-17.6,7.42-17.44a.21.21,0,0,1,.11,0l-1.9,14.65c-.51,2.67-.83,4.57-.57,4.35l3.87,2.5s5.08-2,5.41-1.59c.66.81-4.88-17.86-3.27-17.7s7.54,13.28,5.78,17c0,0,8.89-.63,2.24-14.37s-6.78-14.53-3.9-12.81S66.94,229.92,65,232.68c0,0,5.81-6.38,5.61-7.44,0,0-21.32-33.77-11.39-27.84C68.91,203.21,77.11,218,76.31,220c.57-1.06,5.32-10.08,2.86-13.07-2.61-3.18-21.89-19.67-17.35-19.22s21.1,14.93,21.1,14.93.73-12.06-2.68-14.17S57.64,180.57,65,180s17.61,4.46,17.61,4.46-3.1-11.4-7.5-11.83-12.89,1.36-10-1,11.2-1.78,11.2-1.78-6.64-9.65-16-5.05c-8.43,4.14-6.68,10.88-6.68,10.88s-1.76,2.24-2.67-.44c.19-.29,3.63-5.75-3.65-11.3-8.29-6.33-24,3.88-24,3.88s16.24-1.76,18,2.34c1.48,3.39-8.31.82-12.73.81-10.4,0-6.91,10.28-6.91,10.28s10.06-6,17.18-4S22.4,182,18.64,183.41,19.66,196.45,19.66,196.45Zm36.56-11.09c.59.06,1,1,1.48,2a2.31,2.31,0,0,1,.35,1.52s-1.29,1.22-1.64,1.19-1.35-2.15-1.46-3.12A1.34,1.34,0,0,1,56.22,185.36Zm-4.13,8.84c1.07.1,1.76,1.82,2.68,3.56a3.36,3.36,0,0,1,.39,2.84,22.21,22.21,0,0,1-3.23.52c-.62-.06-1.93-2.35-2.13-4.09A2.43,2.43,0,0,1,52.09,194.2Zm-4.3-7.92c.1.42-.45.91-1,1.5a3.07,3.07,0,0,1-1.16.79,10.75,10.75,0,0,1-.52-1.15,2.86,2.86,0,0,1,1.28-1.62A1,1,0,0,1,47.79,186.28Zm-3-6.52a2.86,2.86,0,0,1,2.06.18,1,1,0,0,1,.35,1.43c-.29.31-1,.12-1.79,0a3.11,3.11,0,0,1-1.3-.54A11.29,11.29,0,0,1,44.76,179.76Z" transform="translate(3.19 56.11)"/></g><path class="d" d="M19.38,195S33,182,41.93,186c4.16,1.85-19.24,10.86-22.41,13.47-3,2.44-.11,12.16.26,13.36-.4-2.09,9.52-13.61,20.17-17.41,10.88-3.89-15.55,23.68-15.55,23.68-.4,1,4.06,8.38,4.06,8.38-1.4-3.09,6.09-15.28,11.91-18,3-1.43,7.17-3.83-2,8.36s-.59,14.53-.59,14.53c-1-4,5.82-17.6,7.43-17.44a.14.14,0,0,1,.1.05l-1.9,14.65c-.5,2.66-.82,4.56-.56,4.35l3.86,2.49s5.09-2,5.42-1.59c.66.81-4.89-17.85-3.28-17.7s7.54,13.28,5.79,17c0,0,8.88-.63,2.24-14.37S50.07,205.28,53,207s13.71,21.46,11.74,24.22c0,0,5.8-6.38,5.61-7.43,0,0-21.32-33.78-11.4-27.85,9.73,5.81,17.94,20.61,17.14,22.6.57-1,5.31-10.08,2.86-13.07C76.29,202.3,57,185.8,61.55,186.25s21.1,14.93,21.1,14.93S83.38,189.12,80,187s-22.59-7.9-15.21-8.51S82.36,183,82.36,183s-3.1-11.4-7.5-11.83-12.89,1.37-10-1S76,168.37,76,168.37s-6.63-9.65-16-5.05c-8.44,4.14-6.69,10.88-6.69,10.88s-1.75,2.24-2.67-.44c.19-.29,3.63-5.75-3.64-11.3-8.3-6.33-24,3.88-24,3.88s16.24-1.75,18,2.35c1.48,3.38-8.31.81-12.72.8-10.4,0-6.91,10.28-6.91,10.28s10.05-6,17.17-4S22.13,180.55,18.36,182,19.38,195,19.38,195ZM55.94,183.9c.6.06,1,1,1.48,2a2.29,2.29,0,0,1,.36,1.52s-1.3,1.23-1.64,1.19-1.36-2.15-1.47-3.11A1.35,1.35,0,0,1,55.94,183.9Zm-4.12,8.84c1.07.1,1.76,1.82,2.67,3.56a3.36,3.36,0,0,1,.4,2.85,22.63,22.63,0,0,1-3.24.51c-.62-.06-1.93-2.35-2.12-4.09A2.43,2.43,0,0,1,51.82,192.74Zm-4.31-7.92c.11.42-.45.91-1,1.5a3.06,3.06,0,0,1-1.17.79,11.78,11.78,0,0,1-.51-1.14c-.07-.25.65-1.32,1.28-1.63A1,1,0,0,1,47.51,184.82Zm-3-6.52a2.83,2.83,0,0,1,2.06.19,1,1,0,0,1,.35,1.42c-.29.32-1,.12-1.79,0a3,3,0,0,1-1.3-.54A11.29,11.29,0,0,1,44.49,178.3Z" transform="translate(3.19 56.11)"/><path class="e" d="M37.9,218.46s5-2.7,4-.29c-.55,1.45-1.52,3-1.42,3.29s.18.2.18.2c-1.87,4-3.45,8.63-2.93,10.7C37.77,232.36,29.47,230.1,37.9,218.46Z" transform="translate(3.19 56.11)"/><path class="e" d="M43.39,229.62l.25-2c.74-.71,2.22-5.93,2.1-4.73-.14,1.44,2,5.36,3.1,6.66s1.21,4.94,1.25,5.66c-1.54.48-3.4,1.21-3.4,1.21L42.82,234C42.56,234.18,42.89,232.28,43.39,229.62Z" transform="translate(3.19 56.11)"/><path class="e" d="M53.63,213c.83,1.79,1.9,4,3.23,6.77,6.64,13.74-2.24,14.36-2.24,14.36a8.11,8.11,0,0,0,0-4.6h0L51.14,218A6.92,6.92,0,0,0,54,221C56,222.34,53.63,213,53.63,213Z" transform="translate(3.19 56.11)"/><path class="e" d="M18.37,181.91c1.41-.52,11.11-2.28,15.44-3.07-1,.2-1.35,2-4.27,4.55-1.44,1.26-5.29,2.29-6.63,4.23a26.5,26.5,0,0,0-3.52,7.32h0S14.61,183.32,18.37,181.91Z" transform="translate(3.19 56.11)"/><path class="e" d="M19.45,199.54a51.89,51.89,0,0,1,7.26-3.82l.08,0h0c.45.12,3,.82,2.38,1.36s0,1.53-1.9,3.11c-1.5,1.23-2.28,4-2.55,5.2v0l-.09.38c0,.06,0,.09,0,.1h0c-3.15,3.21-5,6-4.83,7C19.41,211.65,16.47,202,19.45,199.54Z" transform="translate(3.19 56.11)"/><path class="e" d="M24.39,219.13s5.77-6,10.81-12h0l-1.49,3.18L26.9,224.84l-.22-.41C25.49,222.28,24.17,219.69,24.39,219.13Z" transform="translate(3.19 56.11)"/><path class="e" d="M71.23,183.37h0c1.87.73,3.76,1.46,5.35,2.1A26,26,0,0,1,80,187c3.42,2.11,2.69,14.16,2.69,14.16s-3.41-3-7.55-6.28l-1.72-1.34a63.46,63.46,0,0,0-4.59-7.48C67.81,184.88,69.24,183.9,71.23,183.37Z" transform="translate(3.19 56.11)"/><path class="e" d="M71.86,202.25c1-.84,4.35,1.62,4.29,2.29,0,.42,1.12.33,2,.21.28.3.52.55.68.75l0,0c2.42,3-2.31,12-2.88,13.06.19-.47-.11-1.63-.82-3.22-.09-.22-.19-.44-.3-.67.08-2.08,0-5.4-1.06-7.08C72.21,205.07,70.84,203.09,71.86,202.25Z" transform="translate(3.19 56.11)"/><path class="e" d="M64.86,216.42c1.46,3.11,2.77,3.17,2.86,3.16h0c1.53,2.53,2.58,4.19,2.58,4.19.19,1-5.43,7.25-5.6,7.44.46-.65.21-2.24-.47-4.31h0c0-.2-.2-7.38-1.41-11.14S63.36,213.2,64.86,216.42Z" transform="translate(3.19 56.11)"/><path class="e" d="M27.59,169.51a2.46,2.46,0,0,0-.41,1.06c0,.17-.06.37-.08.6-.12,1.27,5.28,1.59,2.65,2.37-1.51.45-3.38,2.63-4.7,4.41-.31.13-.6.27-.88.4-1.67.78-2.73,1.42-2.73,1.42S18.13,170,27.59,169.51Z" transform="translate(3.19 56.11)"/><path class="e" d="M23.05,166.34s7.36-4.79,14.65-5.77h0a4.59,4.59,0,0,0,.7,1.68A5,5,0,0,0,40,163.81c2,1.22,1.07,4.88,1.07,4.88C39.29,164.58,23.05,166.34,23.05,166.34Z" transform="translate(3.19 56.11)"/><path class="e" d="M57.34,165A16.36,16.36,0,0,1,60,163.33c9.26-4.55,15.85,4.82,16,5h0s-9-2.73-11.77-1.7c-1.74.63-2.06-.43-2.14-.55C60.57,163.78,57.41,165.12,57.34,165Z" transform="translate(3.19 56.11)"/><path class="f" d="M38,218.41c.14-.21.29-.41.45-.63a69.71,69.71,0,0,0,4.75-6.88h0c.11,0,3.22,0,2.58,2-.2.61-.87,1.77-1,2.25a5.05,5.05,0,0,0-.67.73,33.62,33.62,0,0,0-3.35,5.81.24.24,0,0,1-.24-.16,4.79,4.79,0,0,1,.53-2.43C41.89,216.7,38.1,218.34,38,218.41Z" transform="translate(3.19 56.11)"/><path class="f" d="M26.9,224.87l6.81-14.56,1.49-3.18h0c.9-1.08,1.78-2.15,2.6-3.2,0,0,2.51.64.74,3.64a7.34,7.34,0,0,0-.6,1.29,5.28,5.28,0,0,0-.3,2.48c-5.16,4.4-10.38,13.58-9.2,16.21C28.4,227.45,27.71,226.3,26.9,224.87Z" transform="translate(3.19 56.11)"/><path class="f" d="M19.36,195h0c-.19-2.59,7-14.67,8.93-15.06h0c2.6-.48,5.25-1,7.36-1.5,0,0,4.46,3.4,1.26,4.71-.28.12-3.14.84-3.42,1L26,189.79h0A52.45,52.45,0,0,0,19.36,195Z" transform="translate(3.19 56.11)"/><path class="f" d="M63.2,197.79a5.3,5.3,0,0,1,3.29-4.35h0c4.19,4.16,9.54,9,11.7,11.23-.91.12-2.08.21-2-.21.07-.67-3.27-3.13-4.29-2.29s.35,2.82,2,5.36c1.07,1.68,1.13,5,1,7.08A54.65,54.65,0,0,0,67,202.86a44.31,44.31,0,0,0-3.61-3.64A3.55,3.55,0,0,1,63.2,197.79Z" transform="translate(3.19 56.11)"/><path class="f" d="M58.31,206.71a3.34,3.34,0,0,1,1.92-.39c1,1.85,2,3.78,3.06,5.64,1.58,2.79,3.15,5.44,4.4,7.51-.09,0-1.4-.05-2.85-3.16s-3.26-4.47-2-.65,1.4,10.94,1.4,11.13a72.57,72.57,0,0,0-5.6-11.91l-.16-.29a16,16,0,0,0-.06-2.58C58.08,208.14,54.88,208.59,58.31,206.71Z" transform="translate(3.19 56.11)"/><path class="f" d="M43.64,227.66l.58-4.45.3-2.33a4.14,4.14,0,0,1,.64-.08c2.23-.12,2.6.77,3.45,3.69a4,4,0,0,0,.24.67l1.11.47c.06.27.13.54.19.82,1.1,4.48,2.28,8.82,2,8.42-.13-.16-1,.06-2,.38,0-.72-.29-4.49-1.25-5.66s-2.44-2.12-2.3-3.56C46.66,224.83,44.38,227,43.64,227.66Z" transform="translate(3.19 56.11)"/><path class="f" d="M68.36,172.51a4.22,4.22,0,0,0,2.21,3.15l.14.06c1.74.76,5.94.69,9.07.5a40.75,40.75,0,0,1,2.56,6.72,54.93,54.93,0,0,0-10.4-3.73c-.91-.21-1.83-.39-2.75-.53a4,4,0,0,1-.08-.52c-.27-3-.39-2.38-1.59-2.89C66.76,174.94,67.62,173.52,68.36,172.51Z" transform="translate(3.19 56.11)"/><path class="f" d="M27.11,171.17a3.48,3.48,0,0,1,.08-.61,2.38,2.38,0,0,1,.4-1.05h0l.77,0c.51,0,1.09,0,1.72.09,2.64.24,6.1.85,8.46.85a13,13,0,0,0,.36,1.31c.6,1.77,4.24,1.19.73,3.06-.61.33-1.19.59-1.7.81a13.72,13.72,0,0,0-4.44-.13A30,30,0,0,0,25.06,178c1.32-1.78,3.19-4,4.7-4.41C32.38,172.75,27,172.43,27.11,171.17Z" transform="translate(3.19 56.11)"/><path class="f" d="M71.23,183.37l-1,1-1.42,1.75a68.78,68.78,0,0,1,4.46,7.31c-1.92-1.49-3.91-3-5.74-4.2l-1.07-.7a17.26,17.26,0,0,1-.7-2.33C65.19,183.63,71.06,183.37,71.23,183.37Z" transform="translate(3.19 56.11)"/><path class="e" d="M68.35,171.27l2.33-.15a29.18,29.18,0,0,1,4.18,0c1.37.14,2.62,1.33,3.68,2.92a20.12,20.12,0,0,1,1.25,2.19c-3.21.19-7.55.26-9.21-.56A4.37,4.37,0,0,1,68.35,171.27Z" transform="translate(3.19 56.11)"/><path class="i" d="M24.6,205.9s0-.05,0-.1,0-.22.08-.39v0c.27-1.17,1.05-4,2.55-5.21,1.91-1.57,1.18-2.53,1.89-3.11s-1.92-1.23-2.37-1.35c4.84-2.3,10.72-5,13.68-7a7.6,7.6,0,0,0,1.59-1.35,8.9,8.9,0,0,1,3.33,4.34c.33,1.29.19,1.79-1.56,3.33.16-1.09-2.5-2.14-4.54-1.41-.42.15-2.42,1-2.84,1.2C31.07,197,28.14,202.28,24.6,205.9Z" transform="translate(3.19 56.11)"/><path class="f" d="M38.48,208.85c.75-.6,2.43-2.72,3.15-3.06,2.52-1.2,6.27-2.33,2,4.11,3.58,1.08,5.31,2,9.23,1.54-3.69-7.85-3-8.55-.68-7.13.92.55.28,1,2.15,4.07a4.71,4.71,0,0,0,2.46-2.3c.73-1.22,2-1.21,1.16-2.6-4.09-7.43-2.45-8.14-.85-8.34,2.81.27,3.66-1.77,3.47-2.64-.08-.38-2-1.84-2.27-2.05-1-.83-1.72-1.2-1.23-2.4a2.11,2.11,0,0,1-1,.43c-.34,0-1.36-2.15-1.47-3.12a1.36,1.36,0,0,1,1.27-1.57c.6.06,1,1,1.48,2a3.42,3.42,0,0,1,.24.46c.24-.75-1.83-4.24-.16-6.62s7.19-3.88,7.1-5.19c-.13-1.69-8.94,2.7-9.27,1.78-.83-2.31,3.16-5.3.76-8.22a5.09,5.09,0,0,0-1-.93,8.77,8.77,0,0,0-1.78,7s-1.75,2.24-2.67-.44a7.3,7.3,0,0,0-.51-8.1c-2.19,0-5.17-3.06-6.81-1.77-1.05.82-1.13,5.6-1.5,6.91s3.33,1.93,3.44,3.28c.14,1.7-2.29,2.9-2.42,4.71-.1,1.36-2.57,2.41-2.28,3.8.45,2.12,3.76,4.5,3.62,5.89-.44,4.49,1.1,12.26-3.31,13.76-.82.28-1.16,1.34-1.74,1.91l-1.37,1.82c-.26.34.2-1.65-.07-1.31C36.57,206.34,36.37,207,38.48,208.85Zm13.27-16.22c1.07.11,1.73,1.35,2.64,3.09a5,5,0,0,1,.5,3.43,26.88,26.88,0,0,1-3.3.41c-.63-.06-1.94-2.36-2.13-4.1A2.44,2.44,0,0,1,51.75,192.63Zm-4.31-7.91c.11.42-.45.91-1,1.49a3,3,0,0,1-1.17.8s-.45-.91-.52-1.15a2.89,2.89,0,0,1,1.29-1.62A1,1,0,0,1,47.44,184.72ZM45,179.8a3.28,3.28,0,0,1-1.23-.44,11.29,11.29,0,0,1,.68-1.06,3,3,0,0,1,1.94.12.82.82,0,0,1,.4,1.38C46.54,180.12,45.82,179.92,45,179.8Z" transform="translate(3.19 56.11)"/><path class="g" d="M52.27,175.17c-1.14,4-2.06,8.09-2.85,12.2-.39,2-.72,4.11-1,6.18s-.53,4.14-.72,6.22c-.35,4.17-.51,8.35-.55,12.53,0,2.09,0,4.19,0,6.28l0,3.14c0,1,0,2.09-.07,3.13.07-1,0-2.09,0-3.13L47,218.58c0-2.09-.08-4.19-.08-6.28,0-4.18.09-8.37.39-12.55q.23-3.13.63-6.26t.94-6.22c.74-4.12,1.6-8.22,2.69-12.29Z" transform="translate(3.19 56.11)"/><path class="g" d="M47.17,210.47c-.81.71-1.6,1.45-2.37,2.21s-1.52,1.54-2.23,2.36a30.73,30.73,0,0,0-2,2.55A14,14,0,0,0,39,220.44a13.8,13.8,0,0,1,1.47-2.89,29.56,29.56,0,0,1,1.94-2.62c.69-.84,1.42-1.64,2.18-2.43S46.14,211,47,210.22Z" transform="translate(3.19 56.11)"/><path class="g" d="M47.31,209c.9,1.14,1.74,2.31,2.55,3.5s1.58,2.42,2.29,3.67c.36.63.69,1.27,1,1.91s.63,1.3.89,2a14.77,14.77,0,0,1,1.1,4.17A14.48,14.48,0,0,0,54,220.11c-.27-.67-.6-1.31-.92-2s-.68-1.27-1.06-1.88c-.73-1.24-1.52-2.44-2.35-3.61s-1.69-2.33-2.6-3.43Z" transform="translate(3.19 56.11)"/><path class="g" d="M47.57,200.41c-1.76,1.19-3.47,2.46-5.14,3.76s-3.3,2.68-4.87,4.11a61.78,61.78,0,0,0-4.48,4.53,33.79,33.79,0,0,0-3.76,5.13,35,35,0,0,1,3.7-5.19,60,60,0,0,1,4.43-4.59c1.55-1.46,3.17-2.84,4.82-4.19s3.35-2.62,5.11-3.84Z" transform="translate(3.19 56.11)"/><path class="g" d="M47.76,198.3c1.43,1.12,2.8,2.3,4.14,3.53s2.64,2.49,3.87,3.83a36.7,36.7,0,0,1,3.4,4.24,18.82,18.82,0,0,1,1.35,2.35,9.77,9.77,0,0,1,.85,2.58,9.6,9.6,0,0,0-.89-2.56,19.54,19.54,0,0,0-1.38-2.33,36.28,36.28,0,0,0-3.46-4.17c-1.24-1.31-2.55-2.56-3.91-3.75s-2.74-2.36-4.18-3.45Z" transform="translate(3.19 56.11)"/><path class="g" d="M48.6,191a44.11,44.11,0,0,0-6.52,1.34,54.79,54.79,0,0,0-6.32,2.17,56.29,56.29,0,0,0-6,2.88,58.43,58.43,0,0,0-5.65,3.58,57.31,57.31,0,0,1,5.61-3.65A57.21,57.21,0,0,1,42,192.07a44.23,44.23,0,0,1,6.55-1.44Z" transform="translate(3.19 56.11)"/><path class="g" d="M49,188.28a61.86,61.86,0,0,1,6.63,2.44A55.53,55.53,0,0,1,62,193.89,38.63,38.63,0,0,1,67.72,198a25.56,25.56,0,0,1,2.51,2.48,21.3,21.3,0,0,1,2.09,2.83,20.6,20.6,0,0,0-2.12-2.8A26.61,26.61,0,0,0,67.67,198a40.23,40.23,0,0,0-5.79-4A58.7,58.7,0,0,0,55.55,191a60.51,60.51,0,0,0-6.62-2.34Z" transform="translate(3.19 56.11)"/><path class="g" d="M49.76,184.09a28.4,28.4,0,0,0-6.82-1.7,31.88,31.88,0,0,0-7-.16A31.53,31.53,0,0,0,29,183.61a34.15,34.15,0,0,0-6.45,2.88,33.73,33.73,0,0,1,6.43-3,31.57,31.57,0,0,1,6.93-1.47,33,33,0,0,1,7.1.07,29.67,29.67,0,0,1,6.92,1.64Z" transform="translate(3.19 56.11)"/><path class="g" d="M50.39,181.16a40.63,40.63,0,0,1,6.51.7,47.73,47.73,0,0,1,6.33,1.61c.52.17,1,.33,1.54.54l1.53.58c1,.44,2,.84,3,1.35a42.66,42.66,0,0,1,5.6,3.34A42.14,42.14,0,0,0,69.23,186c-1-.5-2-.89-3-1.32l-1.53-.55c-.5-.2-1-.36-1.54-.52a47.41,47.41,0,0,0-6.33-1.52,40.13,40.13,0,0,0-6.46-.61Z" transform="translate(3.19 56.11)"/><path class="g" d="M50.89,178.68c1.27-.61,2.56-1.15,3.87-1.65a39.65,39.65,0,0,1,4-1.29,26.08,26.08,0,0,1,4.12-.8,14.64,14.64,0,0,1,4.18.1,14.57,14.57,0,0,0-4.17,0,27,27,0,0,0-4.09.87,40.11,40.11,0,0,0-3.95,1.37c-1.29.52-2.57,1.08-3.8,1.72Z" transform="translate(3.19 56.11)"/><path class="g" d="M50.73,179.47a26.44,26.44,0,0,0-3.7-2.86,27.74,27.74,0,0,0-4.13-2.21A21.82,21.82,0,0,0,38.43,173l-1.16-.2-1.17-.1-.59,0h-.59l-1.17,0,1.17-.05.59,0,.59,0c.39,0,.78,0,1.18.08l1.16.17A22.18,22.18,0,0,1,43,174.24a28.24,28.24,0,0,1,4.2,2.16A27.27,27.27,0,0,1,51,179.23Z" transform="translate(3.19 56.11)"/><path class="g" d="M44.59,167.55a2.49,2.49,0,0,1,1.27.8,12.35,12.35,0,0,1,1,1.17,29.63,29.63,0,0,1,1.69,2.55c1,1.75,2,3.55,2.9,5.38l-.31.14c-.84-1.84-1.75-3.67-2.74-5.44-.5-.88-1-1.75-1.61-2.58a11.1,11.1,0,0,0-1-1.19A2.45,2.45,0,0,0,44.59,167.55Z" transform="translate(3.19 56.11)"/><path class="g" d="M51.44,176.41c1.65-1.25,3.36-2.43,5.1-3.55a45.54,45.54,0,0,1,5.42-3A44.73,44.73,0,0,0,56.63,173c-1.7,1.16-3.37,2.38-5,3.67Z" transform="translate(3.19 56.11)"/><g class="h"><path class="e" d="M195,245.22s2.52-11.41-3.52-12.29-24.67,6.17-18,.41,18.38-1.67,18.38-1.67-11.95-12.19-23.39-5.62a13.4,13.4,0,0,0-6.46,9.18c-.07.36-.14.74-.21,1.15,0,0-.23,1.73-1.73,1.38h0a1.57,1.57,0,0,1-1.17-1.65c.14-2-1.13-6.73-8.62-8.69a11.11,11.11,0,0,0-12.85,5c2.12-2.07,18.17,6.52,4.19,5.07s-12.16,11-12.16,11c.36-3.73,10.17-5,14.67-4.44s-11.73,6.3-15.19,8.94,1.36,12.9,1.36,12.9c-.52-3.54,14.1-14.92,17.71-15.3s-14.42,12.12-16.15,15.94,3.47,10.69,3.47,10.69c-.84-4.78,14.57-19.91,16.43-20.5s4.45,1.21-1,3.5S140.06,274,138.4,277.9s5.41,8.7,5.41,8.7c-.56-2.09,4.53-18.1,10.79-21.07s-8.36,17.4-9,21.77,7,7.42,7,7.42c-1.86-3,.31-16.51,5.52-19.68s-3.29,20.7-3.29,20.7.54-.59,4.5,1,4.15,3.36,4.15,3.36,2.12-4.91,6.67-7c0,0-5.47-12.33-4.42-15s8.54,9.08,8.37,15.53c0,0,6.71-2.1,2.18-10.2s-10.82-12.81-7.55-13.24,12.17,14.42,11.42,20c0,0,8.74-6.37,5.77-12.14,0,0-4.65-9.22-10.15-11.93s-7.55-7.17-5.71-7.5,15.32,9,17.45,18.08c0,0,6.64-6.29,4.85-11.39s-27.15-16.22-15-14.5,17,12.58,17,12.58,5.24-11.84.12-15.33-30.72-4.16-18.94-6.68S195,245.22,195,245.22Zm-38,4.32c.06.83-1.46,1.08-2.5.17s.27-2.29.27-2.29C156,246.63,156.89,248.71,156.94,249.54Zm3.31,9.17s-1.19,2.23-2.49.44-2.92-2.75-1.63-3.48,3.94-.32,4.38.67A3.25,3.25,0,0,1,160.25,258.71Zm8.55-6.47a6.1,6.1,0,0,1-4.23-.09s-1.7-.47.25-1.78,5.74-3,5.82-1.77S171.1,251.44,168.8,252.24Z" transform="translate(3.19 56.11)"/></g><path class="d" d="M192.33,244.47s2.52-11.4-3.52-12.28-24.67,6.17-18,.4,18.39-1.67,18.39-1.67-12-12.19-23.39-5.62a13.41,13.41,0,0,0-6.47,9.19q-.09.52-.21,1.14s-.22,1.73-1.72,1.39h0a1.57,1.57,0,0,1-1.18-1.64c.14-2-1.12-6.73-8.62-8.7a11.12,11.12,0,0,0-12.85,5c2.13-2.06,18.17,6.53,4.2,5.08s-12.17,11-12.17,11c.36-3.74,10.18-5,14.68-4.44s-11.73,6.3-15.2,8.94,1.37,12.89,1.37,12.89c-.52-3.54,14.09-14.91,17.71-15.29S130.93,262,129.2,265.79s3.48,10.69,3.48,10.69c-.84-4.79,14.56-19.91,16.43-20.5s4.44,1.21-1,3.5-10.74,13.79-12.4,17.68,5.41,8.7,5.41,8.7c-.56-2.09,4.53-18.11,10.78-21.07s-8.36,17.4-8.95,21.77,7,7.42,7,7.42c-1.85-3,.32-16.51,5.53-19.68S152.26,295,152.26,295s.54-.58,4.5,1,4.14,3.36,4.14,3.36,2.12-4.9,6.67-7c0,0-5.46-12.33-4.41-15s8.54,9.08,8.36,15.54c0,0,6.71-2.11,2.19-10.2s-10.82-12.81-7.55-13.24,12.17,14.42,11.42,20c0,0,8.73-6.37,5.76-12.15,0,0-4.65-9.21-10.14-11.93s-7.55-7.16-5.72-7.49,15.32,9,17.45,18.08c0,0,6.65-6.3,4.86-11.4s-27.15-16.21-15-14.5,17,12.58,17,12.58,5.23-11.83.12-15.33-30.72-4.15-18.94-6.67S192.33,244.47,192.33,244.47Zm-38,4.32c.06.83-1.47,1.08-2.51.18s.28-2.3.28-2.3C153.34,245.89,154.23,248,154.29,248.79Zm3.3,9.18s-1.18,2.22-2.48.43-2.92-2.74-1.63-3.47,3.94-.33,4.38.66A3.31,3.31,0,0,1,157.59,258Zm8.56-6.48a6.17,6.17,0,0,1-4.24-.08s-1.69-.48.26-1.79,5.74-3,5.82-1.76S168.45,250.69,166.15,251.49Z" transform="translate(3.19 56.11)"/><path class="e" d="M149.32,279.37a2.62,2.62,0,0,0-2.37-1c-2,3.54-3.76,6.76-4,8.21-.58,4.3,6.82,7.32,7,7.41a6.91,6.91,0,0,1-.64-3.1c-.49-.61-1.12-1.92-.7-4.48C149.32,282.47,150.29,281,149.32,279.37Z" transform="translate(3.19 56.11)"/><path class="f" d="M163.15,277.4c-.78-1.5-1.87-3.23-3-1.92-.8.91-2.06,2.12-3.19,3.17h0a101,101,0,0,1-3.19,11.92l.07,0c1.64-.86,4.25-2.51,4.86-4.55.92-3,1.18-3.34,1-5.46-.11-1.71,2.9,2.49,4.76,4C163.48,281.52,162.72,278.59,163.15,277.4Z" transform="translate(3.19 56.11)"/><path class="f" d="M151.35,270.52c-1.26,2.4-2.91,5.22-4.41,7.85a2.65,2.65,0,0,1,2.38,1c1,1.6,0,3.11-.64,7-.42,2.56.21,3.87.7,4.48a28.34,28.34,0,0,1,3.19-13.23,15.91,15.91,0,0,1,.19-1.62C153.27,272.8,153.09,271.57,151.35,270.52Z" transform="translate(3.19 56.11)"/><path class="f" d="M148.86,262a5.71,5.71,0,0,0-.74-2.52c-3.48,1.5-6.94,6.81-9.39,11.43,1.08.1,2.9.81,2.3,4.64a10,10,0,0,0,.78,6.27,50.19,50.19,0,0,1,3.67-9.32,2.33,2.33,0,0,1-1.73-3C144.52,266.66,149,264.19,148.86,262Z" transform="translate(3.19 56.11)"/><path class="f" d="M141.76,254.17c-2.79,2.38-6.47,5.33-9.14,7.8.22,1.32,2.39,1.65,3.51.37,1.25-1.44,1.89-1.1,3.1,2.52a2.07,2.07,0,0,1,.1.43c1.1-1.25,2.23-2.47,3.32-3.59l-.11-1.65C142.33,256.93,142.27,254.93,141.76,254.17Z" transform="translate(3.19 56.11)"/><path class="f" d="M144.72,246.54c-.7-1.09-2.43-1.61-3.45-1.82a55.68,55.68,0,0,1-5.76,2.9c.25,1.17-1,3.67-4,7.42-3.13,3.9-3.32,6.59-3.11,7.94,1.48-2.29,4.85-5.4,8.25-8a10.49,10.49,0,0,1,1.37-3.4C139.69,248.92,145.74,248.13,144.72,246.54Z" transform="translate(3.19 56.11)"/><path class="f" d="M143,236.87a15.78,15.78,0,0,1-2.61,0c.3,1.43-2.19,3.46-7.05,4.64-5.82,1.42-6.45,5.66-6.51,6.19.41-3.37,8.55-4.67,13.38-4.48a7.44,7.44,0,0,0,2.69-2.92C143.78,238.48,143.48,237.44,143,236.87Z" transform="translate(3.19 56.11)"/><path class="f" d="M179.11,288.22a29.12,29.12,0,0,0-2-8.68,71,71,0,0,1-3.55-13.92l-.38-.19a17.15,17.15,0,0,1-3-1.89c1.66,2.95.64,7,0,9,3.7,4.56,7.93,13.06,7.4,17A18.72,18.72,0,0,0,179.11,288.22Z" transform="translate(3.19 56.11)"/><path class="f" d="M179.66,262.49c-3.3-2.87-3.88-6.58-2.65-7.72a33.17,33.17,0,0,1-5.08-3.62,13.35,13.35,0,0,0,1.63,6.69,5.31,5.31,0,0,1,.77,4.11,42.07,42.07,0,0,1,7.13,7.22A6.2,6.2,0,0,0,179.66,262.49Z" transform="translate(3.19 56.11)"/><path class="f" d="M186.53,255.75a25.45,25.45,0,0,0-1.15-3.63c-.89-2-4.1-5.83-7.09-6.48a10.29,10.29,0,0,1-4.16-2.32,27.91,27.91,0,0,1-3-.65c.48,1,1.46,3,2.67,5.15a9.67,9.67,0,0,0,2.36,2.54A21.65,21.65,0,0,1,186.53,255.75Z" transform="translate(3.19 56.11)"/><path class="f" d="M192.46,243.82h0c-1-3.24-3.35-9.1-7-9.28-5.05-.24-8.78.55-9.88-.41-1.26.27-2.42.49-3.38.63-3.69,2.09-1.36,4.08,2.34,5.64h0a23.54,23.54,0,0,1,17.78,4.09S192.39,244.24,192.46,243.82Z" transform="translate(3.19 56.11)"/><path class="e" d="M141,275.57c.6-3.84-1.21-4.55-2.3-4.64-1.34,2.53-2.39,4.86-3,6.23-1.66,3.9,5.4,8.7,5.4,8.7a11.08,11.08,0,0,1,.65-4A10,10,0,0,1,141,275.57Z" transform="translate(3.19 56.11)"/><path class="e" d="M139.34,265.28a3.54,3.54,0,0,0-.11-.44c-1.21-3.61-1.85-3.95-3.1-2.52s-3.29.95-3.51-.37a16.08,16.08,0,0,0-3.41,3.84c-1.73,3.83,3.48,10.69,3.48,10.69C132.29,274.2,135.58,269.56,139.34,265.28Z" transform="translate(3.19 56.11)"/><path class="e" d="M135.52,247.61c-3.64,1.68-7.69,3.47-9.23,4.64-3.46,2.64,1.36,12.89,1.36,12.89a3.52,3.52,0,0,1,.78-2.17h0c-.2-1.35,0-4.05,3.11-7.94S135.76,248.78,135.52,247.61Z" transform="translate(3.19 56.11)"/><path class="e" d="M140.37,236.87l-1.4-.12c-14-1.45-12.16,11-12.16,11v-.06c.06-.52.7-4.77,6.51-6.18C138.19,240.33,140.67,238.29,140.37,236.87Z" transform="translate(3.19 56.11)"/><path class="e" d="M156,233.32c-.69-2.24-2.83-5.2-8.35-6.64a11.11,11.11,0,0,0-12.85,5c.4-.38,1.26-.39,2.35-.16h0c4.52-.29,14.11-.69,16.24.82A3.93,3.93,0,0,0,156,233.32Z" transform="translate(3.19 56.11)"/><path class="e" d="M183.35,277.35s-4.44-8.81-9.77-11.74a70.77,70.77,0,0,0,3.55,13.91,29.63,29.63,0,0,1,2,8.69C181.48,286.06,185.51,281.55,183.35,277.35Z" transform="translate(3.19 56.11)"/><path class="e" d="M189.79,264.6c-.89-2.56-7.73-6.63-12.78-9.84-1.23,1.14-.65,4.84,2.65,7.72a6.19,6.19,0,0,1,1.8,6.68,19,19,0,0,1,3.48,6.84S191.59,269.7,189.79,264.6Z" transform="translate(3.19 56.11)"/><path class="e" d="M191.91,247.35c-2.88-2-12.24-3-17.78-4a10.29,10.29,0,0,0,4.16,2.32c3,.65,6.21,4.5,7.09,6.47a24,24,0,0,1,1.15,3.64h0a23.88,23.88,0,0,1,5.25,6.94S197,250.85,191.91,247.35Z" transform="translate(3.19 56.11)"/><path class="e" d="M188.82,232.19c-2.91-.42-8.73,1-13.24,1.93,1.1,1,4.83.17,9.88.41,3.66.18,6,6,7,9.28C192.89,241.35,194,232.94,188.82,232.19Z" transform="translate(3.19 56.11)"/><path class="e" d="M189.24,230.92c-.3-.3-12.1-12.1-23.39-5.62a13,13,0,0,0-2.75,2.12c1.29.36,3.86.14,7.53-.11s4.73,1.43,4.91,2.84C181.81,228.39,189,230.84,189.24,230.92Z" transform="translate(3.19 56.11)"/><path class="f" d="M156.24,234.73a6.23,6.23,0,0,0-.27-1.4,4,4,0,0,1-2.57-1c-2.13-1.5-11.69-1.11-16.22-.82a17.81,17.81,0,0,1,4.88,1.94,14.06,14.06,0,0,1,3.79.57c2.79.8,6.86,1.87,8.63,1.61A2.43,2.43,0,0,0,156.24,234.73Z" transform="translate(3.19 56.11)"/><path class="f" d="M175.55,230.15c-.19-1.41-1.17-3.09-4.91-2.84s-6.25.47-7.54.11h0a13.4,13.4,0,0,0-1.69,2.07,11.2,11.2,0,0,0,3.43.22c3.95-.27,7,.77,8,1.55A12.46,12.46,0,0,1,175.55,230.15Z" transform="translate(3.19 56.11)"/><path class="e" d="M173.72,282.69a52.58,52.58,0,0,0-3.93-5.93s.52,1.75.7,2.34a10.73,10.73,0,0,1,.64,4.07,25,25,0,0,1-1,3.39c.14.37.28.74.4,1.11a15.78,15.78,0,0,1,1,5.21S178.24,290.78,173.72,282.69Z" transform="translate(3.19 56.11)"/><path class="f" d="M170.48,279c-.17-.55-.65-2.16-.69-2.32-.68-.9-1.32-1.71-1.9-2.45l-.22-.28a14.91,14.91,0,0,0-.41,2.57c-.06.6-.13,1.32-.21,2.17,0,.56-.11,1-.17,1.43a34.9,34.9,0,0,1,3.41,6.75c-.06-.13-.1-.27-.15-.41a24.7,24.7,0,0,0,1-3.38A10.82,10.82,0,0,0,170.48,279Z" transform="translate(3.19 56.11)"/><path class="e" d="M167.58,292.38s-1.53-3.44-2.81-7.08c-.1-.28-.19-.56-.29-.83-1.86-1.47-4.87-5.68-4.75-4,.14,2.12-.12,2.42-1,5.46-.61,2-3.21,3.68-4.86,4.54l-.07,0h0c-.84,2.59-1.5,4.44-1.5,4.44s.55-.59,4.5,1,4.15,3.36,4.15,3.36S163,294.45,167.58,292.38Z" transform="translate(3.19 56.11)"/><path class="f" d="M165.26,232.22c-.39-.75-3.1-.49-4.93-.82a14,14,0,0,0-1,3.12c-.07.35-.14.74-.21,1.14,0,0-.23,1.73-1.73,1.39h0a1.56,1.56,0,0,1-1.17-1.64,5.87,5.87,0,0,0-.28-2,4,4,0,0,1-2.57-1,6.52,6.52,0,0,0-2.62-.78,4.36,4.36,0,0,0-.31,3.66c1,3.83-5.56,5-4.4,7,.35.6,5.65,1.6,6.74,2.56,3.61,3.14,3,6.74,2,7.93a2.94,2.94,0,0,0-.71,2c1.38-.37,3.39.05,3.77.9a3.27,3.27,0,0,1-.26,2.38,2.92,2.92,0,0,1-.43.58c.57.81-2.41,8.88-1.26,10.87,1.35,2.35,4.9-2.19,5.35-3.35,1.43-3.7,7.06,1.83,7,.83-.17-3-6.33-9.55-6.45-11.41-.16-2.34.5-2.09.92-3.83a5.21,5.21,0,0,1-.82-.25s-1.69-.48.25-1.79a17.4,17.4,0,0,1,1.81-1,12,12,0,0,0,0-2.32c-.29-4.16-1.65-5.27-.59-8.64S165.81,233.31,165.26,232.22Z" transform="translate(3.19 56.11)"/><path class="g" d="M157.14,237.1c.51,2.11.9,4.27,1.25,6.42s.65,4.33.88,6.51c.49,4.35.75,8.73.84,13.11s.09,8.76.09,13.15l0,6.57,0,3.29c0,1.1,0,2.2,0,3.29,0-1.09,0-2.19,0-3.29l.07-3.28.13-6.58c.06-4.39.1-8.77.07-13.16s-.25-8.78-.68-13.15q-.31-3.28-.8-6.54c-.33-2.18-.7-4.34-1.19-6.5Z" transform="translate(3.19 56.11)"/><path class="g" d="M160.27,272.82a6.25,6.25,0,0,1,1.81.57c.3.13.58.29.86.44s.56.33.82.52a16.61,16.61,0,0,1,2.92,2.57c.46.46.85,1,1.27,1.48s.77,1.05,1.16,1.58.71,1.09,1,1.65l1,1.7-.94-1.72c-.33-.56-.68-1.12-1-1.67s-.73-1.09-1.13-1.61-.79-1-1.24-1.52a17,17,0,0,0-2.9-2.66c-.26-.2-.55-.36-.82-.54s-.58-.34-.88-.48a6.34,6.34,0,0,0-1.9-.63Z" transform="translate(3.19 56.11)"/><path class="g" d="M160.23,266.65a15.38,15.38,0,0,0-2.25,1.44l-.52.41-.51.44c-.34.28-.65.59-1,.9a28.68,28.68,0,0,0-3.41,4.05l-.73,1.11c-.24.36-.45.76-.67,1.13-.47.76-.85,1.55-1.25,2.34-.21.39-.37.8-.55,1.2l-.52,1.21c-.32.82-.61,1.65-.92,2.48.32-.82.62-1.65.95-2.46l.55-1.21c.18-.4.35-.8.57-1.19.41-.77.8-1.56,1.27-2.31.23-.37.44-.76.69-1.12l.75-1.08a28.34,28.34,0,0,1,3.43-4c.33-.29.64-.6,1-.88l.51-.42.52-.39a13.8,13.8,0,0,1,2.21-1.38Z" transform="translate(3.19 56.11)"/><path class="g" d="M160.17,262.39A55.81,55.81,0,0,1,165.3,265a48.58,48.58,0,0,1,4.82,3.08,31,31,0,0,1,4.33,3.75,16,16,0,0,1,3.2,4.73,15.85,15.85,0,0,0-3.14-4.78,31.23,31.23,0,0,0-4.29-3.83,49,49,0,0,0-4.8-3.16,55.09,55.09,0,0,0-5.12-2.65Z" transform="translate(3.19 56.11)"/><path class="g" d="M160.22,260a13.63,13.63,0,0,0-3.13.21,19.82,19.82,0,0,0-3,.78,20.51,20.51,0,0,0-5.47,3,25.58,25.58,0,0,0-2.36,2,25.22,25.22,0,0,0-2.07,2.32,32.26,32.26,0,0,0-3.35,5.23,31.73,31.73,0,0,1,3.41-5.18,24.23,24.23,0,0,1,4.46-4.28,20.32,20.32,0,0,1,5.46-2.85,19.33,19.33,0,0,1,3-.74,13.61,13.61,0,0,1,3.05-.16Z" transform="translate(3.19 56.11)"/><path class="g" d="M159.75,252.49a36.77,36.77,0,0,1,6.69,1.51,44.11,44.11,0,0,1,6.38,2.58l.78.38.75.42c.5.28,1,.54,1.5.85,1,.61,2,1.2,2.88,1.89l.7.5c.24.17.47.33.69.52l1.34,1.09c.46.35.87.75,1.29,1.14l1.27,1.18-1.25-1.19c-.42-.4-.83-.81-1.28-1.16l-1.33-1.11a8.17,8.17,0,0,0-.68-.52l-.7-.51c-.91-.71-1.9-1.31-2.87-1.94-.48-.31-1-.57-1.49-.86l-.75-.43-.78-.39a44,44,0,0,0-6.37-2.67,37.13,37.13,0,0,0-6.74-1.6Z" transform="translate(3.19 56.11)"/><path class="g" d="M159.24,249.44a62.48,62.48,0,0,0-6.13,2.12c-2,.81-4,1.72-5.88,2.72a49.43,49.43,0,0,0-5.51,3.4,35.14,35.14,0,0,0-4.85,4.27,35.12,35.12,0,0,1,4.9-4.21,50.73,50.73,0,0,1,5.54-3.32c1.92-1,3.88-1.85,5.89-2.64a63.55,63.55,0,0,1,6.12-2Z" transform="translate(3.19 56.11)"/><path class="g" d="M159,245.66c2.28,0,4.56.09,6.83.21s4.55.3,6.82.56a64.45,64.45,0,0,1,6.75,1.07,31.46,31.46,0,0,1,3.3.88,15.31,15.31,0,0,1,3.12,1.39,15.54,15.54,0,0,0-3.1-1.43c-1.08-.37-2.19-.66-3.3-.92a64.72,64.72,0,0,0-6.75-1.15c-2.27-.29-4.54-.49-6.82-.64s-4.56-.26-6.85-.29Z" transform="translate(3.19 56.11)"/><path class="g" d="M158.44,243.05c-2.46.42-4.9.94-7.32,1.54s-4.82,1.27-7.18,2a57.58,57.58,0,0,0-6.93,2.78,31.5,31.5,0,0,0-3.26,1.82,18.12,18.12,0,0,0-2.94,2.29,18.54,18.54,0,0,1,3-2.26,31.32,31.32,0,0,1,3.27-1.78,57.36,57.36,0,0,1,7-2.69c2.37-.76,4.77-1.41,7.19-2s4.86-1.06,7.31-1.45Z" transform="translate(3.19 56.11)"/><path class="g" d="M158.12,240.48q-5.55-.64-11.11-.91c-1.86-.08-3.72-.11-5.57-.06l-1.4.06-1.38.12c-.47.05-.92.14-1.38.2a5.17,5.17,0,0,0-.68.16l-.68.17.68-.16c.23-.05.45-.12.68-.15.46,0,.92-.14,1.38-.18l1.39-.1,1.39,0c1.85,0,3.71,0,5.56.14q5.55.33,11.08,1.06Z" transform="translate(3.19 56.11)"/><path class="g" d="M158.44,241.91c3.39-1.1,6.8-2.14,10.24-3.07,1.72-.46,3.45-.9,5.19-1.27.87-.18,1.75-.35,2.63-.48a11.86,11.86,0,0,1,2.66-.16,12,12,0,0,0-2.67.12c-.88.11-1.76.27-2.64.44-1.75.35-3.48.76-5.21,1.2-3.46.88-6.89,1.86-10.3,2.91Z" transform="translate(3.19 56.11)"/><path class="g" d="M158.12,239.33q2.37-2.58,4.86-5c.84-.81,1.69-1.62,2.57-2.38.44-.39.89-.76,1.36-1.1a5.82,5.82,0,0,1,.73-.49,2.34,2.34,0,0,1,.8-.33,2.16,2.16,0,0,0-.81.31,7.11,7.11,0,0,0-.74.47c-.48.34-.94.7-1.39,1.07-.9.75-1.77,1.54-2.63,2.33-1.7,1.6-3.36,3.26-5,4.94Z" transform="translate(3.19 56.11)"/><path class="g" d="M157.86,238.71q-2.4-1.29-4.83-2.47c-.82-.39-1.64-.78-2.47-1.13-.41-.18-.83-.35-1.26-.5a4.79,4.79,0,0,0-.64-.21,3.07,3.07,0,0,0-.67-.14,3.53,3.53,0,0,1,.66.16c.22.06.43.14.64.22.42.17.83.35,1.24.54.82.38,1.62.79,2.42,1.2,1.6.84,3.19,1.71,4.75,2.6Z" transform="translate(3.19 56.11)"/><g class="h"><path class="e" d="M188.3,166.4c.06-3.08,15.43-9.4,18.94-9.19s-17.17,10.56-19,14.25,4.17,14.82,4.17,14.82c-1.82-5.07,15.24-20.94,19.1-20.77s-7.7,7.77-10.34,10.86c-.69.81-6.63,7.62-7.09,10.14s5.86,6.88,5.86,6.88c-1.17-3.64,12.13-18.34,14.5-17.51s-3.1,5.64-7.73,10.67c-6.23,6.75-5.42,12.64-4.49,15.41s7,5.09,7,5.09c-2.34-4.26,6.43-18.49,7.13-18.25s.28,6-1.58,9.65a90.6,90.6,0,0,0-3.61,9.36c3.26.38,11.88,5.76,11.88,5.76s6.87-6.58,10-7.46A74.82,74.82,0,0,0,228,199.7c-2.82-2.78-3.43-7.45-2.77-7.8s11.34,8.6,9.68,13.16c0,0,4.81-5.31,5.29-8.19s-1.95-7.51-6.71-10.16-10.75-10.47-8.54-11.65,17.92,15.18,17.33,19c0,0,5.27-9.17,4.43-11.59s-6.77-7.39-8.56-8.92c-3-2.59-15.68-8.37-11.9-9.14s23.09,12.3,22.08,17.58c0,0,4.16-11.92,1.83-15.29s-24.36-10.42-20.93-11.16,21.35,4.32,21.88,7.36c0,0,.79-8.11-1.56-10.89s-26.05-1.76-19.71-5.51c6.08-3.6,17.25-1,18.48.47-.87-1.44-7.21-11.55-14.19-12.22-7.51-.72-13.68,1.32-15.09,3.16-1.29,1.67-.08,7.42-1.42,8a.41.41,0,0,1-.19.05c-.68.06-1.09-1-1.4-2.29l0-.07c0-.06,0-.12,0-.19-.41-1.82-.68-4.11-1.3-5-1.44-2-8.2-3-15.48-1a16.09,16.09,0,0,0-12.37,15.5c.19-1.44,11.59-7.27,18.43-4.54s-14.6,2.07-18.63,8.48C184.68,159.93,188.3,166.4,188.3,166.4Zm26.2-5.26c-.92.76-3,1.1-3.56.43a2.26,2.26,0,0,1,3.33-2.74C214.82,159.51,215.42,160.39,214.5,161.14Zm11.42,6.66a5,5,0,0,1,.09.56c.12,1.58.16,3.49-1.2,3.59s-3.59-1.63-3.71-3.21a2.69,2.69,0,0,1,2.23-3h.25A2.64,2.64,0,0,1,225.92,167.8Zm-1.15-14.89a3,3,0,0,1-1,1.63l-.36.29c-.8.61-1.58,1-2.23.21s-.71-3.42.21-4.17a2.15,2.15,0,0,1,3,.29A2.08,2.08,0,0,1,224.77,152.91Z" transform="translate(3.19 56.11)"/></g><path class="d" d="M186.67,164.35c.05-3.08,15.43-9.4,18.93-9.19s-17.17,10.56-18.95,14.25,4.16,14.82,4.16,14.82c-1.81-5.07,15.25-20.94,19.1-20.77s-7.69,7.77-10.34,10.86c-.69.81-6.63,7.62-7.08,10.14s5.86,6.88,5.86,6.88c-1.17-3.64,12.13-18.34,14.5-17.52s-3.1,5.65-7.74,10.68c-6.22,6.75-5.41,12.64-4.48,15.41s7,5.09,7,5.09c-2.34-4.26,6.43-18.49,7.12-18.25s.29,6-1.57,9.65a90.6,90.6,0,0,0-3.62,9.36c3.27.37,11.89,5.76,11.89,5.76s6.87-6.59,10-7.46a76.2,76.2,0,0,0-5.11-6.41c-2.82-2.78-3.43-7.45-2.78-7.8s11.34,8.6,9.69,13.16c0,0,4.8-5.31,5.29-8.19s-1.95-7.51-6.72-10.16S221.1,174.19,223.32,173s17.92,15.18,17.33,19c0,0,5.26-9.17,4.42-11.59s-6.77-7.39-8.56-8.92c-3-2.59-15.68-8.37-11.89-9.14s23.08,12.3,22.07,17.58c0,0,4.17-11.92,1.84-15.29s-24.36-10.42-20.93-11.16,21.34,4.32,21.87,7.36c0,0,.8-8.11-1.55-10.89s-26-1.76-19.72-5.51c6.09-3.6,17.25-1,18.49.47-.87-1.44-7.22-11.56-14.19-12.22-7.51-.72-13.68,1.32-15.1,3.15-1.29,1.68-.07,7.43-1.41,8a.41.41,0,0,1-.19,0c-.69.05-1.09-1-1.4-2.29l0-.07a1.06,1.06,0,0,1,0-.19c-.41-1.83-.69-4.11-1.3-5-1.44-2-8.21-3-15.48-1a16.08,16.08,0,0,0-12.37,15.5c.18-1.44,11.59-7.27,18.43-4.55S189,148.39,185,154.8C183.05,157.88,186.67,164.35,186.67,164.35Zm26.2-5.26c-.92.76-3,1.1-3.57.43a2.26,2.26,0,0,1,3.33-2.74C213.19,157.46,213.79,158.34,212.87,159.09Zm11.41,6.66a2.62,2.62,0,0,1,.09.56c.13,1.58.16,3.49-1.19,3.59a4.23,4.23,0,0,1-3.71-3.21,2.68,2.68,0,0,1,2.23-3,1,1,0,0,1,.25,0A2.63,2.63,0,0,1,224.28,165.75Zm-1.14-14.89a3,3,0,0,1-.95,1.63l-.37.29c-.79.61-1.57,1-2.23.21s-.71-3.42.21-4.17a2.15,2.15,0,0,1,3,.29A2,2,0,0,1,223.14,150.86Z" transform="translate(3.19 56.11)"/><path class="d" d="M214.38,141.53l0,.07Z" transform="translate(3.19 56.11)"/><path class="f" d="M215.8,143.89a.41.41,0,0,0,.19,0l-.17,0c-.68.05-1.11-1-1.42-2.28C214.71,142.92,215.11,143.94,215.8,143.89Z" transform="translate(3.19 56.11)"/><path class="f" d="M214.34,141.34a1.06,1.06,0,0,0,0,.19A1.06,1.06,0,0,1,214.34,141.34Z" transform="translate(3.19 56.11)"/><path class="f" d="M207.6,142.46c-.3,1.1,3.79,8,3.7,9.15-.34,4.34-8.46,6.58-5.1,8.28,4.16,2.1,6.16,2.74,6.63,8.72s1.4,2.64,5.17,4,5.63-2.79,8.54-3.52c1.43-.37-.3-1.75-2.26-3.39a2.62,2.62,0,0,1,.09.56c.13,1.58.16,3.49-1.19,3.59a4.23,4.23,0,0,1-3.71-3.21,2.68,2.68,0,0,1,2.23-3,1,1,0,0,1,.25,0,4.34,4.34,0,0,1-1.38-2.28c-.13-1.7,8.74.31,9.46-1.5.42-1.05-6.81-5-8.21-7.09-.79.61-1.57,1-2.23.21s-.71-3.42.21-4.17a2.15,2.15,0,0,1,3,.29,2,2,0,0,1,.31,1.75c1.63-.48,3.91-.24,4.22-.79.54-.94-3.19-5.9-3.38-8.38-.31-4-5.69-4.16-7-4.73-.5,2.33.17,6.44-1,6.88a.41.41,0,0,1-.19,0c-.69.05-1.09-1-1.4-2.29l0-.07a1.06,1.06,0,0,1,0-.19v0C213.94,142.13,208.26,140,207.6,142.46Zm5.27,16.63c-.92.76-3,1.1-3.57.43a2.26,2.26,0,0,1,3.33-2.74C213.19,157.46,213.79,158.34,212.87,159.09Z" transform="translate(3.19 56.11)"/><path class="e" d="M209.56,205.76a91.52,91.52,0,0,1,3.62-9.36,16.9,16.9,0,0,0,1.32-3.8c.11-.47.21-.93.28-1.38,1.58-1.36,5.21,1,6.82,5.82,1.45,4.27.7,5.46,4.53,7.35,1.41.69,5.17-.44,5.33-.35l0,0h0c-3.16.87-10,7.46-10,7.46S212.83,206.13,209.56,205.76Z" transform="translate(3.19 56.11)"/><path class="e" d="M205,184.67l.15-.17.38-.42a4.48,4.48,0,0,1,2.32,5c-.75,4,.14,9.35.22,9.86v0c-.81,2.46-1.13,4.68-.42,6-.18-.07-6.09-2.36-7-5.09S198.91,191.36,205,184.67Z" transform="translate(3.19 56.11)"/><path class="e" d="M192.48,184.46c.22-1.22,1.73-3.44,3.3-5.5.72-1,1.46-1.87,2.1-2.64,3.41-1.46,8.29-2.06,6.36.71-1.4,2-3.11,6.32-4.32,9.69-1.09,1.79-1.75,3.35-1.64,4.33a2.3,2.3,0,0,0,.06.28S192,187,192.48,184.46Z" transform="translate(3.19 56.11)"/><path class="e" d="M186.62,169.41c.61-1.26,3.42-3.3,6.72-5.45l3-1.92c1.69.79,3,2.42.71,4.24-2.43,1.95-4.44,9.42-5.49,14.09q-.24.47-.42.9a4.27,4.27,0,0,0-.38,2.95C190.64,183.94,184.86,173,186.62,169.41Z" transform="translate(3.19 56.11)"/><path class="e" d="M185.19,150.84a16,16,0,0,1,11.49-15.22c.29-.1.58-.19.88-.27h0c-.2,2.07-.9,5.8-3.38,7.66a19.72,19.72,0,0,0-4.26,4.77l-.11,0C187.15,149,185.26,150.27,185.19,150.84Z" transform="translate(3.19 56.11)"/><path class="e" d="M225.53,132.74a31.23,31.23,0,0,1,6.95-.1c7,.67,13.32,10.79,14.19,12.23-.88-1-4.77-6.13-10.31-5.68-3.63.68-5-.76-6-2.31C228.71,134.32,227.6,134.37,225.53,132.74Z" transform="translate(3.19 56.11)"/><path class="e" d="M234.38,154.29c-1.82-3.78,8.21-3.74,11.43-5.35.33.08.64.18.91.27a3,3,0,0,1,1.2.7c2.34,2.78,1.55,10.88,1.55,10.88-.3-1.72-6.24-4.11-11.93-5.71Z" transform="translate(3.19 56.11)"/><path class="e" d="M240.73,160.1l.73.33c3.42,1.54,6.31,3,7.07,4.16,2.31,3.32-1.72,15-1.83,15.28a3,3,0,0,0-.18-1.55,12.64,12.64,0,0,0-3.13-6.75,34.68,34.68,0,0,1-3.21-3.52C238.45,166.37,239,162.33,240.73,160.1Z" transform="translate(3.19 56.11)"/><path class="e" d="M237.6,178.68c-.95-1.71-1.46-5.48-1.68-7.68.22.16.42.32.59.46,1.79,1.53,7.72,6.5,8.56,8.92S240.64,192,240.64,192c.21-1.32-1.57-4.17-4.07-7.26C237.43,183,238.51,180.31,237.6,178.68Z" transform="translate(3.19 56.11)"/><path class="e" d="M225,190.67c1.32-1.32,5.26-4.58,8.18-.2a17.94,17.94,0,0,0,5.1,5.29l-.09.22c-1.21,2.89-4.81,6.89-4.93,7,1.13-3.15-3.6-8.39-6.86-11.21C225.91,191.35,225.43,191,225,190.67Z" transform="translate(3.19 56.11)"/><path class="e" d="M185,154.8c1-1.53,2.93-2.66,5.26-3.53l1-.34a23.52,23.52,0,0,1,4.61,3.87c1.61,2-.57,1.13-2.15,3.52a11.38,11.38,0,0,1-.93,1.2,32.69,32.69,0,0,0-3.64,2.09c-1.48,1-2.43,2-2.44,2.74C186.67,164.35,183.05,157.88,185,154.8Z" transform="translate(3.19 56.11)"/><path class="f" d="M197.89,176.32c.84-1,1.49-1.76,1.7-2,1.56-1.83,6.27-5.25,9-7.77,0,0,2.71,1.89.86,4a3.37,3.37,0,0,0-.51.78c-1,2,.27,4.33.33,4.44h0a53,53,0,0,0-9.37,10.9c1.21-3.37,2.92-7.69,4.32-9.69C206.18,174.26,201.31,174.86,197.89,176.32Z" transform="translate(3.19 56.11)"/><path class="f" d="M185.36,150.52a13.89,13.89,0,0,1,4.48-2.71l.11,0a19.77,19.77,0,0,1,4.26-4.78c2.47-1.86,3.18-5.56,3.38-7.64,6.34-1.75,12.3-1.21,14.66.3-3.89.86-13.76,4.63-14.6,7a8.29,8.29,0,0,0-.5,3.14C191.8,146.44,186.38,149.25,185.36,150.52Z" transform="translate(3.19 56.11)"/><path class="f" d="M222.81,133.24a25.6,25.6,0,0,1,2.75-.49c2.05,1.62,3.16,1.58,4.85,4.13,1,1.54,2.33,3,6,2.3,5.44-.44,9.3,4.48,10.26,5.63-1.35-1.31-10.29-3.45-16.44-1.31a6,6,0,0,1-2.43-2C226.18,139.25,224,135.3,222.81,133.24Z" transform="translate(3.19 56.11)"/><path class="f" d="M230.08,153.48c.49-.93,2.21-3.9,4.42-4.07a13.24,13.24,0,0,0,4.46-1.47,50,50,0,0,1,6.84,1c-3.24,1.6-13.22,1.56-11.41,5.33A41.62,41.62,0,0,0,230.08,153.48Z" transform="translate(3.19 56.11)"/><path class="f" d="M240.72,160.11c-1.7,2.24-2.26,6.26-.54,7.94a36.93,36.93,0,0,0,3.22,3.52,12.6,12.6,0,0,1,3.13,6.75,3,3,0,0,1,.19,1.52h0s0,0,0,0c.53-2.8-4.62-7.77-10.15-11.72a3.72,3.72,0,0,0-.27-3.76c-1.25-1.93-1.95-5.49-2.22-7.16C236.18,158.15,238.53,159.14,240.72,160.11Z" transform="translate(3.19 56.11)"/><path class="f" d="M229.84,167.28c2.29,1.34,4.68,2.69,6.09,3.72.22,2.19.73,6,1.68,7.67s-.17,4.34-1,6c-.55-.68-1.14-1.38-1.75-2.08a40.39,40.39,0,0,0-2.55-7.8A35.58,35.58,0,0,1,229.84,167.28Z" transform="translate(3.19 56.11)"/><path class="f" d="M223.19,180.42c1.22,2.31,8.51,5.33,11.9,6.63h0c2.61,2.54,3.85,5.64,3.49,7.77a5,5,0,0,1-.27.93,18,18,0,0,1-5.1-5.28c-2.92-4.38-6.85-1.13-8.18.19a5.54,5.54,0,0,0-1.26-.8C223.17,186.17,222,178.07,223.19,180.42Z" transform="translate(3.19 56.11)"/><path class="f" d="M214.41,187c.58-3.25,1.61-8.66,2.18-9.33.84-1,3.21,4.75,3.52,8.74.16,2.1,1.95,4.64,3.62,6.58h0a10.79,10.79,0,0,0,2.65,4.65,72.13,72.13,0,0,1,5.11,6.41h0c-.16-.09-3.92,1-5.33.35-3.83-1.89-3.08-3.09-4.52-7.36-1.62-4.8-5.25-7.17-6.83-5.81.41-2.36.38-4.34,0-4.48C214.7,186.72,214.58,186.81,214.41,187Z" transform="translate(3.19 56.11)"/><path class="f" d="M205.51,184.08c2.54-2.73,5.25-5.36,6.75-7.29a4.57,4.57,0,0,1,1.4,2.53c.11,1.52-1,3.48-2.59,6.16-1,1.78-.28,4.51.34,6.13a43.57,43.57,0,0,0-3.35,7.39v0c-.09-.5-1-5.91-.22-9.86A4.45,4.45,0,0,0,205.51,184.08Z" transform="translate(3.19 56.11)"/><path class="f" d="M191.17,181.26a7.16,7.16,0,0,1,.42-.9c1-4.66,3.06-12.13,5.49-14.08,2.27-1.82,1-3.44-.69-4.24,2-1.26,4-2.5,5.7-3.56-.24,1.24-.72,3.86-.84,5.06-.16,1.6-3.79,4.55-4.5,6.42a5.69,5.69,0,0,0,.06,3.42c-3.85,4.17-6.79,8.58-6,10.84l-.07-.13A4.53,4.53,0,0,1,191.17,181.26Z" transform="translate(3.19 56.11)"/><path class="f" d="M191.23,150.92c4.56-1.51,10.12-2.15,12.53-2.9,1.59.75,4.29,1.61,4.59,2.42.43,1.16-3.18,1.44-5.46,2.81a12.49,12.49,0,0,0-3.23,3.33h0a61.35,61.35,0,0,0-6.89,2.93,11.58,11.58,0,0,0,.92-1.2c1.57-2.39,3.76-1.48,2.14-3.51A23.25,23.25,0,0,0,191.23,150.92Z" transform="translate(3.19 56.11)"/><path class="g" d="M216.13,143.91c-.27,4.63-.39,9.28-.3,13.92,0,2.32.15,4.64.35,6.95l.19,1.73.24,1.72c.18,1.14.42,2.28.64,3.42.89,4.56,1.76,9.13,2.47,13.73q.54,3.45.89,6.92a37.79,37.79,0,0,1,.2,7,38.58,38.58,0,0,0-.28-7q-.39-3.47-1-6.9c-.76-4.59-1.69-9.14-2.63-13.69-.24-1.14-.49-2.28-.69-3.43l-.26-1.73-.21-1.74c-.24-2.32-.37-4.65-.44-7-.15-4.65-.09-9.31.14-14Z" transform="translate(3.19 56.11)"/><path class="g" d="M218.2,176.94q-2.23,1.71-4.41,3.5a51.28,51.28,0,0,0-4.18,3.75,5.8,5.8,0,0,0-.47.52l-.21.27-.2.29c-.12.2-.26.39-.38.59l-.34.61a15,15,0,0,0-1.06,2.59,16.36,16.36,0,0,0-.62,5.57,16.23,16.23,0,0,1,.54-5.59,14.5,14.5,0,0,1,1-2.63l.33-.62c.12-.21.25-.4.38-.6l.19-.3.22-.28c.14-.19.31-.36.46-.54a51.85,51.85,0,0,1,4.15-3.83c1.43-1.22,2.89-2.4,4.37-3.57Z" transform="translate(3.19 56.11)"/><path class="g" d="M218.8,180c2.38,1.35,4.72,2.77,7,4.28,1.13.76,2.25,1.55,3.32,2.4.53.43,1,.88,1.54,1.36a7.23,7.23,0,0,1,.67.78,2,2,0,0,1,.42.92,2,2,0,0,0-.44-.91,8.19,8.19,0,0,0-.68-.76,19.77,19.77,0,0,0-1.56-1.32c-1.09-.83-2.22-1.59-3.37-2.33-2.3-1.46-4.66-2.82-7.06-4.12Z" transform="translate(3.19 56.11)"/><path class="g" d="M216.23,167.46c-1.82,1-3.6,2-5.35,3.14s-3.45,2.29-5.09,3.54a46.62,46.62,0,0,0-4.7,4.05,20.66,20.66,0,0,0-3.77,4.91,20.73,20.73,0,0,1,3.71-5,47.87,47.87,0,0,1,4.65-4.12c1.64-1.28,3.33-2.48,5.07-3.62s3.5-2.23,5.32-3.23Z" transform="translate(3.19 56.11)"/><path class="g" d="M217,171.15c1.48-.17,3-.26,4.44-.29a36.38,36.38,0,0,1,4.43.18,19.66,19.66,0,0,1,4.35.89,10.52,10.52,0,0,1,2,.94,5.76,5.76,0,0,1,1.63,1.48,5.77,5.77,0,0,0-1.66-1.45,10.33,10.33,0,0,0-2-.89,19.33,19.33,0,0,0-4.33-.8,36.23,36.23,0,0,0-4.42-.09,42.83,42.83,0,0,0-4.39.37Z" transform="translate(3.19 56.11)"/><path class="g" d="M215.59,156.88a44.82,44.82,0,0,1,6.66.48,43.87,43.87,0,0,1,6.52,1.45,32.48,32.48,0,0,1,6.14,2.59,24.35,24.35,0,0,1,2.79,1.83,22.73,22.73,0,0,1,2.49,2.21,22.77,22.77,0,0,0-2.52-2.18,24.07,24.07,0,0,0-2.8-1.78,31.9,31.9,0,0,0-6.15-2.51,42.63,42.63,0,0,0-6.5-1.35,43.26,43.26,0,0,0-6.62-.4Z" transform="translate(3.19 56.11)"/><path class="g" d="M215.61,160.14q-3.17.6-6.29,1.46c-2.08.56-4.14,1.2-6.15,2a35.78,35.78,0,0,0-5.85,2.73,16.67,16.67,0,0,0-2.61,1.89,8.15,8.15,0,0,0-2,2.56,8,8,0,0,1,1.92-2.59,16.37,16.37,0,0,1,2.6-1.93,36,36,0,0,1,5.83-2.82c2-.79,4.07-1.45,6.14-2.05s4.18-1.12,6.3-1.55Z" transform="translate(3.19 56.11)"/><path class="g" d="M215.51,150.64c-1.94.07-3.89.2-5.83.37s-3.87.39-5.8.68a55.26,55.26,0,0,0-5.73,1.13,19.22,19.22,0,0,0-5.42,2.14,19.35,19.35,0,0,1,5.4-2.22,56,56,0,0,1,5.72-1.22c1.93-.32,3.87-.56,5.81-.77s3.89-.35,5.84-.45Z" transform="translate(3.19 56.11)"/><path class="g" d="M215.86,147.09c2,0,4,.17,6,.35s4,.45,6,.8a45.73,45.73,0,0,1,5.88,1.41,26,26,0,0,1,2.81,1.11,13,13,0,0,1,2.58,1.56,18.06,18.06,0,0,0-5.42-2.59,45.45,45.45,0,0,0-5.88-1.33q-3-.48-6-.7c-2-.16-4-.26-6-.27Z" transform="translate(3.19 56.11)"/><path class="g" d="M215.69,146.4c.9-.76,1.83-1.48,2.77-2.18s1.93-1.36,2.93-2a27.22,27.22,0,0,1,3.1-1.68,14.54,14.54,0,0,1,3.33-1.13,15,15,0,0,0-3.3,1.2,27.9,27.9,0,0,0-3,1.76c-1,.63-1.93,1.32-2.86,2s-1.84,1.46-2.71,2.24Z" transform="translate(3.19 56.11)"/><path class="g" d="M215.42,147a46.34,46.34,0,0,0-4.24-2.25,42.73,42.73,0,0,0-4.44-1.83,26.77,26.77,0,0,0-4.66-1.19,13.24,13.24,0,0,0-4.78,0,13.29,13.29,0,0,1,4.79-.12,26.11,26.11,0,0,1,4.7,1.11,45.51,45.51,0,0,1,4.5,1.75c1.47.67,2.91,1.39,4.31,2.2Z" transform="translate(3.19 56.11)"/><g class="h"><path class="e" d="M254.66,15.47c-4.08-1.12-29.14-1.74-21.86-4.55s18.41,2.55,18.41,2.55S253.89,2.34,243,3.34c-4.64.43-14.67,4.07-13.44.37C231-.76,248.25-.47,248.25-.47s-17.43-9.22-25.54-1.78c-7.1,6.52-3,11.92-2.74,12.21-.71,2.9-2.76.71-2.76.71s1.19-7.24-8.06-10.78C198.88-4,192.83,6.72,192.83,6.72s8.71-1.39,11.93.8-5.87,1.12-10.44,2-6.74,13.13-6.74,13.13,10.25-6.3,18.06-6.36-11.78,7.85-15.16,10.39S189,41.79,189,41.79,205,25,209.74,24.1,195.8,42.36,193.36,45.94c-2.29,3.38,3.55,12.4,4.25,13.45-1-2,6.17-18.34,15.83-25.37,9.85-7.17-9.3,30.33-9.3,30.33-.1,1.12,6.6,7.27,6.6,7.27-2.34-2.71,7.14-24.47,10-26.55s2.79-1.24-2.87,13.82,3.72,14.87,3.72,14.87c-2.2-3.75,2.77-18.09,4.45-18.41s-2.36,19.81-1.75,18.9c.31-.45,5.84,1.15,5.84,1.15l3.82-3c.29.2-.23-1.76-1-4.51l-3.39-15.2a.21.21,0,0,1,.1-.06c1.68-.32,10.12,13.31,9.46,17.6,0,0,8.8-3.27-2-15.19s-6.23-9.81-2.91-8.59c6.37,2.34,15.4,14.42,14.23,17.8,0,0,4-8.18,3.46-9.19,0,0-30.39-26.42-18.59-23.37,11.55,3,23,14.12,22.83,16.35.28-1.3,2.37-11.77-1-14-3.59-2.44-29-9.66-24.82-12,9-5,24.52,7.25,24.52,7.25S258.74,16.59,254.66,15.47Zm-37.78,7.16c0,1-.89,3.34-1.24,3.41s-1.84-1.1-1.84-1.1a2.43,2.43,0,0,1,.23-1.63c.44-1.06.75-2.09,1.37-2.21A1.43,1.43,0,0,1,216.88,22.63Zm6.37,10.11c0,1.85-1.2,4.37-1.85,4.5A24,24,0,0,1,218,37a3.57,3.57,0,0,1,.14-3c.8-1.91,1.36-3.78,2.47-4A2.57,2.57,0,0,1,223.25,32.74Zm2.49-12.11c.69.27,1.55,1.32,1.5,1.58a12.55,12.55,0,0,1-.43,1.26,3.17,3.17,0,0,1-1.3-.73c-.62-.56-1.25-1-1.17-1.47A1,1,0,0,1,225.74,20.63Zm2-5.45a3.17,3.17,0,0,1-1.31.69c-.81.21-1.54.48-1.88.18a1,1,0,0,1,.23-1.53,3,3,0,0,1,2.15-.39C227.08,14.31,227.7,15.18,227.7,15.18Z" transform="translate(3.19 56.11)"/></g><path class="d" d="M252.73,13.27c-4.09-1.12-29.15-1.74-21.86-4.55s18.41,2.55,18.41,2.55S252,.13,241,1.14c-4.63.43-14.66,4.06-13.43.37C229.1-3,246.32-2.67,246.32-2.67s-17.43-9.22-25.54-1.79c-7.1,6.52-3,11.93-2.74,12.21-.71,2.91-2.77.72-2.77.72s1.2-7.24-8.05-10.78C196.94-6.25,190.9,4.52,190.9,4.52s8.7-1.39,11.93.8-5.87,1.11-10.45,2-6.73,13.13-6.73,13.13,10.25-6.3,18-6.37-11.77,7.86-15.15,10.4-1.47,15.12-1.47,15.12,16-16.79,20.72-17.69-13.93,18.26-16.37,21.84c-2.29,3.37,3.55,12.39,4.25,13.45-1-2,6.17-18.34,15.83-25.37,9.85-7.17-9.31,30.33-9.31,30.33-.1,1.12,6.6,7.27,6.6,7.27-2.33-2.72,7.15-24.47,10-26.55s2.78-1.24-2.88,13.81,3.73,14.88,3.73,14.88c-2.2-3.75,2.77-18.09,4.45-18.41s-2.37,19.8-1.75,18.9c.31-.46,5.84,1.15,5.84,1.15l3.82-3c.29.2-.23-1.76-1-4.52l-3.4-15.19a.24.24,0,0,1,.11-.06c1.67-.32,10.12,13.31,9.46,17.6,0,0,8.79-3.28-2-15.2s-6.24-9.8-2.91-8.58c6.37,2.34,15.4,14.42,14.22,17.8,0,0,4-8.18,3.47-9.19,0,0-30.39-26.42-18.59-23.38,11.54,3,23,14.13,22.83,16.36.28-1.3,2.37-11.77-1-14.06-3.59-2.43-29-9.65-24.82-12,9-5,24.52,7.26,24.52,7.26S256.81,14.38,252.73,13.27ZM215,20.42c0,1-.89,3.35-1.24,3.42s-1.84-1.1-1.84-1.1a2.43,2.43,0,0,1,.23-1.63c.44-1.06.75-2.09,1.36-2.21A1.43,1.43,0,0,1,215,20.42Zm6.37,10.12c0,1.84-1.2,4.37-1.85,4.5a24,24,0,0,1-3.44-.23,3.53,3.53,0,0,1,.14-3c.8-1.92,1.35-3.78,2.47-4A2.57,2.57,0,0,1,221.32,30.54Zm2.49-12.11c.69.26,1.54,1.32,1.5,1.58a12.55,12.55,0,0,1-.43,1.26,3.31,3.31,0,0,1-1.3-.73c-.62-.56-1.25-1-1.18-1.48A1,1,0,0,1,223.81,18.43Zm2-5.45a3.3,3.3,0,0,1-1.32.69c-.8.21-1.54.48-1.87.18a1,1,0,0,1,.23-1.53,3,3,0,0,1,2.15-.39A12.34,12.34,0,0,1,225.77,13Z" transform="translate(3.19 56.11)"/><path class="e" d="M235.71,53.46s-5.46-2.37-4.27.08c.71,1.47,1.88,3,1.8,3.32s-.17.22-.17.22c2.34,4,4.45,8.73,4.11,11C237.18,68,245.67,64.88,235.71,53.46Z" transform="translate(3.19 56.11)"/><path class="e" d="M231,65.69l-.45-2c-.84-.68-2.89-6-2.65-4.77.28,1.5-1.63,5.82-2.62,7.29s-.8,5.3-.77,6.06c1.66.36,3.68,1,3.68,1l3.82-3C232.31,70.41,231.8,68.45,231,65.69Z" transform="translate(3.19 56.11)"/><path class="e" d="M218.68,49.27c-.71,2-1.62,4.41-2.75,7.42-5.66,15,3.73,14.86,3.73,14.86-.59-1-.67-2.77-.43-4.83h0l2.53-12.48a7.24,7.24,0,0,1-2.66,3.38C217,59.26,218.68,49.27,218.68,49.27Z" transform="translate(3.19 56.11)"/><path class="e" d="M252.72,13.23c-1.53-.42-11.88-1.34-16.51-1.75,1,.11,1.61,1.95,4.93,4.37,1.63,1.18,5.77,1.9,7.36,3.8A28,28,0,0,1,252.89,27h0S256.8,14.34,252.72,13.23Z" transform="translate(3.19 56.11)"/><path class="e" d="M253.27,31.83a55.67,55.67,0,0,0-8-3.31l-.08,0h0c-.46.16-3.09,1.15-2.36,1.64s.12,1.62,2.29,3.09c1.69,1.15,2.77,4,3.17,5.22,0,0,0,0,0,0a3.68,3.68,0,0,1,.12.39l0,.1h0c3.62,3.07,5.85,5.86,5.75,6.87C254.47,44.54,256.63,34.12,253.27,31.83Z" transform="translate(3.19 56.11)"/><path class="e" d="M250,52.87s-6.63-5.76-12.5-11.6h0l1.87,3.19,8.54,14.63c.07-.14.13-.29.2-.44C249.1,56.28,250.24,53.44,250,52.87Z" transform="translate(3.19 56.11)"/><path class="e" d="M197.37,19.81h0c-1.88.94-3.81,1.89-5.41,2.71a26.7,26.7,0,0,0-3.4,1.95c-3.39,2.54-1.47,15.12-1.47,15.12s3.29-3.45,7.33-7.31l1.67-1.57a67.43,67.43,0,0,1,4.1-8.29C201.1,21.06,199.5,20.17,197.37,19.81Z" transform="translate(3.19 56.11)"/><path class="e" d="M198.51,39.68c-1.15-.78-4.42,2.12-4.28,2.83.08.42-1.15.45-2.12.4-.28.35-.5.64-.65.86l0,0c-2.26,3.39,3.57,12.38,4.27,13.43-.25-.47,0-1.72.55-3.45.08-.24.17-.48.26-.74-.28-2.17-.53-5.66.43-7.52C198.41,42.68,199.66,40.47,198.51,39.68Z" transform="translate(3.19 56.11)"/><path class="e" d="M207.21,53.89c-1.23,3.41-2.6,3.59-2.7,3.6h0c-1.37,2.81-2.31,4.65-2.31,4.65-.1,1.11,6.4,7.09,6.6,7.27-.55-.64-.45-2.33.08-4.57h0c0-.2-.49-7.76.42-11.83S208.48,50.37,207.21,53.89Z" transform="translate(3.19 56.11)"/><path class="e" d="M241.86,1.09a2.57,2.57,0,0,1,.52,1.06q.08.27.15.63C242.77,4.1,237.14,5,240,5.52c1.63.33,3.79,2.44,5.35,4.18l1,.34c1.82.66,3,1.23,3,1.23S251.83.7,241.86,1.09Z" transform="translate(3.19 56.11)"/><path class="e" d="M246.31-2.67S238.14-7,230.38-7.33h0a4.93,4.93,0,0,1-.58,1.84,5.18,5.18,0,0,1-1.54,1.78c-2,1.47-.65,5.22-.65,5.22C229.1-3,246.31-2.67,246.31-2.67Z" transform="translate(3.19 56.11)"/><path class="e" d="M210.19-.83a16.89,16.89,0,0,0-3-1.47C197.05-6.19,191,4.28,190.89,4.53h0s9.17-3.72,12.2-2.91c1.88.5,2.12-.65,2.19-.78C206.69-1.77,210.13-.67,210.19-.83Z" transform="translate(3.19 56.11)"/><path class="f" d="M235.65,53.41c-.17-.21-.35-.41-.54-.62A73.81,73.81,0,0,1,229.47,46h0c-.12,0-3.38.31-2.53,2.32.27.62,1.09,1.78,1.28,2.26a4.31,4.31,0,0,1,.78.71,35.09,35.09,0,0,1,4.07,5.77.25.25,0,0,0,.24-.19c.08-.28-.08-1-.79-2.5C231.35,52,235.49,53.35,235.65,53.41Z" transform="translate(3.19 56.11)"/><path class="f" d="M247.86,59.13,239.32,44.5l-1.86-3.19h0c-1-1-2.08-2.09-3-3.11,0,0-2.58.9-.43,3.89a8.15,8.15,0,0,1,.76,1.29,5.39,5.39,0,0,1,.54,2.58c5.84,4.12,12.2,13.26,11.21,16.14C246.54,62,247.16,60.72,247.86,59.13Z" transform="translate(3.19 56.11)"/><path class="f" d="M252.92,27h0c0-2.73-8.71-14.73-10.81-14.95h0c-2.78-.25-5.6-.53-7.87-.87,0,0-4.35,4-.87,5.07.3.09,3.38.58,3.69.74l8.42,5.24h0A54.47,54.47,0,0,1,252.92,27Z" transform="translate(3.19 56.11)"/><path class="f" d="M207.17,34.18a5.55,5.55,0,0,0-3.87-4.25h0c-4,4.76-9.15,10.33-11.21,12.9,1,0,2.21,0,2.12-.41-.13-.7,3.14-3.6,4.29-2.82s-.1,3-1.56,5.82c-1,1.87-.72,5.36-.43,7.53a57.25,57.25,0,0,1,7.22-13.09,44.82,44.82,0,0,1,3.44-4.17A3.84,3.84,0,0,0,207.17,34.18Z" transform="translate(3.19 56.11)"/><path class="f" d="M213.16,43.08a3.48,3.48,0,0,0-2-.23c-.83,2-1.75,4.15-2.68,6.21-1.39,3.08-2.78,6-3.9,8.31.09,0,1.47-.19,2.69-3.59s3-5,2.08-.89-.42,11.63-.41,11.83a78.27,78.27,0,0,1,4.74-13l.15-.32a16.27,16.27,0,0,1-.19-2.72C213.54,44.55,216.94,44.72,213.16,43.08Z" transform="translate(3.19 56.11)"/><path class="f" d="M230.56,63.67l-1-4.62L229,56.63a5,5,0,0,0-.68,0c-2.35.08-2.65,1-3.26,4.2a5,5,0,0,1-.2.73l-1.12.59-.12.88c-.72,4.81-1.55,9.48-1.25,9,.12-.18,1.06,0,2.15.2,0-.76-.12-4.74.78-6.07s2.36-2.45,2.07-3.94C227.12,61,229.72,63,230.56,63.67Z" transform="translate(3.19 56.11)"/><path class="f" d="M199.34,8.13a4.43,4.43,0,0,1-2,3.52l-.14.08c-1.76,1-6.17,1.29-9.48,1.39a44.16,44.16,0,0,0-2,7.3,58,58,0,0,1,10.56-4.91c.93-.31,1.88-.59,2.84-.82a4.86,4.86,0,0,0,0-.56c0-3.22.19-2.53,1.4-3.18C201.25,10.53,200.21,9.12,199.34,8.13Z" transform="translate(3.19 56.11)"/><path class="f" d="M242.52,2.78a6.07,6.07,0,0,0-.14-.63,2.38,2.38,0,0,0-.53-1.06h0c-.26,0-.53,0-.81,0-.54.05-1.14.14-1.79.26-2.75.5-6.32,1.47-8.81,1.7a11.35,11.35,0,0,1-.25,1.41c-.46,1.91-4.33,1.65-.47,3.28a19.28,19.28,0,0,0,1.87.69,14.53,14.53,0,0,1,4.64-.57,31.94,31.94,0,0,1,9.09,1.79C243.76,8,241.59,5.85,240,5.52,237.13,5,242.76,4.1,242.52,2.78Z" transform="translate(3.19 56.11)"/><path class="f" d="M197.36,19.81l1.13,1,1.66,1.71a72,72,0,0,0-4,8.09c1.87-1.74,3.81-3.48,5.61-4.95l1.06-.84a17.09,17.09,0,0,0,.52-2.52C203.73,19.5,197.54,19.79,197.36,19.81Z" transform="translate(3.19 56.11)"/><path class="e" d="M199.24,6.83l-2.46.07a31.25,31.25,0,0,0-4.4.38c-1.43.28-2.62,1.65-3.58,3.42a23,23,0,0,0-1.11,2.41c3.4-.1,8-.44,9.62-1.46A4.63,4.63,0,0,0,199.24,6.83Z" transform="translate(3.19 56.11)"/><path class="i" d="M248.47,39a.62.62,0,0,0,0-.11c0-.08-.07-.22-.13-.39s0,0,0,0c-.39-1.2-1.47-4.07-3.17-5.22-2.16-1.47-1.48-2.54-2.29-3.08s1.9-1.48,2.37-1.65c-5.31-2-11.74-4.24-15-6.07a8,8,0,0,1-1.81-1.27,9.5,9.5,0,0,0-3.08,4.88c-.22,1.39,0,1.9,2,3.34-.27-1.12,2.42-2.48,4.63-1.91.46.12,2.64.84,3.09,1C240.83,30.29,244.41,35.54,248.47,39Z" transform="translate(3.19 56.11)"/><path class="f" d="M234.65,38.84c-.32-.33.36,1.71,0,1.39l-1.61-1.79c-.66-.54-1.11-1.62-2-1.83-4.77-1.16-3.9-9.46-4.79-14.14-.28-1.44,3-4.26,3.24-6.52.18-1.49-2.52-2.36-2.75-3.77-.32-1.89-3-2.92-3-4.71,0-1.43,3.78-2.53,3.3-3.78S226-2.66,224.85-3.42c-1.85-1.2-4.69,2.28-7,2.51a7.7,7.7,0,0,0,.24,8.55c-.71,2.9-2.76.72-2.76.72a9.26,9.26,0,0,0-2.54-7.24,5.7,5.7,0,0,0-.94,1.08c-2.24,3.29,2.24,6.05,1.59,8.56-.26,1-9.94-2.78-9.91-1,0,1.38,5.88,2.31,8,4.76s.13,6.2.46,7c0-.15.13-.32.2-.5.45-1.06.75-2.1,1.37-2.22A1.43,1.43,0,0,1,215,20.31c0,1-.88,3.34-1.24,3.41a2.12,2.12,0,0,1-1.1-.36c.62,1.22,0,1.68-1.07,2.65-.25.24-2.14,2-2.19,2.37-.11.92,1,3,3.91,2.43,1.7.06,3.48.65-.1,8.84-.76,1.54.58,1.41,1.46,2.61a5,5,0,0,0,2.81,2.18c1.66-3.41.95-3.81,1.86-4.47,2.36-1.72,3.09-1,0,7.55,4.16.14,5.89-1,9.54-2.5-5.08-6.35-1-5.52,1.72-4.51.79.29,2.76,2.36,3.6,2.91C236.22,41.3,236,40.61,234.65,38.84Zm-13.27-8.42c0,1.85-1.2,4.38-1.85,4.5a28.67,28.67,0,0,1-3.5-.11,5.17,5.17,0,0,1,.2-3.64c.78-1.92,1.36-3.29,2.47-3.5A2.57,2.57,0,0,1,221.38,30.42Zm2.49-12.11c.7.27,1.55,1.32,1.51,1.58s-.44,1.26-.44,1.26a3.17,3.17,0,0,1-1.3-.73c-.61-.56-1.25-1-1.17-1.47A1,1,0,0,1,223.87,18.31Zm-1.23-4.58a.86.86,0,0,1,.29-1.49,3.27,3.27,0,0,1,2-.31,12.34,12.34,0,0,1,.81,1.05,3.52,3.52,0,0,1-1.25.58C223.71,13.76,223,14,222.64,13.73Z" transform="translate(3.19 56.11)"/><path class="g" d="M216.49,9.39c1.57,4.1,2.93,8.3,4.15,12.53.6,2.11,1.16,4.25,1.67,6.39s.95,4.3,1.34,6.46c.77,4.34,1.33,8.72,1.78,13.11.22,2.19.42,4.39.61,6.58l.28,3.3c.1,1.1.19,2.2.37,3.29-.17-1.09-.24-2.19-.33-3.29l-.23-3.3q-.24-3.3-.52-6.6c-.39-4.4-.89-8.79-1.61-13.15q-.54-3.26-1.26-6.5c-.48-2.16-1-4.3-1.58-6.44-1.17-4.26-2.47-8.48-4-12.64Z" transform="translate(3.19 56.11)"/><path class="g" d="M225.21,46c.93.66,1.83,1.37,2.7,2.09s1.74,1.48,2.56,2.27a26.32,26.32,0,0,1,2.35,2.49,13.9,13.9,0,0,1,1.89,2.84,14.28,14.28,0,0,0-1.82-2.9,27.88,27.88,0,0,0-2.29-2.56c-.8-.82-1.65-1.59-2.51-2.35s-1.75-1.48-2.67-2.17Z" transform="translate(3.19 56.11)"/><path class="g" d="M224.93,44.45c-.84,1.28-1.61,2.59-2.34,3.92s-1.43,2.68-2.06,4.07c-.32.69-.6,1.4-.89,2.1s-.53,1.42-.74,2.16a15.47,15.47,0,0,0-.76,4.47,15.38,15.38,0,0,1,.85-4.45c.22-.72.51-1.42.78-2.13s.59-1.39.93-2.07q1-2.06,2.12-4c.76-1.31,1.56-2.6,2.4-3.85Z" transform="translate(3.19 56.11)"/><path class="g" d="M223.83,35.44c2,1.07,3.88,2.24,5.76,3.45s3.72,2.49,5.5,3.85a64.16,64.16,0,0,1,5.13,4.33,36.07,36.07,0,0,1,4.45,5,36.72,36.72,0,0,0-4.38-5.1,64.45,64.45,0,0,0-5.09-4.4c-1.77-1.39-3.6-2.68-5.47-3.93S226,36.23,224,35.12Z" transform="translate(3.19 56.11)"/><path class="g" d="M223.44,33.24c-1.4,1.31-2.73,2.68-4,4.09s-2.53,2.87-3.69,4.39a36.93,36.93,0,0,0-3.16,4.78,19.69,19.69,0,0,0-1.2,2.6,10.3,10.3,0,0,0-.65,2.79,10.52,10.52,0,0,1,.69-2.77,20.33,20.33,0,0,1,1.23-2.58,38.5,38.5,0,0,1,3.23-4.71c1.18-1.49,2.44-2.93,3.74-4.31s2.66-2.74,4.07-4Z" transform="translate(3.19 56.11)"/><path class="g" d="M221.85,25.62a46.77,46.77,0,0,1,7,.79,60.74,60.74,0,0,1,13.44,4.12,59.79,59.79,0,0,1,6.27,3.22,59,59,0,0,0-6.24-3.3,56.94,56.94,0,0,0-6.58-2.54,57.71,57.71,0,0,0-6.84-1.77,47.1,47.1,0,0,0-7-.88Z" transform="translate(3.19 56.11)"/><path class="g" d="M221.15,22.84A65.71,65.71,0,0,0,214.42,26,60.53,60.53,0,0,0,208.1,30a40.79,40.79,0,0,0-5.66,4.83,28.36,28.36,0,0,0-2.4,2.84,22.2,22.2,0,0,0-1.92,3.18,21.89,21.89,0,0,1,2-3.16,29.26,29.26,0,0,1,2.42-2.8,40.39,40.39,0,0,1,5.7-4.74,58.55,58.55,0,0,1,6.35-3.84,61.93,61.93,0,0,1,6.73-3.09Z" transform="translate(3.19 56.11)"/><path class="g" d="M220,18.51a30,30,0,0,1,7-2.44,34.6,34.6,0,0,1,7.39-.84,33.54,33.54,0,0,1,7.4.79,35.35,35.35,0,0,1,7.05,2.41,35.88,35.88,0,0,0-7-2.5,33.67,33.67,0,0,0-7.42-.88,34.42,34.42,0,0,0-7.44.76,30.82,30.82,0,0,0-7.11,2.38Z" transform="translate(3.19 56.11)"/><path class="g" d="M219,15.49a44.11,44.11,0,0,0-6.77,1.36,48.24,48.24,0,0,0-6.5,2.3c-.52.22-1.05.45-1.57.71l-1.54.75c-1,.56-2,1.08-3,1.71a44.15,44.15,0,0,0-5.57,4,45.82,45.82,0,0,1,5.61-4c1-.61,2-1.11,3-1.66l1.55-.73c.51-.25,1-.47,1.57-.69a49.7,49.7,0,0,1,6.5-2.2,43,43,0,0,1,6.72-1.26Z" transform="translate(3.19 56.11)"/><path class="g" d="M218.27,12.94c-1.39-.53-2.8-1-4.22-1.36a42.19,42.19,0,0,0-4.32-1,29.42,29.42,0,0,0-4.4-.44,15.76,15.76,0,0,0-4.38.5,15.74,15.74,0,0,1,4.38-.41,26.75,26.75,0,0,1,4.37.53A42.44,42.44,0,0,1,214,11.84c1.4.42,2.8.89,4.15,1.43Z" transform="translate(3.19 56.11)"/><path class="g" d="M218.52,13.75a27.9,27.9,0,0,1,3.6-3.35,29.74,29.74,0,0,1,4.13-2.72,23.29,23.29,0,0,1,4.56-1.88l1.2-.31c.4-.09.81-.14,1.22-.22l.61-.1.62,0L235.7,5l-1.24.06-.62,0-.62.09c-.41.06-.82.11-1.22.19l-1.21.3a22.14,22.14,0,0,0-4.63,1.81,28.32,28.32,0,0,0-4.2,2.66,28.57,28.57,0,0,0-3.72,3.33Z" transform="translate(3.19 56.11)"/><path class="g" d="M223.82.65a2.68,2.68,0,0,0-1.26,1,11.18,11.18,0,0,0-.93,1.32c-.56.91-1.06,1.87-1.53,2.83q-1.4,2.91-2.53,5.93l.34.12c.7-2,1.48-4,2.35-6A30.85,30.85,0,0,1,221.71,3a11.77,11.77,0,0,1,.88-1.33A2.62,2.62,0,0,1,223.82.65Z" transform="translate(3.19 56.11)"/><path class="g" d="M217.48,10.61q-2.79-1.72-5.7-3.24a48.26,48.26,0,0,0-6-2.64,46.11,46.11,0,0,1,5.9,2.8c1.9,1.06,3.77,2.18,5.58,3.38Z" transform="translate(3.19 56.11)"/><g class="h"><path class="e" d="M63.92,29.93c-3.54-6.85-25.33-8-18.16-10.21S64,24.44,64.05,25.91A16.35,16.35,0,0,0,52.85,9.14C45.65,6.47,38.7,6.9,37.07,8.82c-.7.82-1.17,3.11-1.75,4.93l-.06.19,0,.07c-.43,1.31-.93,2.31-1.62,2.2a.62.62,0,0,1-.19-.07c-1.3-.72.42-6.44-.74-8.26-1.27-2-7.35-4.58-15-4.5-7.13.07-14.44,9.78-15.44,11.17C3.59,13.19,15.14,11.49,21,15.66,27.1,20,3.15,16.94.53,19.55S-2,30.45-2,30.45c.8-3,19.39-6.61,22.81-5.57S1.3,31.18-1.35,34.39s.54,15.66.54,15.66c-.57-5.44,20.12-17,23.89-15.92S13.53,40,10.24,42.37c-2,1.4-8.39,5.93-9.45,8.31S4.28,62.81,4.28,62.81C4,58.93,21.34,43.7,23.48,45.09s-4.6,8.79-9.66,11.07-7.93,6.76-7.69,9.72,4.66,8.76,4.66,8.76c-1.28-4.77,10.32-12.91,11-12.5s-.39,5.08-3.49,7.66a76.07,76.07,0,0,0-5.74,6.06c3.14,1.16,9.53,8.43,9.53,8.43s9.21-4.72,12.55-4.82a90.72,90.72,0,0,0-2.86-9.79c-1.57-3.89-1.49-9.74-.76-9.93s8.39,15,5.64,19.12c0,0,6.37-1.83,7.55-4.56s2.5-8.62-3.22-16c-4.27-5.5-9.4-10.86-6.92-11.49s14.69,15.42,13.19,19c0,0,6.78-3.87,6.53-6.47s-5.68-10-6.31-10.89C45,45.1,34,36.4,37.9,36.56S57.74,54.29,55.47,59.27c0,0,7-10.78,5.5-14.67S39.41,28.41,43,28.51s18.62,7.83,18.41,11C61.39,39.47,65.62,33.22,63.92,29.93Zm-28.2-.38a2,2,0,0,1,2.7.37,2,2,0,0,1,.44,2.69c-.63.64-2.71.11-3.58-.73S35.09,30.19,35.72,29.55Zm-10,6.16.25,0a2.73,2.73,0,0,1,2,3.28c-.26,1.59-2.67,3.16-4,2.93s-1.16-2.15-.9-3.74a3.53,3.53,0,0,1,.14-.56A2.69,2.69,0,0,1,25.68,35.71ZM26,20.89a2.18,2.18,0,0,1,3.09,0c.87.84.7,3.38-.14,4.25s-1.49.28-2.24-.41l-.35-.33a3,3,0,0,1-.82-1.73A2.06,2.06,0,0,1,26,20.89Z" transform="translate(3.19 56.11)"/></g><path class="d" d="M63.14,27.65C59.6,20.8,37.81,19.61,45,17.44s18.23,4.73,18.29,6.2A16.36,16.36,0,0,0,52.07,6.86c-7.2-2.67-14.15-2.24-15.78-.32-.7.82-1.17,3.12-1.75,4.94l-.06.18,0,.07c-.43,1.31-.93,2.32-1.62,2.2a.62.62,0,0,1-.19-.07c-1.3-.72.42-6.44-.74-8.26-1.27-2-7.36-4.58-15-4.5C9.75,1.17,2.44,10.88,1.44,12.27c1.37-1.36,12.92-3.06,18.78,1.12,6.1,4.34-17.85,1.27-20.47,3.88S-2.76,28.18-2.76,28.18c.8-3,19.39-6.62,22.81-5.58S.52,28.9-2.13,32.11s.54,15.66.54,15.66c-.57-5.44,20.12-17,23.89-15.91s-9.55,5.87-12.84,8.23C7.51,41.49,1.07,46,0,48.4S3.5,60.53,3.5,60.53c-.28-3.88,17.05-19.11,19.2-17.72S18.1,51.61,13,53.88,5.11,60.64,5.35,63.6,10,72.36,10,72.36c-1.28-4.77,10.32-12.91,11-12.5s-.39,5.08-3.49,7.66a77.88,77.88,0,0,0-5.74,6.06C14.88,74.74,21.27,82,21.27,82s9.21-4.71,12.55-4.82A90.72,90.72,0,0,0,31,67.4c-1.57-3.89-1.49-9.74-.76-9.92s8.39,15,5.64,19.11c0,0,6.37-1.83,7.55-4.56s2.5-8.62-3.22-16c-4.27-5.51-9.4-10.87-6.92-11.49S47.94,60,46.44,63.54c0,0,6.77-3.87,6.53-6.47s-5.68-10-6.31-10.89c-2.41-3.36-13.47-12.06-9.55-11.9S57,52,54.69,57c0,0,7-10.78,5.5-14.67s-21.56-16.19-18-16.09,18.62,7.83,18.41,11C60.61,37.19,64.84,30.94,63.14,27.65Zm-28.2-.38a2,2,0,0,1,2.7.38,2,2,0,0,1,.44,2.68c-.63.64-2.71.11-3.58-.73S34.31,27.91,34.94,27.27Zm-10,6.16a1.07,1.07,0,0,1,.25,0,2.72,2.72,0,0,1,2,3.27c-.26,1.59-2.67,3.16-4,2.94s-1.16-2.16-.9-3.75a3.53,3.53,0,0,1,.14-.56A2.68,2.68,0,0,1,24.9,33.43Zm.36-14.82a2.18,2.18,0,0,1,3.09,0c.87.84.7,3.38-.14,4.25s-1.49.28-2.25-.41c-.11-.1-.23-.21-.34-.33a2.93,2.93,0,0,1-.82-1.73A2.06,2.06,0,0,1,25.26,18.61Z" transform="translate(3.19 56.11)"/><path class="d" d="M34.48,11.66l0,.07Z" transform="translate(3.19 56.11)"/><path class="f" d="M32.84,13.93a.62.62,0,0,1-.19-.07.49.49,0,0,0,.17.06c.68.11,1.2-.88,1.64-2.19C34,13,33.53,14.05,32.84,13.93Z" transform="translate(3.19 56.11)"/><path class="f" d="M34.54,11.48l-.06.18Z" transform="translate(3.19 56.11)"/><path class="f" d="M34.55,11.45v0l-.06.18,0,.07c-.43,1.31-.93,2.32-1.62,2.2a.62.62,0,0,1-.19-.07c-1.13-.55-.1-4.65-.4-7.06-1.38.46-6.86.19-7.52,4.19-.4,2.5-4.61,7.2-4.15,8.21.27.58,2.61.54,4.22,1.16a2.06,2.06,0,0,1,.46-1.75,2.18,2.18,0,0,1,3.09,0c.87.84.7,3.38-.14,4.25s-1.49.28-2.25-.41c-1.6,2-9.27,5.39-8.93,6.48.58,1.9,9.74.63,9.46,2.34a4.34,4.34,0,0,1-1.59,2.19,1.07,1.07,0,0,1,.25,0,2.72,2.72,0,0,1,2,3.27c-.26,1.59-2.67,3.16-4,2.94s-1.16-2.16-.9-3.75a3.53,3.53,0,0,1,.14-.56c-2.13,1.5-4,2.75-2.58,3.24,2.89,1,4.41,5.42,8.35,4.31s4.61,2.36,5.6-3.66,3.07-6.5,7.47-8.27c3.56-1.43-4.48-4.4-4.46-8.83,0-1.15,4.75-7.82,4.55-9C40.82,10.65,34.88,12.3,34.55,11.45Zm.39,15.82a2,2,0,0,1,2.7.38,2,2,0,0,1,.44,2.68c-.63.64-2.71.11-3.58-.73S34.31,27.91,34.94,27.27Z" transform="translate(3.19 56.11)"/><path class="e" d="M33.82,77.2A90.66,90.66,0,0,0,31,67.4a17.08,17.08,0,0,1-1-4c-.08-.48-.13-1-.17-1.41-1.48-1.52-5.36.58-7.42,5.3-1.83,4.21-1.17,5.49-5.22,7.07-1.49.58-5.2-.89-5.37-.81h0C14.88,74.74,21.27,82,21.27,82S30.48,77.3,33.82,77.2Z" transform="translate(3.19 56.11)"/><path class="e" d="M40.3,56.21,40.16,56l-.36-.46A4.55,4.55,0,0,0,37,60.48c.42,4.07-.94,9.48-1.08,10v0c.6,2.56.73,4.84-.1,6.09.2,0,6.38-1.87,7.54-4.55S45.86,63.51,40.3,56.21Z" transform="translate(3.19 56.11)"/><path class="e" d="M53,57.07c-.11-1.25-1.45-3.63-2.86-5.86-.65-1-1.32-2-1.9-2.85-3.34-1.78-8.23-2.81-6.51.17,1.25,2.15,2.6,6.68,3.54,10.2.95,1.91,1.48,3.54,1.28,4.52a1.23,1.23,0,0,1-.08.29S53.22,59.67,53,57.07Z" transform="translate(3.19 56.11)"/><path class="e" d="M60.22,42.32c-.51-1.33-3.18-3.64-6.35-6.1C52.94,35.49,52,34.75,51,34c-1.78.66-3.24,2.2-1.09,4.24S53.58,48.19,54.25,53c.13.33.25.65.34,1a4.37,4.37,0,0,1,.13,3C54.89,56.71,61.69,46.16,60.22,42.32Z" transform="translate(3.19 56.11)"/><path class="e" d="M63.27,23.62A16.31,16.31,0,0,0,52.93,7.19l-.86-.34h0c0,2.11.41,5.95,2.77,8.05a20.29,20.29,0,0,1,3.9,5.21l.11.06C61.44,21.56,63.25,23,63.27,23.62Z" transform="translate(3.19 56.11)"/><path class="e" d="M23.93,1.78a31.83,31.83,0,0,0-7-.69C9.76,1.16,2.46,10.87,1.45,12.26c1-1,5.37-5.81,10.94-4.87,3.63,1,5.09-.35,6.25-1.82C20.57,3.12,21.7,3.26,23.93,1.78Z" transform="translate(3.19 56.11)"/><path class="e" d="M13.1,22.87c2.17-3.68-8-4.5-11.12-6.41-.35.06-.66.12-.95.2a2.83,2.83,0,0,0-1.28.6c-2.61,2.61-2.51,10.9-2.51,10.9.46-1.72,6.68-3.63,12.59-4.76Z" transform="translate(3.19 56.11)"/><path class="e" d="M6.16,28.21l-.77.27C1.79,29.75-1.27,31-2.14,32.09c-2.62,3.17.46,15.34.54,15.65a2.93,2.93,0,0,1,.32-1.55,12.71,12.71,0,0,1,3.76-6.57A36.45,36.45,0,0,0,6,36.32C7.93,34.77,7.71,30.62,6.16,28.21Z" transform="translate(3.19 56.11)"/><path class="e" d="M7.73,47.32c1.11-1.65,1.95-5.43,2.37-7.64-.24.14-.46.28-.64.41C7.51,41.49,1.07,46,0,48.4S3.5,60.53,3.5,60.53c-.1-1.35,2-4.09,4.75-7C7.53,51.74,6.67,48.89,7.73,47.32Z" transform="translate(3.19 56.11)"/><path class="e" d="M19.45,60.56c-1.22-1.44-4.94-5.09-8.28-.9a18.28,18.28,0,0,1-5.62,4.92,1.87,1.87,0,0,0,.07.22c1,3,4.28,7.41,4.39,7.56-.88-3.29,4.38-8.19,7.93-10.77C18.49,61.18,19,60.83,19.45,60.56Z" transform="translate(3.19 56.11)"/><path class="e" d="M63.14,27.65c-.84-1.64-2.73-2.95-5-4l-1-.43a23.61,23.61,0,0,0-5,3.53c-1.81,1.92.48,1.19,1.87,3.75a11.27,11.27,0,0,0,.83,1.29,34.29,34.29,0,0,1,3.52,2.44c1.41,1.16,2.29,2.22,2.24,3C60.61,37.19,64.84,30.94,63.14,27.65Z" transform="translate(3.19 56.11)"/><path class="f" d="M48.19,48.36c-.75-1.1-1.36-1.92-1.54-2.18-1.43-2-5.91-5.86-8.49-8.65,0,0-2.91,1.68-1.22,4a3.56,3.56,0,0,1,.45.83c.81,2.12-.65,4.37-.71,4.47h0a54.49,54.49,0,0,1,8.55,11.87c-.94-3.52-2.3-8-3.54-10.2C40,45.55,44.85,46.58,48.19,48.36Z" transform="translate(3.19 56.11)"/><path class="f" d="M63.12,23.28a14.12,14.12,0,0,0-4.3-3.13l-.11-.06a20.46,20.46,0,0,0-3.9-5.21C52.46,12.79,52.06,9,52,6.85c-6.28-2.33-12.37-2.3-14.9-1,3.88,1.2,13.56,5.87,14.21,8.3a8.62,8.62,0,0,1,.24,3.24C57,18.59,62.2,21.91,63.12,23.28Z" transform="translate(3.19 56.11)"/><path class="f" d="M26.65,2.53a25.79,25.79,0,0,0-2.74-.74c-2.23,1.47-3.35,1.33-5.28,3.77C17.47,7,16,8.38,12.38,7.38,6.91,6.46,2.57,11.12,1.5,12.2,3,11,12.24,9.59,18.28,12.29a6.22,6.22,0,0,0,2.64-1.79C22.72,8.33,25.32,4.52,26.65,2.53Z" transform="translate(3.19 56.11)"/><path class="f" d="M17.54,22.42c-.42-1-1.91-4.15-4.14-4.51A13.43,13.43,0,0,1,9,16a54,54,0,0,0-7,.42c3.14,1.91,13.27,2.73,11.1,6.4A42.32,42.32,0,0,1,17.54,22.42Z" transform="translate(3.19 56.11)"/><path class="f" d="M6.17,28.23C7.7,30.64,7.92,34.77,6,36.32a37,37,0,0,1-3.56,3.29,12.79,12.79,0,0,0-3.76,6.57,3.1,3.1,0,0,0-.33,1.53h0s0,0,0,0c-.29-2.89,5.35-7.48,11.3-11a3.78,3.78,0,0,1,.61-3.8c1.43-1.85,2.44-5.4,2.86-7.06C10.94,26.63,8.47,27.43,6.17,28.23Z" transform="translate(3.19 56.11)"/><path class="f" d="M16.59,36.43c-2.44,1.16-5,2.33-6.5,3.24-.41,2.21-1.25,6-2.37,7.64s-.2,4.42.52,6.19c.62-.64,1.27-1.3,1.95-2a41.24,41.24,0,0,1,3.26-7.69A37.13,37.13,0,0,0,16.59,36.43Z" transform="translate(3.19 56.11)"/><path class="f" d="M22.19,50.33C20.75,52.57,13.1,55,9.56,56h0c-2.86,2.35-4.39,5.38-4.21,7.57a5.79,5.79,0,0,0,.2,1,18.28,18.28,0,0,0,5.62-4.92c3.34-4.19,7.05-.55,8.28.9a6,6,0,0,1,1.35-.7C21.72,56.16,23.65,48.05,22.19,50.33Z" transform="translate(3.19 56.11)"/><path class="f" d="M30.52,57.76c-.3-3.35-.88-8.92-1.4-9.65-.77-1.06-3.66,4.54-4.32,8.56-.35,2.11-2.39,4.53-4.25,6.35,0,0,0,0,0,0a10.94,10.94,0,0,1-3.08,4.48,78.23,78.23,0,0,0-5.74,6.06h0c.17-.08,3.88,1.39,5.37.81,4.05-1.58,3.39-2.86,5.22-7.06,2.06-4.73,5.94-6.82,7.42-5.31-.21-2.42,0-4.42.42-4.53C30.25,57.45,30.37,57.55,30.52,57.76Z" transform="translate(3.19 56.11)"/><path class="f" d="M39.8,55.56c-2.34-3-4.86-5.88-6.22-8A4.7,4.7,0,0,0,32,50c-.25,1.54.75,3.63,2.09,6.47.9,1.9-.11,4.6-.87,6.19a45.79,45.79,0,0,1,2.76,7.78v0c.13-.5,1.49-5.9,1.07-10A4.57,4.57,0,0,1,39.8,55.56Z" transform="translate(3.19 56.11)"/><path class="f" d="M54.59,54c-.1-.31-.21-.62-.35-1-.67-4.82-2.06-12.57-4.36-14.75-2.14-2-.7-3.58,1.07-4.24-1.94-1.46-3.88-2.88-5.47-4.11.13,1.29.39,4,.41,5.21,0,1.63,3.45,4.94,4,6.89a5.71,5.71,0,0,1-.36,3.47C53.09,50,55.69,54.75,54.68,57a.74.74,0,0,0,.08-.12A4.56,4.56,0,0,0,54.59,54Z" transform="translate(3.19 56.11)"/><path class="f" d="M57.14,23.18c-4.49-1.92-10.07-3.06-12.45-4-1.68.62-4.49,1.25-4.87,2.05-.53,1.14,3.1,1.74,5.29,3.32a12.46,12.46,0,0,1,3,3.66h0a63,63,0,0,1,6.73,3.56A10.46,10.46,0,0,1,54,30.46c-1.39-2.56-3.68-1.83-1.87-3.75A24,24,0,0,1,57.14,23.18Z" transform="translate(3.19 56.11)"/><path class="g" d="M32.5,13.92c-.12,4.72-.4,9.45-.89,14.14-.25,2.35-.56,4.69-1,7l-.33,1.73-.39,1.73c-.29,1.13-.63,2.27-1,3.41-1.3,4.55-2.57,9.11-3.69,13.71-.56,2.3-1.07,4.61-1.5,6.94a39,39,0,0,0-.8,7.05,39.52,39.52,0,0,1,.88-7q.7-3.48,1.59-6.92c1.17-4.58,2.5-9.12,3.85-13.65.34-1.14.69-2.27,1-3.42l.41-1.73.36-1.75c.44-2.33.77-4.68,1-7,.55-4.71.89-9.44,1.07-14.18Z" transform="translate(3.19 56.11)"/><path class="g" d="M27.55,47.23c1.41,1.29,2.8,2.59,4.17,3.93a53,53,0,0,1,3.92,4.16c.14.19.3.37.42.57l.2.29.17.32.34.62.29.65a15.16,15.16,0,0,1,.85,2.73,16.47,16.47,0,0,1,.15,5.69A16.59,16.59,0,0,0,38,60.48a14.8,14.8,0,0,0-.81-2.76l-.29-.66c-.1-.21-.22-.42-.33-.64l-.17-.32-.19-.3c-.13-.21-.28-.39-.43-.59A55.4,55.4,0,0,0,31.9,51q-2-2-4.12-4Z" transform="translate(3.19 56.11)"/><path class="g" d="M26.67,50.3c-2.53,1.17-5,2.4-7.46,3.74-1.21.68-2.42,1.38-3.58,2.15A20,20,0,0,0,14,57.43a7.4,7.4,0,0,0-.75.73,2.11,2.11,0,0,0-.5.9,2,2,0,0,1,.52-.89,6.31,6.31,0,0,1,.76-.7,20,20,0,0,1,1.69-1.21c1.17-.75,2.39-1.42,3.61-2.07,2.46-1.28,5-2.46,7.52-3.57Z" transform="translate(3.19 56.11)"/><path class="g" d="M30.37,37.79c1.76,1.14,3.47,2.37,5.14,3.65s3.3,2.62,4.87,4A47,47,0,0,1,44.79,50a21.11,21.11,0,0,1,3.4,5.3,21,21,0,0,0-3.33-5.35,46.22,46.22,0,0,0-4.37-4.59c-1.54-1.44-3.16-2.8-4.82-4.11s-3.36-2.56-5.11-3.73Z" transform="translate(3.19 56.11)"/><path class="g" d="M29.29,41.47c-1.49-.31-3-.52-4.48-.68a35.66,35.66,0,0,0-4.51-.2,19.32,19.32,0,0,0-4.48.53,10,10,0,0,0-2.12.77,5.94,5.94,0,0,0-1.78,1.36,5.86,5.86,0,0,1,1.8-1.32,10,10,0,0,1,2.12-.73,20.27,20.27,0,0,1,4.46-.44,37.47,37.47,0,0,1,4.49.29c1.48.18,3,.43,4.42.75Z" transform="translate(3.19 56.11)"/><path class="g" d="M31.93,27.12a44.12,44.12,0,0,0-6.8-.09,45,45,0,0,0-6.73.91A31.79,31.79,0,0,0,12,30a26.85,26.85,0,0,0-3,1.6,24.3,24.3,0,0,0-2.71,2,22.33,22.33,0,0,1,2.74-2,25.06,25.06,0,0,1,3-1.56,31.54,31.54,0,0,1,6.45-2,46,46,0,0,1,13.45-.65Z" transform="translate(3.19 56.11)"/><path class="g" d="M31.63,30.42c2.1.59,4.19,1.27,6.25,2S42,34,44,35a37,37,0,0,1,5.69,3.28,16.86,16.86,0,0,1,2.48,2.14,8,8,0,0,1,1.75,2.76,7.85,7.85,0,0,0-1.72-2.79,15.93,15.93,0,0,0-2.46-2.18A36.78,36.78,0,0,0,44,34.81c-2-1-4-1.83-6.05-2.61s-4.14-1.49-6.25-2.11Z" transform="translate(3.19 56.11)"/><path class="g" d="M32.54,20.8c2,.23,3.93.53,5.88.87s3.9.74,5.83,1.2A56.39,56.39,0,0,1,50,24.51a19.79,19.79,0,0,1,5.31,2.63A20,20,0,0,0,50,24.43a55.91,55.91,0,0,0-5.7-1.73c-1.92-.49-3.87-.91-5.82-1.28s-3.91-.7-5.88-1Z" transform="translate(3.19 56.11)"/><path class="g" d="M32.51,17.17Q29.42,17,26.35,17t-6.15.28a46.15,46.15,0,0,0-6.09.93,25.43,25.43,0,0,0-2.94.88,13.61,13.61,0,0,0-2.76,1.36,18.09,18.09,0,0,1,5.72-2.15,44.47,44.47,0,0,1,6.08-.85q3.06-.23,6.14-.19c2,0,4.09.08,6.13.25Z" transform="translate(3.19 56.11)"/><path class="g" d="M32.74,16.49c-.85-.86-1.73-1.67-2.63-2.46s-1.83-1.54-2.8-2.25a28.13,28.13,0,0,0-3-2A14.9,14.9,0,0,0,21,8.37a15.3,15.3,0,0,1,3.23,1.5,30.15,30.15,0,0,1,2.94,2c.94.73,1.84,1.51,2.72,2.32s1.74,1.63,2.56,2.5Z" transform="translate(3.19 56.11)"/><path class="g" d="M33,17.13c1.46-.72,3-1.35,4.49-1.92a45.13,45.13,0,0,1,4.67-1.47,26.22,26.22,0,0,1,4.82-.8,13.23,13.23,0,0,1,4.85.45,13.47,13.47,0,0,0-4.85-.54,27.54,27.54,0,0,0-4.86.72A45.58,45.58,0,0,0,37.35,15c-1.54.55-3.06,1.16-4.55,1.86Z" transform="translate(3.19 56.11)"/><g class="h"><path class="e" d="M166.18-31.28s3.29-11.21-2.67-12.5-25,4.48-17.94-.82S164-45,164-45s-11.09-13-23-7.21A13.44,13.44,0,0,0,134-43.49c-.09.35-.18.72-.28,1.12,0,0-.34,1.72-1.82,1.27h0a1.57,1.57,0,0,1-1.06-1.72c.27-2-.66-6.79-8-9.26A11.11,11.11,0,0,0,109.63-48c2.26-1.91,17.69,7.75,3.84,5.35s-12.89,10.15-12.89,10.15c.62-3.71,10.49-4.25,15-3.43S103.39-30.43,99.76-28s.48,13,.48,13C100-18.64,115.32-29,119-29.13S103.74-18,101.75-14.32s2.74,10.9,2.74,10.9c-.51-4.83,15.89-18.87,17.79-19.33s4.35,1.51-1.2,3.43-11.65,13-13.57,16.79,4.8,9,4.8,9c-.42-2.13,5.75-17.75,12.2-20.29S115,3,114.09,7.34s6.51,7.88,6.51,7.88C119,12.07,122-1.23,127.45-4s-4.69,20.43-4.69,20.43.58-.55,4.42,1.3,3.91,3.63,3.91,3.63,2.45-4.74,7.13-6.49c0,0-4.61-12.68-3.38-15.3s7.9,9.64,7.28,16.07c0,0,6.84-1.64,2.88-10s-9.92-13.52-6.63-13.73,11.16,15.22,10,20.77c0,0,9.16-5.76,6.59-11.72,0,0-4-9.51-9.31-12.6s-7-7.66-5.19-7.86,14.67,10,16.17,19.22c0,0,7.06-5.82,5.63-11s-26-18-14-15.49S164.4-13.15,164.4-13.15s6-11.45,1.17-15.29-30.37-6.24-18.44-7.95S166.18-31.28,166.18-31.28Zm-38.24,1.71c0,.83-1.54,1-2.51,0s.42-2.27.42-2.27C127.19-32.53,127.94-30.39,127.94-29.57Zm2.67,9.38s-1.34,2.14-2.51.27-2.73-2.94-1.39-3.58,4-.05,4.33,1A3.3,3.3,0,0,1,130.61-20.19Zm9-5.88a6.11,6.11,0,0,1-4.23-.37s-1.65-.59.38-1.76,5.93-2.57,5.93-1.37S141.94-26.71,139.59-26.07Z" transform="translate(3.19 56.11)"/></g></g></svg>