<?xml version="1.0" standalone="no"?>
<!DOCTYPE svg PUBLIC "-//W3C//DTD SVG 20010904//EN"
 "http://www.w3.org/TR/2001/REC-SVG-20010904/DTD/svg10.dtd">
<svg version="1.0" xmlns="http://www.w3.org/2000/svg"
 width="976.000000pt" height="976.000000pt" viewBox="0 0 976.000000 976.000000"
 preserveAspectRatio="xMidYMid meet">
<metadata>
Created by potrace 1.11, written by Peter Selinger 2001-2013
</metadata>
<g transform="translate(0.000000,976.000000) scale(0.100000,-0.100000)"
fill="#000000" stroke="none">
<path d="M7675 9590 c-27 -10 -140 -46 -250 -80 -953 -293 -1855 -789 -2555
-1404 -163 -144 -288 -265 -404 -391 -55 -60 -103 -111 -106 -112 -3 -2 -17
16 -32 40 -82 130 -272 310 -498 471 -482 345 -1076 604 -1450 632 -78 6 -87
4 -113 -16 -15 -12 -27 -27 -27 -34 0 -7 -43 -85 -96 -172 -388 -647 -651
-1413 -736 -2144 -14 -128 -18 -553 -5 -696 l8 -91 -48 -18 c-108 -40 -261
-126 -322 -181 -79 -72 -104 -120 -105 -199 0 -80 9 -111 753 -2508 236 -760
452 -1461 481 -1557 72 -240 81 -258 170 -343 89 -86 192 -152 329 -213 389
-171 894 -277 1596 -336 237 -20 1069 -17 1325 5 668 58 1217 173 1605 337
214 91 310 152 355 226 24 37 1080 3703 1194 4144 31 118 63 235 71 260 34
103 4 204 -83 280 -57 51 -181 122 -287 165 l-80 32 1 59 c0 32 4 183 9 334
29 1017 -190 2442 -508 3300 -36 96 -68 182 -72 191 -6 15 -48 40 -63 38 -4
-1 -29 -9 -57 -19z m881 -4782 c-67 -226 -162 -550 -300 -1028 -57 -201 -219
-763 -360 -1250 -140 -487 -289 -1018 -330 -1180 -73 -289 -108 -406 -139
-466 -21 -40 -101 -86 -261 -149 -480 -190 -979 -290 -1736 -347 -211 -16
-844 -16 -1065 0 -860 63 -1524 229 -1860 467 -115 82 -125 99 -184 318 -40
147 -63 229 -130 457 -42 145 -810 2638 -935 3034 -41 132 -74 241 -72 243 1
2 42 -15 90 -37 219 -104 626 -208 1074 -276 342 -52 795 -94 1337 -126 300
-18 1647 -18 1960 0 1172 66 2029 192 2585 380 160 54 274 100 335 135 22 13
41 20 43 16 2 -4 -21 -90 -52 -191z"/>
<path d="M6664 3884 c-10 -22 -36 -48 -61 -64 -72 -46 -127 -54 -297 -44 -83
5 -216 9 -296 8 -171 -1 -232 -18 -296 -84 l-39 -40 -40 39 c-90 87 -182 96
-250 24 -74 -78 -177 -376 -225 -650 -14 -83 -23 -108 -47 -138 -70 -84 -197
-152 -270 -143 -27 3 -28 5 -31 70 l-3 67 63 -5 c46 -4 73 -1 101 10 56 24
117 84 143 141 41 88 28 155 -44 231 -55 58 -104 79 -166 72 -131 -15 -267
-160 -330 -354 -9 -29 -26 -60 -38 -70 -19 -17 -21 -17 -15 -2 18 51 40 204
41 283 0 101 -7 120 -67 179 -35 34 -43 38 -76 33 -55 -9 -105 -71 -137 -171
-20 -63 -27 -109 -31 -211 -5 -114 -9 -138 -34 -192 -32 -73 -75 -121 -91
-105 -25 25 -11 124 31 228 47 116 64 192 55 243 -9 46 -98 135 -144 144 -81
17 -180 -45 -165 -102 15 -58 17 -167 5 -220 -12 -51 -14 -54 -21 -29 -4 15
-21 41 -38 58 -27 27 -29 33 -19 60 15 45 3 77 -51 130 -98 100 -215 88 -335
-34 -156 -157 -223 -481 -129 -623 43 -65 118 -123 159 -123 77 0 162 58 226
155 36 56 44 63 61 53 19 -10 64 -7 99 7 13 5 22 -4 38 -37 28 -55 104 -134
154 -160 51 -26 129 -20 190 16 44 26 118 97 161 156 20 27 33 35 58 36 18 1
44 4 60 9 24 6 27 4 27 -16 1 -67 96 -186 169 -210 109 -37 269 40 382 183
l38 48 16 -56 c17 -60 84 -143 137 -170 60 -31 134 -7 219 73 77 72 199 267
211 337 7 40 -22 25 -62 -33 -24 -34 -44 -61 -46 -61 -2 0 13 34 33 75 32 69
38 116 12 100 -5 -4 -29 -33 -53 -66 -40 -55 -108 -119 -127 -119 -5 0 -9 21
-9 48 0 105 56 345 123 525 l40 108 17 -51 c30 -90 150 -194 230 -200 14 -1
41 -2 60 -1 l35 1 0 88 c0 106 27 175 87 227 35 29 131 65 143 53 15 -15 -65
-205 -203 -485 -142 -288 -167 -364 -167 -503 0 -99 2 -108 31 -160 38 -67
146 -161 204 -179 127 -38 258 55 284 201 6 34 5 38 -19 44 -15 4 -25 13 -25
24 0 11 -12 22 -30 29 -43 15 -53 48 -47 171 4 90 11 125 50 245 81 252 117
408 117 511 l0 53 78 -36 c114 -52 199 -76 249 -70 97 11 178 105 177 207 0
67 -20 108 -83 173 -82 86 -130 99 -157 41z m-1704 -742 c0 -20 -21 -42 -58
-62 -38 -19 -36 -5 3 39 41 45 55 51 55 23z m-1288 -73 c-18 -35 -25 -68 -26
-118 -2 -43 -8 -78 -18 -92 -29 -43 -58 -69 -78 -69 -17 0 -20 7 -20 49 0 93
59 235 116 280 19 15 29 17 38 9 9 -8 6 -22 -12 -59z"/>
<path d="M2259 3797 c-61 -18 -130 -59 -167 -101 -61 -70 -89 -197 -58 -269 7
-18 39 -59 70 -90 71 -71 152 -100 223 -81 20 6 22 11 17 44 -14 87 38 211
114 268 l32 25 -6 -34 c-17 -101 -61 -255 -94 -331 -21 -48 -74 -146 -119
-218 -233 -373 -251 -474 -116 -619 62 -67 119 -94 198 -93 70 0 116 16 165
57 33 28 74 97 85 146 6 24 3 27 -24 33 -24 5 -29 10 -24 25 4 14 -1 20 -23
24 -33 7 -42 27 -42 92 0 153 212 606 351 749 32 33 61 57 65 53 11 -11 -27
-170 -88 -362 -96 -302 -122 -463 -98 -595 16 -92 41 -142 100 -204 88 -93
203 -127 310 -91 61 20 132 81 161 137 25 48 24 55 -6 62 -16 4 -25 13 -25 25
0 12 -10 21 -26 25 -69 18 -113 81 -121 175 -4 46 6 97 50 271 80 310 90 369
91 505 1 150 -13 192 -87 262 -65 62 -108 77 -201 71 -82 -5 -158 -36 -238
-95 -46 -33 -51 -35 -60 -19 -24 43 -98 107 -151 132 -70 31 -187 41 -258 21z"/>
<path d="M6695 3368 c-83 -30 -177 -123 -230 -228 -59 -118 -80 -201 -80 -325
0 -132 18 -180 92 -249 59 -56 99 -70 171 -63 78 8 157 51 234 126 l66 66 12
-33 c25 -71 130 -162 187 -162 71 0 147 49 213 137 l42 55 15 -29 c8 -15 37
-52 66 -82 85 -87 143 -101 218 -52 50 34 101 98 152 191 38 69 87 190 87 215
0 27 -28 16 -50 -21 -28 -45 -34 -39 -15 16 32 90 4 96 -54 12 -44 -65 -138
-155 -152 -146 -5 3 -7 29 -4 57 21 184 50 264 117 321 49 42 47 53 -23 125
-54 56 -100 81 -149 81 -38 0 -98 -24 -126 -51 l-22 -20 -25 25 c-48 48 -147
57 -221 19 -121 -61 -230 -229 -270 -415 -13 -59 -186 -155 -263 -146 -27 3
-28 5 -31 70 l-3 67 63 -5 c46 -4 73 -1 101 10 56 24 117 84 143 141 40 86 28
154 -40 228 -67 72 -141 93 -221 65z m105 -226 c0 -20 -21 -42 -58 -62 -38
-19 -36 -5 3 39 41 45 55 51 55 23z m588 -8 c11 -5 -44 -190 -72 -239 -31 -58
-89 -111 -107 -99 -5 3 -9 29 -9 59 0 96 58 238 116 284 21 17 29 18 47 8 12
-7 23 -13 25 -13z"/>
<path d="M5476 2009 c-67 -11 -133 -47 -169 -91 -23 -29 -31 -51 -35 -93 l-5
-56 55 -54 c49 -49 60 -55 96 -55 41 0 42 1 42 33 0 50 19 104 46 134 l25 28
-7 -35 c-15 -79 -46 -159 -91 -235 -101 -172 -133 -244 -133 -297 0 -47 3 -53
53 -105 45 -47 59 -56 98 -60 53 -6 96 12 128 53 l21 26 34 -30 c69 -61 192
-47 261 29 39 43 65 95 65 128 0 16 11 9 53 -34 33 -35 62 -55 76 -55 32 0 74
24 109 64 l30 35 50 -50 c57 -57 89 -63 140 -25 59 43 140 169 196 306 16 37
20 41 23 23 2 -12 -10 -57 -27 -100 -17 -43 -34 -98 -37 -124 -5 -41 -2 -48
28 -81 19 -19 44 -38 57 -42 60 -19 150 55 203 167 16 34 29 68 29 75 0 13
-20 17 -20 5 -1 -5 -16 -26 -36 -48 l-35 -40 26 51 c39 81 31 113 -14 53 -13
-17 -24 -29 -26 -27 -2 2 1 24 6 48 17 76 4 127 -47 178 -42 42 -47 44 -92 40
-40 -3 -50 0 -65 19 -40 51 -87 15 -87 -66 0 -64 -41 -190 -76 -237 -37 -47
-48 -44 -39 13 10 66 33 120 62 143 28 22 24 37 -29 87 -43 41 -82 49 -128 26
-34 -17 -36 -17 -73 1 -32 16 -44 17 -76 8 -74 -23 -147 -122 -175 -240 -8
-31 -15 -51 -15 -44 -1 7 -22 35 -47 62 l-46 49 37 32 c46 41 65 78 65 129 0
56 -28 105 -94 168 -106 100 -235 137 -390 111z m246 -140 c55 -22 42 -103
-29 -173 -25 -25 -48 -44 -50 -42 -2 2 1 23 6 47 14 57 14 131 1 164 -10 26
-9 27 17 21 16 -4 40 -11 55 -17z m-23 -317 c53 -51 61 -63 61 -96 0 -43 -22
-91 -45 -100 -35 -13 -95 -6 -115 14 -23 23 -27 18 -36 -41 -6 -34 -9 -39 -15
-24 -4 11 -5 36 -2 55 6 44 76 250 84 250 4 0 34 -26 68 -58z m511 45 c0 -37
-35 -122 -61 -150 l-31 -32 6 48 c3 26 13 62 22 80 29 56 64 86 64 54z"/>
<path d="M3604 1986 c-30 -13 -32 -16 -27 -60 6 -52 -21 -107 -81 -165 l-36
-35 0 68 c0 69 0 69 -48 116 -60 61 -113 78 -191 62 -91 -19 -151 -84 -151
-164 0 -72 106 -164 175 -151 18 4 22 11 23 48 0 45 20 92 47 115 15 12 16 10
10 -16 -22 -99 -65 -197 -131 -300 -59 -93 -94 -175 -94 -223 0 -41 5 -49 58
-103 56 -55 61 -58 108 -58 61 0 105 25 127 73 21 44 21 57 1 57 -9 0 -18 9
-21 20 -3 11 -9 20 -14 20 -19 0 -8 89 22 180 36 108 37 110 50 90 17 -27 29
-85 39 -191 15 -140 25 -173 67 -220 46 -51 81 -69 132 -69 49 0 98 39 107 86
5 26 2 32 -15 37 -12 3 -21 12 -21 20 0 8 -11 18 -25 21 -30 8 -54 52 -85 156
-29 94 -54 147 -91 185 l-29 31 63 31 c118 59 187 142 187 226 0 29 -8 45 -37
76 -44 46 -76 56 -119 37z"/>
<path d="M4431 1751 c-27 -38 -51 -131 -51 -201 0 -32 -8 -72 -19 -96 -44 -97
-57 -39 -16 70 37 99 34 137 -15 186 -48 48 -88 53 -125 16 -21 -21 -23 -27
-13 -65 16 -63 -13 -168 -59 -212 l-35 -34 7 55 c9 69 37 135 64 149 30 16 27
27 -23 77 -36 36 -51 44 -81 44 -20 0 -48 -6 -63 -14 -24 -12 -30 -12 -47 0
-29 22 -97 17 -136 -9 -103 -69 -169 -265 -126 -370 8 -18 33 -49 57 -71 37
-34 47 -38 79 -32 25 4 48 18 77 49 l42 43 50 -48 c65 -62 88 -62 150 -4 l47
44 47 -44 c35 -32 55 -44 78 -44 47 0 106 35 142 85 18 24 39 44 45 45 7 0 19
-13 27 -28 8 -16 34 -46 57 -66 36 -34 46 -38 78 -32 25 4 48 18 77 49 l42 43
50 -48 c63 -60 87 -61 144 -10 56 51 133 212 101 212 -5 0 -18 -16 -31 -36
-25 -38 -42 -41 -22 -3 7 12 16 35 20 50 11 38 -10 39 -32 2 -9 -16 -31 -41
-48 -58 l-32 -30 7 55 c9 69 37 135 64 149 30 16 27 27 -23 77 -36 36 -51 44
-81 44 -20 0 -48 -6 -63 -14 -24 -12 -30 -12 -47 0 -25 18 -88 18 -124 -1 -16
-8 -45 -33 -65 -57 l-36 -42 0 41 c0 33 -7 49 -34 77 -42 45 -76 47 -105 7z
m-516 -224 c-18 -55 -50 -107 -66 -107 -28 0 9 124 49 167 23 25 27 26 30 10
2 -10 -4 -42 -13 -70z m840 0 c-18 -55 -50 -107 -66 -107 -28 0 9 124 49 167
23 25 27 26 30 10 2 -10 -4 -42 -13 -70z"/>
</g>
</svg>
